<?xml version="1.0" standalone="no"?>
<!DOCTYPE svg PUBLIC "-//W3C//DTD SVG 1.1//EN" "http://www.w3.org/Graphics/SVG/1.1/DTD/svg11.dtd" >
<svg xmlns="http://www.w3.org/2000/svg">
<metadata>Generated by IcoMoon</metadata>
<defs>
<font id="icomoon" horiz-adv-x="1024">
<font-face units-per-em="1024" ascent="870.850439882698" descent="-153.14956011730206" />
<missing-glyph horiz-adv-x="1024" />
<glyph unicode="&#x20;" horiz-adv-x="0" d="" />
<glyph unicode="&#xe900;" glyph-name="girl" d="M992.569 581.354l-32.367 32.367c-12.558 12.558-25.123 25.123-37.681 37.681-1.452 1.452-2.657 2.896-4.348 4.588-0.24 0.24-0.24 0.24-0.486 0.486l12.318 12.079c20.535 20.289 40.824 40.338 61.112 60.386l0.726 0.726c2.417 2.178 4.588 4.588 6.519 7.491 2.417 3.862 3.143 7.97 2.178 11.592-0.726 3.143-2.657 5.8-5.8 7.731-3.622 2.178-9.182 2.896-16.187 2.178-3.383-0.486-5.553-2.896-7.731-5.314-0.486-0.486-0.965-1.205-1.452-1.691-20.535-20.535-42.268-42.268-64.255-64.495-2.657-2.657-5.074-5.314-7.491-8.21-0.24-0.486-0.726-0.726-0.965-1.205 0 0-0.24 0.24-0.24 0.24-1.452 1.452-2.657 2.417-3.862 3.383-8.936 8.936-17.878 17.878-26.814 26.814-14.975 14.975-30.197 30.197-45.172 45.172-4.588 4.588-10.148 7.244-14.975 7.244-3.862 0-7.491-1.691-10.148-4.588-4.108-4.108-8.936-13.044 3.143-25.123 4.108-4.108 7.97-7.97 12.079-12.079 3.862-3.862 7.491-7.491 11.353-11.353 12.558-12.558 24.883-25.123 37.441-37.927l14.010-14.010-14.249-14.249c-19.563-19.563-39.132-39.132-58.695-58.695-0.486-0.486-0.965-0.965-1.452-1.452-2.178-2.178-4.834-4.588-5.8-7.97-1.205-4.588-1.691-10.867 0.965-14.735 2.417-3.862 8.696-7.005 13.77-6.765 5.553 0.24 10.867 4.834 13.044 6.765 21.014 20.535 43.241 42.755 68.117 67.638 2.417 2.417 4.348 5.314 6.039 7.97 0 0 0.24 0.24 0.24 0.24 0.24-0.24 0.726-0.486 0.965-0.726 1.931-1.691 3.143-2.896 4.348-4.108 10.387-10.387 20.535-20.535 30.916-30.916l24.397-24.397c1.691-1.691 3.383-3.383 4.834-5.074 4.588-4.834 9.422-9.662 14.496-14.249 3.143-2.896 6.765-4.348 10.387-4.348s7.244 1.452 10.627 4.588c6.279 6.039 6.765 13.77 1.205 20.775-1.931 2.417-3.622 4.108-5.074 5.553zM165.009 158.875c-9.662 24.157-20.775 49.034-31.402 73.191-32.853 74.396-66.912 151.216-75.362 227.543-9.662 88.406 26.814 174.888 99.759 237.205 82.127 70.048 234.788 93 363.059 54.594 95.897-28.745 160.878-86.714 183.097-163.288 7.97-27.054 6.279-55.559 4.348-85.749-1.691-28.505-3.383-57.976 3.143-87.44 9.422-42.515 28.505-63.043 48.794-85.030 8.456-9.182 17.153-18.597 26.328-30.676 0 0 0.24-0.24 0.24-0.24s7.491-9.901 4.588-20.049c-2.417-8.936-12.558-17.392-29.471-24.397-8.696-3.622-12.805-13.53-9.182-21.98 3.622-8.696 13.53-12.805 21.98-9.182 27.54 11.353 43.96 27.293 49.28 47.103 6.765 25.362-8.21 46.137-10.627 49.034-9.901 13.284-19.809 23.911-28.505 33.333-19.323 20.775-33.093 35.989-40.584 69.569-5.553 24.883-4.108 50.725-2.417 78.265 1.931 31.641 3.862 64.255-5.8 97.102-25.602 87.926-98.553 154.113-205.803 186.24-65.947 19.809-141.548 24.883-212.329 14.496-72.951-10.627-137.686-37.681-182.372-75.848-38.893-33.093-69.569-74.396-88.892-119.089-20.535-47.342-28.019-97.102-22.466-147.587 8.936-81.648 43.96-160.878 78.025-237.691 10.627-23.911 20.775-46.616 29.95-69.329 0-11.113-2.417-62.804-44.206-149.525-4.108-8.456-0.486-18.597 7.97-22.466 2.417-1.205 4.834-1.691 7.244-1.691 6.279 0 12.318 3.622 15.215 9.662 51.69 107.489 47.589 166.671 47.342 169.088 0.24 1.452-0.24 3.143-0.965 4.834zM616.952 438.841c0-14.138-11.464-25.602-25.602-25.602s-25.602 11.464-25.602 25.602c0 14.138 11.464 25.602 25.602 25.602s25.602-11.464 25.602-25.602zM822.516 204.772c-1.452 9.182-9.901 15.461-19.084 14.249l-231.166-31.402c-0.726 0-1.452-0.24-2.178-0.486l-116.432 222.956c-1.205 2.417-3.143 4.348-5.314 6.039-9.901 33.819-41.303 58.695-78.265 58.695h-13.53c-44.932 0-81.648-36.715-81.648-81.648v-89.378c0-44.932 36.715-81.648 81.648-81.648h13.53c9.422 0 16.906 7.491 16.906 16.906s-7.491 16.906-16.906 16.906h-13.53c-26.328 0-47.829 21.501-47.829 47.829v89.378c0 26.328 21.501 47.829 47.829 47.829h13.53c26.328 0 47.829-21.501 47.829-47.829v-89.378c0-9.422 7.491-16.906 16.906-16.906s16.906 7.491 16.906 16.906v36.955l96.623-185.028c0.965-1.691 1.931-3.143 3.383-4.348l-23.432-88.166-143.965 140.343c-6.765 6.519-17.392 6.279-23.911-0.24-6.519-6.765-6.279-17.392 0.24-23.911l155.804-151.696c0.726-0.726 1.205-1.205 1.931-1.691l-6.519-24.397c-1.205-4.588-0.486-9.182 1.931-13.284 2.417-3.862 6.279-6.765 10.867-7.731l225.612-48.068c1.205-0.24 2.417-0.486 3.622-0.486 6.765 0 13.284 4.108 15.701 10.867l64.981 166.431c0.965 2.657 1.452 5.8 0.965 8.696l-13.044 86.714zM743.285-31.467l-194.211 41.303 38.893 145.896 203.633 27.78 9.901-65.947-0.726-2.178c-0.24 0-0.726 0-0.965 0.24l-163.535 13.53c-8.456 0.726-15.941-5.553-16.666-14.010s5.553-15.941 14.010-16.666l155.318-12.805-19.084-48.794-146.622 32.367c-8.21 1.931-16.427-3.383-18.118-11.592-1.931-8.21 3.383-16.427 11.592-18.118l142.034-31.402-15.461-39.612zM470.331 26.509c-8.936 2.896-18.358-2.178-21.254-11.113l-29.471-93.24c-2.896-8.936 2.178-18.358 11.113-21.254 1.691-0.486 3.383-0.726 5.074-0.726 7.244 0 13.77 4.588 16.187 11.839l29.471 93.24c2.657 8.936-2.417 18.597-11.113 21.254z" />
<glyph unicode="&#xe901;" glyph-name="plus" horiz-adv-x="1134" d="M546.667 848.676c-49.697 0-86.97-40.378-86.97-86.97v-307.5h-307.5c-49.697 0-86.97-40.378-86.97-86.97s40.378-86.97 86.97-86.97h307.5v-350.985c0-49.697 40.378-86.97 86.97-86.97 49.697 0 86.97 40.378 86.97 86.97v350.985h350.985c49.697 0 86.97 40.378 86.97 86.97 0 49.697-40.378 86.97-86.97 86.97h-350.985v307.5c0 46.59-40.378 86.97-86.97 86.97z" />
<glyph unicode="&#xe902;" glyph-name="bin" horiz-adv-x="1134" d="M192.576 255.418c0 105.606 0 208.106 0 313.712 0 9.318 0 15.53 3.106 24.848 3.106 15.53 15.53 24.848 34.166 24.848s27.954-12.424 31.060-27.954c0-6.212 0-15.53 0-21.742 0-205 0-410 0-611.895 0-40.378 9.318-52.804 52.804-52.804 170.834 0 341.667 0 512.5 0 40.378 0 49.697 9.318 49.697 49.697 0 205 0 410 0 611.895 0 6.212 0 15.53 0 21.742 3.106 18.636 12.424 27.954 31.060 31.060s31.060-6.212 34.166-24.848c3.106-9.318 0-18.636 0-27.954 0-205 0-406.894 0-611.895 0-80.758-40.378-121.136-121.136-121.136-170.834 0-341.667 0-512.5 0-74.546 0-118.030 40.378-118.030 114.924 3.106 105.606 3.106 205 3.106 307.5zM397.576 721.328c0 31.060 0 62.122 0 90.076 0 34.166 12.424 46.59 43.484 46.59 83.864 0 167.728 0 248.485 0 34.166 0 43.484-12.424 43.484-46.59 0-31.060 0-59.016 0-90.076 52.804 0 102.5 0 152.197 0 27.954 0 55.91 0 83.864 0 21.742 0 37.272-15.53 37.272-34.166s-15.53-31.060-37.272-31.060c-52.804 0-102.5 0-155.304 0-211.212 0-425.531 0-636.743 0-6.212 0-12.424 0-15.53 0-21.742-3.106-37.272 9.318-37.272 27.954s15.53 34.166 37.272 34.166c62.122 0 127.348 0 189.47 0 15.53 3.106 31.060 3.106 46.59 3.106zM465.91 786.554c0-21.742 0-43.484 0-65.228 68.334 0 136.666 0 201.894 0 0 21.742 0 43.484 0 65.228-68.334 0-133.56 0-201.894 0zM534.243 277.16c0 77.652 0 155.304 0 232.954 0 27.954 15.53 43.484 37.272 37.272 21.742-3.106 27.954-18.636 27.954-40.378 0-139.772 0-282.652 0-422.425 0-15.53 0-27.954 0-43.484 0-21.742-15.53-37.272-34.166-34.166-21.742 3.106-31.060 15.53-31.060 34.166 0 77.652 0 158.41 0 236.061zM428.637 277.16c0-55.91 0-108.712 0-164.622 0-24.848-12.424-40.378-31.060-40.378s-34.166 15.53-34.166 37.272c0 108.712 0 220.53 0 329.243 0 24.848 12.424 37.272 34.166 40.378 21.742 0 34.166-12.424 34.166-40.378-3.106-52.804-3.106-105.606-3.106-161.516zM705.077 277.16c0 52.804 0 108.712 0 161.516 0 27.954 12.424 40.378 34.166 40.378s31.060-12.424 31.060-40.378c0-108.712 0-217.424 0-326.136 0-24.848-12.424-40.378-34.166-40.378s-31.060 15.53-31.060 43.484c0 55.91 0 108.712 0 161.516z" />
<glyph unicode="&#xe903;" glyph-name="remove" d="M286.212-94.446c-23.708 0-42.855 19.148-42.855 42.855v532.953c0 2.28 0 4.788 0.455 6.381l0.683 2.735h-31.459c-24.618 0-44.908 20.058-44.908 44.908v97.108c0 24.618 20.058 44.908 44.908 44.908h157.972l-0.91 2.963c-1.37 3.873-1.825 7.978-1.825 12.766v54.025c0 28.268 23.025 51.289 51.289 51.289h185.326c28.268 0 51.289-23.025 51.289-51.289v-54.025c0-4.333-0.91-8.434-2.053-12.994l-0.683-2.735h157.517c12.084 0 23.48-4.788 31.914-13.222 8.206-8.434 12.766-19.603 12.539-31.459v-96.652c0-24.618-20.058-44.908-44.908-44.908h-31.914l0.455-2.735c0.455-2.28 0.455-4.105 0.455-6.609v-533.409c0-23.708-19.148-42.855-42.855-42.855h-450.433zM286.895 487.976c-3.191 0-6.381-2.963-6.381-6.381v-532.953c0-3.191 2.963-6.381 6.381-6.381h450.892c3.191 0 6.381 2.963 6.381 6.381v533.181c0 3.191-2.963 6.381-6.381 6.381h-450.892zM213.268 640.929c-5.016 0-8.206-4.333-8.206-8.206v-97.108c0-5.016 4.333-8.206 8.206-8.206h598.147c5.016 0 8.206 4.333 8.206 8.206v97.108c0 5.016-4.333 8.206-8.206 8.206h-598.147zM419.567 761.516c-7.751 0-14.36-6.609-14.36-14.36v-54.025c0-7.751 6.609-14.36 14.36-14.36h184.871c7.751 0 14.36 6.609 14.36 14.36v54.025c0 7.751-6.609 14.36-14.36 14.36h-184.871zM383.548 66.945c-10.259 0-18.237 7.978-18.237 18.237v269.895c0 10.259 7.978 18.237 18.237 18.237 10.031 0 18.237-8.206 18.237-18.237v-269.895c0-10.259-7.978-18.237-18.237-18.237zM512.797 66.945c-10.259 0-18.237 7.978-18.237 18.237v269.895c0 10.259 7.978 18.237 18.237 18.237 5.016 0 10.031-2.053 13.449-5.698 3.191-3.418 5.016-7.751 4.788-12.311v-270.123c0-10.259-8.206-18.237-18.237-18.237zM640.908 66.945c-10.259 0-18.237 7.978-18.237 18.237v269.895c0 10.259 7.978 18.237 18.237 18.237 10.031 0 18.237-8.206 18.237-18.237v-269.895c0-10.259-7.978-18.237-18.237-18.237z" />
<glyph unicode="&#xe904;" glyph-name="bolsa" horiz-adv-x="1134" d="M341.667 59.736c0-3.106 3.106-6.212 3.106-6.212 9.318-24.848 34.166-40.378 59.016-37.272s49.697 9.318 74.546 15.53c27.954 6.212 52.804 15.53 80.758 21.742 18.636 6.212 34.166 9.318 49.697 15.53 34.166 12.424 68.334 27.954 99.394 40.378 40.378 18.636 77.652 37.272 114.924 62.122 24.848 15.53 34.166 43.484 21.742 68.334-3.106 6.212 0 9.318 3.106 12.424 46.59 31.060 65.228 93.182 43.484 142.879s-71.44 77.652-124.242 71.44c-3.106 0-6.212 0-6.212 3.106-3.106 9.318-6.212 18.636-15.53 24.848-15.53 15.53-34.166 18.636-52.804 15.53-68.334-12.424-133.56-31.060-198.788-52.804-37.272-12.424-74.546-31.060-111.818-46.59s-71.44-34.166-102.5-55.91c-18.636-12.424-31.060-34.166-24.848-55.91 0-6.212 3.106-12.424 6.212-18.636-52.804-31.060-71.44-93.182-49.697-145.985 15.53-52.804 68.334-86.97 130.454-74.546zM860.379 376.554c15.53-40.378-6.212-77.652-31.060-93.182-18.636 46.59-34.166 96.288-52.804 142.879 31.060 6.212 68.334-12.424 83.864-49.697zM304.394 320.645c31.060 18.636 62.122 34.166 93.182 49.697 37.272 15.53 74.546 34.166 114.924 46.59 59.016 21.742 121.136 37.272 183.258 49.697 3.106 0 9.318 0 12.424 3.106 9.318 0 18.636-3.106 21.742-12.424 12.424-31.060 21.742-62.122 34.166-96.288 3.106-6.212 6.212-12.424 6.212-21.742 15.53-37.272 27.954-77.652 43.484-118.030 3.106-9.318 0-18.636-9.318-21.742-18.636-12.424-37.272-21.742-55.91-31.060-49.697-24.848-99.394-49.697-152.197-68.334-62.122-21.742-124.242-40.378-189.47-49.697-3.106 0-6.212 0-6.212 0-9.318 0-18.636 3.106-21.742 12.424 0 3.106 0 3.106-3.106 6.212-27.954 74.546-55.91 149.091-80.758 223.636-6.212 15.53-3.106 21.742 9.318 27.954zM273.334 239.888c18.636-46.59 34.166-96.288 52.804-142.879-27.954-3.106-68.334 12.424-83.864 52.804-12.424 40.378 9.318 74.546 31.060 90.076zM534.243 215.039c-31.060-12.424-62.122-21.742-96.288-34.166-9.318-3.106-21.742-6.212-31.060-12.424-6.212-3.106-9.318-9.318-9.318-15.53s6.212-12.424 12.424-12.424c3.106 0 9.318 0 12.424 3.106 102.5 37.272 205 74.546 307.5 111.818 3.106 0 3.106 0 6.212 3.106 9.318 3.106 12.424 12.424 9.318 21.742s-12.424 12.424-21.742 9.318c-49.697-18.636-102.5-37.272-155.304-55.91-12.424-12.424-24.848-15.53-34.166-18.636zM382.046 239.888c3.106 0 6.212 0 6.212 3.106 49.697 18.636 99.394 37.272 149.091 55.91s102.5 37.272 152.197 55.91c3.106 0 3.106 0 6.212 3.106 6.212 3.106 9.318 12.424 9.318 18.636-3.106 9.318-9.318 12.424-15.53 12.424-3.106 0-6.212 0-9.318-3.106-102.5-37.272-205-74.546-307.5-111.818 0 0-3.106 0-3.106-3.106-6.212-3.106-12.424-12.424-9.318-18.636 3.106-9.318 12.424-15.53 21.742-12.424zM1000.153 848.676h-866.591c-27.954 0-52.804-24.848-52.804-52.804v-900.759c0-27.954 24.848-52.804 52.804-52.804h866.591c27.954 0 52.804 24.848 52.804 52.804v900.759c0 27.954-24.848 52.804-52.804 52.804zM1015.683-104.885c0-9.318-6.212-15.53-15.53-15.53h-866.591c-9.318 0-15.53 6.212-15.53 15.53v751.667h897.653v-751.667zM1015.683 684.054h-897.653v111.818c0 9.318 6.212 15.53 15.53 15.53h866.591c9.318 0 15.53-6.212 15.53-15.53v-111.818z" />
<glyph unicode="&#xe905;" glyph-name="mascarilla" d="M998.351 534.76c-3.404 0.24-7.047 0.24-10.443 0.24-29.385 0-58.778-6.314-87.923-18.456-65.331-27.687-120.466-43.472-173.655-49.060-36.185-3.883-70.433-13.114-104.194-28.413-31.33-14.087-63.872-27.447-94.963-40.562-16.032-6.8-32.789-13.6-49.060-20.647-5.102-2.185-9.957-3.157-14.573-3.157-6.8 0-13.114 2.431-18.942 7.286-8.745 7.526-11.902 17.969-9.231 30.118 2.671 11.655 11.416 17.244 20.161 21.859 17.244 8.985 34.487 18.216 51.731 27.447 38.617 20.401 78.445 41.774 118.034 61.935 15.299 7.773 22.345 18.942 23.318 37.405 1.212 19.428-1.698 38.617-4.855 56.833-2.185 12.388-8.985 19.914-18.456 19.914-4.369 0-9.471-1.698-14.326-4.855-23.804-15.545-48.088-31.33-71.406-46.629-22.345-14.573-45.177-29.632-68.002-44.444-7.286-4.616-11.902-10.683-14.573-18.942-1.459-4.369-2.917-8.498-4.369-12.875-4.855-14.326-9.718-29.146-15.299-43.472-8.498-21.373-30.358-36.432-53.189-36.432-0.726 0-1.698 0-2.431 0l-6.561 0.24 1.945 6.074c2.917 8.745 5.828 17.49 8.985 26.228 6.561 19.189 13.361 39.342 19.675 59.017 11.169 34.973 30.118 67.516 55.86 96.661 7.526 8.498 15.299 17.004 22.832 25.502 19.914 22.099 40.315 44.931 59.99 68.002 23.071 26.961 49.307 40.075 80.876 40.075 10.683 0 22.099-1.698 34.001-4.855 59.75-16.032 118.767-27.447 175.6-34.001 30.604-3.643 55.621-5.342 78.445-5.342 20.401 0 39.103 1.459 57.072 4.129 9.957 1.459 15.299 7.526 14.573 16.032-0.726 7.773-6.561 13.114-14.087 13.114-0.726 0-1.698 0-2.671-0.24-17.244-2.671-34.973-3.883-54.162-3.883-34.001 0-68.002 4.129-99.579 8.498-54.402 7.526-108.563 20.401-160.78 33.028-9.957 2.431-19.914 3.643-29.632 3.643-21.373 0-42.020-5.828-61.448-17.49-6.8-4.129-13.6-5.828-21.373-5.828-2.185 0-4.369 0.24-7.047 0.486-64.605 7.773-130.183 15.299-193.809 22.832l-43.719 5.102c-2.431 0.24-4.855 0.486-7.047 0.486-6.561 0-13.114-1.212-19.428-3.404-23.804-8.745-37.891-31.816-34.973-57.319 2.917-26.228 21.613-44.931 49.307-48.334 3.883-0.486 7.773-0.972 11.655-1.212 8.745-0.726 17.969-1.698 26.715-4.129l3.157-0.972 0.24-3.404c0.486-6.074-2.917-8.745-4.616-10.204-0.24-0.24-0.486-0.486-0.726-0.486-12.388-11.655-24.77-23.318-36.918-34.734-26.475-24.77-53.676-50.519-80.39-76.021-11.902-11.169-18.456-25.502-18.702-40.315-0.24-13.6 5.102-26.961 15.299-37.405 9.957-10.204 22.832-15.785 36.672-15.785 0 0 0 0 0 0 14.326 0 28.659 6.074 40.315 17.004 10.93 10.443 21.859 20.887 33.028 31.577 12.388 11.902 25.256 24.29 38.13 36.432l3.157 2.917c7.773 7.526 16.032 15.299 27.201 21.126l5.102 2.671 1.698-5.588c1.698-5.588 0.24-9.718-0.972-12.388-0.24-0.486-0.486-0.972-0.486-1.459l-3.643-10.683c-10.204-30.358-20.887-61.935-31.33-93.018-2.431-7.286-3.883-13.6-4.369-18.702-89.861-4.369-168.553-105.406-196.973-146.208l-3.883-0.24-31.577 3.157c-0.486 0-0.972 0-1.459 0-6.561 0-12.388-4.369-14.087-10.683l-90.108-334.196c-2.185-7.773 2.431-15.785 10.204-17.73 1.212-0.24 2.431-0.486 3.883-0.486 6.561 0 12.388 4.369 14.087 10.93l86.465 323.020 327.875-33.761-73.104-280.76c-1.945-7.773 2.671-15.785 10.443-17.73 1.212-0.24 2.431-0.486 3.643-0.486 6.561 0 12.388 4.369 14.087 10.93l77.233 296.791c0.972 4.129 0.24 8.498-2.185 11.902s-6.314 5.828-10.443 6.074l-4.369 0.486v0.486h0.726c5.588 43.472 0.726 76.021-8.745 100.791 1.945-0.24 4.129-0.486 6.314-0.486 8.259 0 16.271 1.698 24.29 4.855 9.957 4.129 20.647 8.498 30.844 13.361 2.431 1.212 4.855 1.945 7.047 2.185l48.334 20.887c1.212 0.726 2.917 1.459 4.855 2.185 24.29 9.718 48.574 20.161 72.131 30.358 6.8 2.917 13.6 5.828 20.647 8.745 5.588 2.431 11.416 3.883 17.73 4.369 80.39 8.259 152.035 26.228 218.825 55.374 27.687 12.142 54.648 17.969 82.335 17.969 2.671 0 5.588 0 8.259-0.24 0.486 0 0.972 0 1.698 0 11.169 0 17.73 5.102 17.969 14.087 0.24 11.902-10.443 14.812-19.428 15.299zM476.907 487.644c3.404 16.518 8.745 29.385 23.804 38.617 23.071 14.087 46.389 29.385 68.488 44.205 9.957 6.561 19.914 13.114 30.118 19.675 5.588 3.643 8.498 5.342 11.416 5.342 6.8 0 7.773-6.8 8.745-15.545 2.431-18.456-3.883-29.872-20.887-37.891-24.044-11.416-47.848-24.29-70.919-36.672-9.957-5.342-19.914-10.683-29.872-16.032-2.671-1.459-5.102-2.671-8.498-4.129-1.698-0.726-3.643-1.698-5.588-2.671l-8.745-4.369 1.945 9.471zM288.432 706.956c-16.032 1.945-25.742 13.114-24.29 27.687 1.212 13.6 11.655 22.832 25.742 22.832 1.212 0 2.431 0 3.643-0.24 41.287-4.616 83.308-9.471 123.623-14.326l25.742-2.917c1.698-0.24 2.917-0.726 4.616-1.459 0.972-0.486 1.945-0.726 3.404-1.459l10.683-4.129-28.173-13.361c-15.785-7.526-30.844-14.573-45.903-21.613-2.431-1.212-5.102-1.698-8.259-1.698-2.185 0-4.369 0.24-6.561 0.486-0.726 0-1.459 0.24-2.185 0.24-30.604 3.883-57.559 7.047-82.089 9.957zM266.094 500.759l-1.459-1.459c-3.643-3.643-7.047-7.286-11.169-10.443-4.855-3.883-10.443-5.828-16.032-5.828-6.561 0-12.388 2.671-16.757 7.526-8.985 9.718-8.745 22.832 0.486 32.789 4.616 5.102 9.957 9.957 14.812 14.573 1.945 1.698 3.643 3.404 5.342 5.102 6.074 5.828 12.628 11.655 18.702 17.49 13.114 12.142 26.715 24.53 38.856 37.891 51.977 56.107 119.007 85.246 188.954 112.207l0.972 0.486 12.142-0.726-5.588-8.985-12.875-14.812c-14.326-16.518-29.385-33.761-44.205-50.519-2.671-2.917-6.074-4.855-8.259-6.074-62.907-30.604-113.419-78.445-163.937-129.211zM436.585 249.144l-0.486-1.459-255.257 26.228c-0.24-0.24-0.486-0.726-0.726-0.972l-0.726 1.212h1.212c32.056 43.232 99.818 121.191 169.765 121.191 4.855 0 9.718-0.486 14.573-1.212 3.404-0.726 87.677-18.942 71.645-144.996v0zM179.383 177.739c-1.212 0.24-2.431 0.486-3.643 0.486-6.561 0-12.388-4.616-14.087-10.93l-59.264-230.727c-0.972-3.883-0.486-7.773 1.459-10.93 1.945-3.404 5.102-5.828 8.985-6.8 1.212-0.24 2.431-0.486 3.643-0.486 6.561 0 12.388 4.616 14.087 10.93l59.264 230.974c0.972 3.883 0.486 7.773-1.459 10.93-2.185 3.404-5.342 5.588-8.985 6.561zM265.361 163.892c-1.212 0.24-2.431 0.486-3.404 0.486-6.8 0-12.628-4.616-14.087-11.169l-53.429-216.887c-0.972-3.883-0.24-7.773 1.698-10.93 1.945-3.404 5.102-5.588 8.985-6.561 1.212-0.24 2.431-0.486 3.404-0.486 6.8 0 12.628 4.616 14.087 11.169l53.429 216.887c1.945 7.773-2.671 15.545-10.683 17.49zM352.065 154.668c-1.212 0.24-2.431 0.486-3.404 0.486-6.8 0-12.628-4.616-14.087-11.169l-51.245-207.656c-0.972-3.883-0.24-7.773 1.698-10.93 1.945-3.404 5.102-5.588 8.985-6.561 1.212-0.24 2.431-0.486 3.404-0.486 6.8 0 12.628 4.616 14.087 11.169l51.245 207.656c1.945 7.773-2.917 15.545-10.683 17.49z" />
<glyph unicode="&#xe906;" glyph-name="wash" d="M49.742 42.282c29.269-68.776 83.293-106.375 155.634-118.512 20.467-3.335 41.405-4.519 61.872-4.76 101.851-0.477 203.943-0.236 305.794-0.236 7.14 0 14.516-0.236 21.415 1.426 22.847 4.996 38.553 27.13 35.932 49.5-2.857 24.508-21.657 42.124-46.642 42.124-48.787 0.236-97.332 0-146.113 0.236-4.283 0-8.33 0-12.614 0 0 1.19 0 2.616-0.236 3.806 4.047 0.236 8.089 0.954 12.136 0.954 70.679 0 141.117 0 211.796 0 25.227 0 45.688 14.752 52.351 37.122 9.998 33.793-14.281 66.632-50.213 66.868-70.915 0.477-142.072 0.236-212.987 0.236-3.093 0-6.186-0.236-9.043 0.236-1.903 0.236-3.806 1.667-5.473 5.238 4.283 0.477 8.808 1.426 13.091 1.426 77.814 0 155.634 0 233.447 0.236 8.089 0 16.661 0.713 24.508 3.093 24.508 7.853 38.312 31.649 34.27 58.066-3.57 23.795-24.75 42.595-49.977 42.595-80.913 0.236-161.584 0.236-242.491 0.236-4.283 0-8.566 0.954-12.849 1.667 0.236 1.667 0.477 3.093 0.713 4.76 4.283 0.236 8.808 0.477 13.091 0.477 65.677 0 131.361 0 197.038 0 31.89 0 54.973 21.18 55.686 50.448s-20.702 52.828-49.977 53.306c-39.979 0.713-79.958 0.477-120.173 0.477-64.252 0-128.504 0-192.52 0-1.903 0-3.806 0-5.709 0-11.659 0.713-20.225 5.473-24.508 16.897-4.047 10.946-0.477 19.99 7.618 27.607 20.467 18.564 41.405 36.409 61.159 55.686 0.954 0.954 2.145 2.145 3.093 3.093l11.423 15.471c12.372 20.225 10.711 37.363 4.996 50.69-0.236 0.236-0.477 0.236-0.477 0.477 0 0 0.236 0 0.236 0-7.853 17.609-23.318 27.843-23.318 27.843-21.657 10.711-43.549 10.711-61.636-4.76-61.159-52.115-126.365-99.471-181.809-158.491-36.886-39.266-69.012-81.384-81.861-134.69-15.707-68.058-14.516-135.644 13.326-200.85zM129.459 349.502c46.878 49.5 99.235 92.807 152.063 135.408 11.659 9.521 22.605 19.99 34.506 29.269 12.614 9.998 29.51 8.33 39.979-2.857 9.998-10.469 10.469-27.607 0.954-39.502-2.616-3.335-5.709-5.95-8.808-8.808-20.467-18.564-41.169-36.886-61.394-55.45-14.752-13.562-20.944-30.223-16.661-50.213 5.709-26.176 26.176-41.646 55.686-41.646 100.425 0 200.85 0 301.269 0 4.996 0 9.756 0.236 14.752-0.477 11.423-1.426 19.99-10.469 21.18-21.657 1.19-11.901-5.95-22.847-17.374-25.94-4.76-1.19-9.756-1.426-14.516-1.667-64.487-0.236-129.216 0-193.71-0.236-4.996 0-9.756 0.236-14.752-0.236-14.039-1.19-25.463-12.136-27.13-26.176-1.667-14.752 6.428-28.797 19.99-33.080 5.709-1.667 11.901-2.145 17.845-2.145 70.915-0.236 142.072 0 212.987 0 10.469 0 21.18 0.236 31.649-0.236 13.562-0.477 23.083-9.756 24.037-22.37 0.954-13.562-7.376-24.037-20.944-26.417-4.047-0.713-8.33-0.477-12.372-0.477-52.593 0-104.944 0-157.536 0-28.797 0-57.353 0.236-86.144-0.236-17.132-0.236-29.269-12.849-29.746-29.269-0.477-16.897 11.659-30.223 28.797-31.649 3.335-0.236 6.899-0.236 10.233-0.236 69.012 0 138.26 0 207.272 0 4.047 0 8.33 0.236 12.372-0.236 11.901-1.19 20.944-10.711 22.134-22.37 1.19-11.423-6.186-22.605-17.845-25.698-4.996-1.426-10.469-1.426-15.707-1.426-72.105 0-144.21 0-216.315-0.236-17.609 0-30.7-13.562-30.459-29.981 0.236-16.184 13.091-28.556 30.223-29.033 3.335-0.236 6.899 0 10.233 0 48.31 0 96.619 0 144.923 0 13.326 0 22.134-8.089 22.134-19.035 0.236-11.182-8.808-19.035-21.892-19.512-3.093 0-5.95 0-9.043 0-53.541 0-107.324 0-160.871 0-20.467 0-40.692-0.236-61.159 0-43.072 0.713-86.144-0.713-128.981 2.857-77.578 6.428-136.357 53.541-156.111 127.313-26.417 102.092-10.469 194.658 64.252 273.668zM660.611 614.604c-11.423 37.363-33.552 69.489-54.731 100.661-4.047 5.709-8.089 11.659-11.901 17.609-0.713 1.19-2.145 1.903-3.57 2.145-1.426 0-2.857-0.477-3.806-1.426-21.18-23.318-58.779-87.812-68.299-117.080-3.806-12.136-4.519-24.273-1.667-36.886 4.047-19.035 16.184-36.173 33.316-46.642 12.136-7.618 25.94-11.423 39.744-11.423 5.709 0 11.423 0.713 17.132 2.145 20.467 4.996 38.076 18.087 48.068 35.696 9.279 16.661 11.423 36.409 5.709 55.208zM443.583 752.151c-4.047 6.663-8.33 13.326-12.372 19.99-1.426 2.616-3.335 4.76-5.238 7.376-0.954 1.19-1.903 2.616-3.093 4.047-0.954 1.19-2.38 1.903-4.047 1.903s-3.093-0.713-3.806-2.145c-2.857-4.047-5.709-8.089-8.566-12.136-6.186-8.808-12.136-17.132-17.132-26.176-1.19-2.145-2.38-4.283-3.806-6.663-9.756-17.374-19.99-35.219-27.366-54.018-11.423-30.223 3.335-63.539 34.506-77.814 8.089-3.806 16.661-5.473 25.463-5.473 21.657 0 43.314 10.946 55.45 29.981 13.326 20.944 13.562 44.498 0.713 68.299-9.279 18.087-20.225 35.696-30.7 52.828zM782.693 186.015c0.713-11.901-0.954-23.083-4.996-33.316 9.998-9.998 20.225-20.225 30.223-30.223 2.857-2.857 5.95-5.709 8.566-9.043 7.376-9.279 7.376-22.37-0.236-31.413-7.14-8.808-20.467-11.659-30.7-5.473-4.519 2.616-8.33 6.428-12.136 9.998-9.756 9.756-19.512 19.512-29.51 29.269-0.954-0.477-1.667-0.954-2.616-1.426 0.477-0.713 0.954-1.19 1.426-1.903 10.469-14.039 15.229-30.936 14.039-48.068 0.477-0.477 1.19-1.19 1.667-1.667 17.845-17.845 42.595-21.892 63.303-10.711 30.936 16.897 36.886 57.111 11.659 82.816-16.897 17.374-33.793 34.27-50.69 51.161zM766.032 369.969c46.407-46.407 92.807-93.049 139.45-139.214 22.605-22.605 54.018-24.037 74.962-3.806 21.18 20.225 22.847 51.88 2.616 73.059-27.843 28.797-56.399 56.876-84.719 85.196-45.452 45.452-90.669 90.905-136.121 136.121-1.426 1.426-2.616 2.616-4.047 4.047-7.853 8.566-10.469 18.087-5.473 29.033 4.996 10.469 13.804 14.516 24.985 14.039 27.607-1.19 54.973-3.57 82.574-3.806 1.426 0 2.857 0 4.283 0.236l19.035 2.857c23.083 5.473 34.029 18.8 39.502 32.361 0 0.236 0 0.477 0 0.713 0 0 0.236 0 0.236-0.236 6.899 18.087 3.335 36.173 3.335 36.173-7.853 22.847-23.083 38.312-47.12 40.215-63.775 4.996-127.313 14.039-191.088 16.184 5.238-9.279 10.233-18.564 14.752-28.32 42.359-2.145 84.241-6.186 126.365-10.711 14.994-1.667 30.223-1.903 45.217-3.806 15.942-1.903 26.653-14.994 26.417-30.223-0.477-14.516-12.136-26.888-27.366-28.556-4.047-0.477-8.33-0.236-12.372 0-27.607 1.426-54.973 3.093-82.574 4.283-19.99 0.954-36.173-6.663-47.12-23.56-14.516-22.605-10.711-47.832 9.998-68.776 70.915-71.151 142.072-142.072 212.987-213.222 3.57-3.57 7.14-6.899 9.998-10.711 7.14-9.043 6.663-21.657-0.477-30.223-7.618-9.279-20.225-11.901-30.7-6.186-4.283 2.38-7.853 5.709-11.423 9.279-45.688 45.688-91.382 91.14-137.070 136.834-3.57 3.57-6.899 7.14-10.469 10.233-10.946 9.279-26.653 9.279-37.599 0.713-11.659-9.279-15.942-24.75-9.279-37.363 2.857-5.238 6.899-9.998 11.182-14.039 50.213-50.213 100.425-100.425 150.638-150.638 7.376-7.376 14.994-14.752 22.37-22.605 9.279-9.998 9.521-23.083 1.19-32.839-8.808-10.233-22.37-11.901-33.552-3.806-3.335 2.38-6.186 5.473-9.279 8.33-37.122 37.122-74.25 74.25-111.371 111.371-5.709 5.709-11.423 11.423-17.132 17.132-1.903-9.279-5.473-17.609-10.711-24.985 24.508-7.376 43.785-27.366 49.735-52.593 23.795-23.56 47.355-47.355 71.151-70.915 5.709-5.709 12.372-11.423 19.512-14.994 22.847-11.901 49.5-4.76 65.206 16.661 14.281 19.512 12.614 47.597-5.238 65.442-56.876 57.353-114.229 114.464-171.098 171.576-3.093 3.093-5.238 6.899-7.853 10.233 1.19 0.954 2.616 1.903 3.806 2.857 3.335-3.335 6.663-6.186 9.756-9.043z" />
<glyph unicode="&#xe907;" glyph-name="angle_down" horiz-adv-x="1134" d="M66.977 480.805l127.348 124.242 378.94-378.94 378.94 378.94 127.348-124.242-506.288-506.288z" />
<glyph unicode="&#xe908;" glyph-name="angle_up" horiz-adv-x="1134" d="M1071.986 156.024l-124.242-127.348-382.046 378.94-378.94-378.94-127.348 127.348 506.288 506.288z" />
<glyph unicode="&#xe909;" glyph-name="pause" horiz-adv-x="1134" d="M74.546-101.779v894.547c0 34.166 27.954 62.122 62.122 62.122h279.546c34.166 0 62.122-27.954 62.122-62.122v-894.547c0-34.166-27.954-62.122-62.122-62.122h-279.546c-34.166 0-62.122 27.954-62.122 62.122zM720.607-163.901h279.546c34.166 0 62.122 27.954 62.122 62.122v894.547c0 34.166-27.954 62.122-62.122 62.122h-279.546c-34.166 0-62.122-27.954-62.122-62.122v-894.547c0-34.166 27.954-62.122 62.122-62.122z" />
<glyph unicode="&#xe90a;" glyph-name="play1" horiz-adv-x="1134" d="M987.729 401.403c43.484-24.848 43.484-86.97 0-111.818l-776.516-447.273c-43.484-24.848-96.288 6.212-96.288 55.91v894.547c0 49.697 52.804 80.758 96.288 55.91l776.516-447.273z" />
<glyph unicode="&#xe90b;" glyph-name="settings" d="M683.334 334.816c0 47.15-19.176 89.944-50.054 120.779s-73.629 50.054-120.779 50.054-89.944-19.176-120.779-50.054-50.054-73.629-50.054-120.779 19.176-89.944 50.054-120.779 73.629-50.054 120.779-50.054 89.944 19.176 120.779 50.054 50.054 73.629 50.054 120.779zM597.917 334.816c0-23.618-9.524-44.887-25.027-60.39s-36.772-25.027-60.39-25.027-44.887 9.524-60.39 25.027-25.027 36.772-25.027 60.39 9.524 44.887 25.027 60.39 36.772 25.027 60.39 25.027 44.887-9.524 60.39-25.027 25.027-36.772 25.027-60.39zM867.62 189.437c1.965 4.484 4.784 8.157 8.2 10.976 4.784 3.929 10.719 6.235 17.212 6.278h3.844c35.363 0 67.479 14.393 90.584 37.541s37.541 55.222 37.541 90.584-14.393 67.479-37.541 90.584-55.222 37.541-90.584 37.541h-6.791c-4.698 0.043-9.182 1.196-13.154 3.246-5.424 2.819-9.823 7.346-12.471 13.325-0.128 1.238-0.171 2.519-0.171 3.801-1.025 2.349-1.709 4.741-2.093 7.175 0.854 14.265 3.288 19.39 7.175 23.362l2.648 2.648c24.984 25.027 37.498 57.913 37.456 90.628s-12.556 65.6-37.626 90.628c-25.027 24.984-57.913 37.498-90.628 37.456s-65.6-12.556-90.541-37.541l-1.965-1.965c-3.544-3.416-7.816-5.809-12.3-7.090-5.979-1.666-12.428-1.366-18.706 1.409-4.313 1.879-7.987 4.698-10.806 8.115-3.929 4.784-6.235 10.719-6.278 17.212v3.844c0 35.363-14.393 67.479-37.541 90.584s-55.222 37.541-90.584 37.541-67.479-14.393-90.584-37.541-37.541-55.222-37.541-90.584v-6.791c-0.043-4.698-1.196-9.182-3.246-13.154-2.819-5.424-7.346-9.823-13.325-12.471-1.238-0.128-2.519-0.171-3.801-0.171-2.349-1.025-4.741-1.709-7.175-2.093-14.307 0.897-19.432 3.331-23.404 7.218l-2.648 2.648c-25.027 24.984-57.87 37.498-90.628 37.498s-65.557-12.556-90.628-37.669c-24.984-25.027-37.498-57.87-37.498-90.628s12.556-65.6 37.541-90.541l2.050-2.007c3.416-3.544 5.809-7.816 7.090-12.3 1.666-5.979 1.366-12.428-1.324-18.535-0.256-0.684-0.556-1.452-0.897-2.221-1.751-4.656-4.613-8.669-8.157-11.744-4.698-4.057-10.677-6.534-16.357-6.663h-3.844c-35.363 0-67.479-14.393-90.584-37.541s-37.541-55.265-37.541-90.628 14.393-67.479 37.541-90.584 55.222-37.541 90.584-37.541h6.791c4.698-0.043 9.182-1.196 13.154-3.246 5.466-2.862 9.951-7.431 12.641-13.709 1.025-2.349 1.709-4.741 2.093-7.175-0.854-14.265-3.288-19.39-7.175-23.362l-2.648-2.648c-24.984-25.027-37.498-57.913-37.456-90.628s12.556-65.6 37.626-90.628c25.027-24.984 57.913-37.498 90.628-37.456s65.6 12.556 90.541 37.541l2.007 2.050c3.544 3.416 7.816 5.809 12.3 7.090 5.979 1.666 12.428 1.366 18.535-1.324 0.684-0.256 1.452-0.556 2.221-0.897 4.656-1.751 8.669-4.613 11.744-8.157 4.057-4.698 6.534-10.677 6.663-16.357v-3.929c0-35.363 14.393-67.479 37.541-90.584s55.222-37.541 90.584-37.541 67.479 14.393 90.584 37.541 37.541 55.222 37.541 90.584v6.791c0.043 4.698 1.196 9.182 3.246 13.154 2.862 5.466 7.431 9.951 13.709 12.641 2.349 1.025 4.741 1.709 7.175 2.093 14.265-0.854 19.39-3.288 23.362-7.175l2.648-2.648c25.027-24.984 57.913-37.498 90.628-37.456s65.6 12.556 90.628 37.626c24.984 25.027 37.498 57.913 37.456 90.628s-12.556 65.6-37.541 90.541l-2.050 2.007c-3.416 3.544-5.809 7.816-7.090 12.3-1.666 5.979-1.366 12.428 1.324 18.535zM785.663 450.044c-0.513 8.584-1.623 12.684-3.246 16.315v-3.416c0-1.837 0.128-3.588 0.341-5.338 0.897-2.563 1.837-5.082 2.904-7.559 0.171-3.844 0.213-3.887 0.213-3.929 10.634-24.813 29.213-43.99 51.591-55.649 15.844-8.243 33.526-12.727 51.72-12.941h7.688c11.788 0 22.422-4.741 30.194-12.513s12.513-18.407 12.513-30.194-4.741-22.422-12.513-30.194-18.407-12.513-30.194-12.513h-3.844c-27.206-0.128-52.104-9.738-71.537-25.753-13.794-11.36-24.813-25.924-32.031-42.409-10.976-24.856-12.3-51.677-5.424-76.106 5.082-18.066 14.563-34.765 27.846-48.516l3.075-3.118c8.371-8.371 12.556-19.219 12.556-30.194s-4.143-21.866-12.471-30.194c-8.413-8.413-19.262-12.599-30.281-12.599s-21.866 4.143-30.194 12.471l-2.606 2.606c-19.774 19.347-44.416 29.981-69.7 32.116-18.663 1.581-37.669-1.452-55.222-9.054-24.685-10.591-43.862-29.169-55.521-51.506-8.243-15.844-12.727-33.526-12.941-51.72v-7.731c0-11.788-4.741-22.422-12.513-30.194s-18.365-12.471-30.152-12.471-22.422 4.741-30.194 12.513-12.513 18.407-12.513 30.194v3.844c-0.641 28.188-10.891 53.044-27.504 72.263-12.129 14.009-27.59 24.984-45.185 31.775-24.557 10.549-50.951 11.702-74.996 4.954-18.066-5.082-34.765-14.563-48.516-27.846l-3.118-3.075c-8.371-8.371-19.219-12.556-30.194-12.556s-21.866 4.143-30.194 12.471c-8.413 8.413-12.599 19.262-12.599 30.281s4.143 21.866 12.471 30.194l2.606 2.606c19.347 19.774 29.981 44.416 32.116 69.7 1.581 18.663-1.452 37.669-9.054 55.222-10.591 24.685-29.169 43.862-51.506 55.521-15.844 8.243-33.526 12.727-51.72 12.941l-7.688-0.043c-11.788 0-22.422 4.741-30.194 12.513s-12.513 18.407-12.513 30.194 4.741 22.422 12.513 30.194 18.407 12.513 30.194 12.513h3.844c28.188 0.641 53.044 10.891 72.263 27.504 14.009 12.129 24.984 27.59 31.775 45.185 10.549 24.557 11.702 50.951 4.954 74.996-5.082 18.066-14.563 34.765-27.846 48.516l-3.118 3.118c-8.371 8.371-12.556 19.219-12.556 30.194s4.143 21.866 12.471 30.194c8.413 8.413 19.262 12.599 30.281 12.599s21.866-4.143 30.194-12.471l2.606-2.606c19.774-19.347 44.416-29.981 69.7-32.116 15.802-1.366 31.818 0.598 47.022 5.851 4.1 0.513 7.944 1.538 11.36 3.075-1.324-0.043-2.606-0.128-3.801-0.171-8.584-0.513-12.684-1.623-16.315-3.246h3.416c1.837 0 3.588 0.128 5.338 0.341 2.563 0.897 5.082 1.837 7.559 2.904 3.844 0.171 3.887 0.213 3.929 0.213 24.813 10.634 43.99 29.213 55.649 51.591 8.243 15.802 12.727 33.526 12.941 51.677v7.731c0 11.788 4.741 22.422 12.513 30.194s18.407 12.513 30.194 12.513 22.422-4.741 30.194-12.513 12.513-18.407 12.513-30.194v-3.844c0.128-27.206 9.738-52.104 25.753-71.537 11.36-13.794 25.924-24.813 42.538-32.074 24.685-10.891 51.506-12.215 75.935-5.338 18.066 5.082 34.765 14.563 48.516 27.846l3.118 3.075c8.371 8.371 19.219 12.556 30.194 12.556s21.866-4.143 30.194-12.471c8.413-8.413 12.599-19.262 12.599-30.281s-4.143-21.866-12.471-30.194l-2.606-2.606c-19.347-19.774-29.981-44.416-32.116-69.7-1.366-15.802 0.598-31.818 5.851-47.022 0.513-4.057 1.581-7.901 3.075-11.36-0.043 1.366-0.085 2.648-0.171 3.801z" />
<glyph unicode="&#xe90c;" glyph-name="stop" horiz-adv-x="1134" d="M127.348 857.994h879.016c40.378 0 74.546-34.166 74.546-74.546v-879.016c0-40.378-34.166-74.546-74.546-74.546h-879.016c-40.378 0-74.546 34.166-74.546 74.546v882.122c3.106 40.378 34.166 71.44 74.546 71.44z" />
<glyph unicode="&#xe90d;" glyph-name="copy1" horiz-adv-x="1162" d="M641.735 448.153v-472.864h-486.879v472.864h486.879zM705.794 510.372h-615.001v-597.3h615.001v597.3zM1070.949 118.393h-301.096v62.224h237.032v535.080h-550.937v-125.683h-64.065v187.901h679.066v-659.523z" />
<glyph unicode="&#xe90e;" glyph-name="caution" horiz-adv-x="1134" d="M565.304-163.901c-83.864 0-167.728 0-251.591 0-46.59 0-96.288 0-142.879 0-34.166 0-68.334 9.318-99.394 27.954-49.697 31.060-68.334 80.758-59.016 136.666 3.106 31.060 15.53 62.122 31.060 90.076 62.122 108.712 124.242 217.424 186.364 323.030 65.228 111.818 127.348 226.742 192.576 338.561 21.742 37.272 46.59 65.228 83.864 83.864 52.804 27.954 102.5 21.742 145.985-12.424 24.848-18.636 46.59-46.59 62.122-74.546 74.546-130.454 149.091-260.91 223.636-394.47 49.697-86.97 99.394-173.94 149.091-264.016 15.53-27.954 27.954-59.016 31.060-93.182 6.212-62.122-24.848-118.030-80.758-142.879-31.060-12.424-62.122-18.636-93.182-18.636-71.44 0-142.879 0-211.212 0-55.91 0-111.818 0-167.728 0zM500.076 475.948c0 0 0 0 0 0 6.212-77.652 12.424-155.304 18.636-232.954 3.106-31.060 24.848-52.804 55.91-55.91 31.060 0 52.804 21.742 55.91 55.91 3.106 31.060 3.106 59.016 6.212 90.076 3.106 55.91 6.212 111.818 9.318 164.622 3.106 37.272-21.742 68.334-62.122 74.546-34.166 6.212-71.44-15.53-80.758-49.697-3.106-15.53-3.106-31.060-3.106-46.59zM571.516-2.385c40.378 0 71.44 31.060 71.44 71.44 0 37.272-31.060 71.44-68.334 71.44-40.378 0-71.44-31.060-71.44-71.44-3.106-40.378 27.954-71.44 68.334-71.44z" />
<glyph unicode="&#xe90f;" glyph-name="slide" horiz-adv-x="1473" d="M372.728-30.34c-12.424 0-27.954 6.212-37.272 15.53l-316.818 316.818c-9.318 9.318-15.53 24.848-15.53 37.272s6.212 27.954 15.53 37.272l316.818 319.924c21.742 21.742 55.91 21.742 74.546 0s21.742-55.91 0-74.546l-279.546-279.546 279.546-279.546c21.742-21.742 21.742-55.91 0-74.546-9.318-12.424-21.742-18.636-37.272-18.636zM1230.001-5.491l326.136 304.394c9.318 9.318 15.53 21.742 15.53 37.272s-6.212 27.954-15.53 37.272l-301.288 329.243c-21.742 21.742-52.804 21.742-74.546 3.106-21.742-21.742-21.742-52.804-3.106-74.546l270.228-288.864-288.864-270.228c-21.742-21.742-21.742-52.804-3.106-74.546 9.318-12.424 24.848-15.53 40.378-15.53 9.318 0 21.742 3.106 34.166 12.424zM1043.637 370.342c0 136.666-111.818 248.485-248.485 248.485s-248.485-111.818-248.485-248.485 111.818-248.485 248.485-248.485 248.485 108.712 248.485 248.485zM938.031 370.342c0-77.652-62.122-142.879-142.879-142.879-77.652 0-142.879 62.122-142.879 142.879s62.122 142.879 142.879 142.879c77.652-3.106 142.879-65.228 142.879-142.879z" />
<glyph unicode="&#xe910;" glyph-name="mask" horiz-adv-x="1449" d="M1296.905 839.358c-121.136 0-223.636-77.652-260.91-183.258-3.106 0-6.212 0-9.318 0-27.954-3.106-55.91-15.53-74.546-40.378-9.318-9.318-18.636-21.742-27.954-37.272-6.212-9.318-9.318-18.636-15.53-27.954-3.106-3.106-3.106-6.212-6.212-9.318-6.212 3.106-9.318 3.106-15.53 6.212-12.424 3.106-27.954 9.318-40.378 12.424-18.636 6.212-37.272 12.424-52.804 18.636-34.166 12.424-68.334 24.848-102.5 37.272-77.652 24.848-155.304 24.848-236.061 0-40.378-12.424-77.652-27.954-114.924-40.378-15.53-6.212-34.166-12.424-49.697-18.636-9.318 0-18.636-3.106-27.954-9.318l-12.424-3.106c0 3.106 0 3.106 0 3.106-3.106 6.212-6.212 12.424-9.318 15.53-3.106 6.212-6.212 12.424-9.318 15.53-9.318 15.53-18.636 31.060-31.060 43.484-24.848 27.954-55.91 40.378-86.97 34.166-34.166-3.106-65.228-21.742-83.864-52.804-18.636-34.166-27.954-71.44-24.848-114.924s18.636-86.97 27.954-114.924c27.954-80.758 71.44-155.304 108.712-217.424 15.53-24.848 34.166-55.91 43.484-90.076 3.106-9.318 6.212-15.53 9.318-24.848 3.106-6.212 6.212-12.424 6.212-18.636 12.424-34.166 34.166-62.122 68.334-80.758 102.5-62.122 205-90.076 304.394-90.076 27.954 0 52.804 3.106 80.758 6.212 80.758 12.424 152.197 37.272 214.318 74.546 27.954 18.636 59.016 37.272 74.546 71.44 6.212 12.424 9.318 24.848 15.53 37.272 3.106 9.318 9.318 21.742 12.424 31.060 3.106 6.212 3.106 9.318 6.212 15.53 3.106 9.318 6.212 18.636 12.424 27.954 9.318 15.53 18.636 31.060 27.954 46.59s18.636 27.954 24.848 43.484c24.848 43.484 52.804 93.182 71.44 142.879 49.697-40.378 111.818-68.334 180.152-68.334 155.304 0 279.546 124.242 279.546 279.546s-124.242 279.546-276.44 279.546zM122.812 289.584c0-3.106 0-9.318 3.106-12.424-6.212 9.318-12.424 21.742-15.53 31.060-24.848 52.804-46.59 99.394-55.91 152.197-9.318 46.59-3.106 86.97 15.53 121.136 12.424 21.742 31.060 31.060 52.804 31.060 3.106 0 6.212 0 9.318 0 15.53-3.106 31.060-12.424 40.378-27.954 12.424-15.53 21.742-34.166 31.060-49.697 3.106-3.106 3.106-6.212 6.212-9.318 0 0 0-3.106 0-6.212-52.804-46.59-83.864-108.712-90.076-180.152 0-15.53 0-31.060 3.106-49.697zM980.086 242.994c-18.636-74.546-43.484-145.985-74.546-211.212-9.318-21.742-21.742-37.272-43.484-52.804-59.016-37.272-127.348-65.228-208.106-77.652-18.636-3.106-37.272-6.212-52.804-6.212-6.212 0-15.53 0-21.742-3.106-124.242 9.318-220.53 40.378-301.288 99.394-9.318 6.212-18.636 18.636-24.848 27.954-46.59 105.606-74.546 192.576-86.97 276.44-12.424 71.44 12.424 133.56 71.44 189.47 6.212 6.212 15.53 12.424 24.848 15.53l24.848 9.318c52.804 18.636 108.712 40.378 161.516 59.016 46.59 15.53 86.97 24.848 127.348 24.848 6.212 0 12.424 0 21.742 0 34.166-3.106 74.546-12.424 118.030-27.954 34.166-12.424 68.334-24.848 99.394-37.272 15.53-6.212 27.954-9.318 43.484-15.53 0 0 0 0 0 0s3.106 0 3.106 0c62.122-12.424 93.182-59.016 114.924-108.712 18.636-46.59 21.742-96.288 3.106-161.516zM1035.995 289.584c3.106 40.378 0 77.652-12.424 114.924-15.53 43.484-40.378 80.758-77.652 118.030 0 0-3.106 6.212 0 6.212 12.424 27.954 24.848 49.697 43.484 68.334 9.318 9.318 21.742 15.53 31.060 18.636-3.106-15.53-6.212-34.166-6.212-49.697 0-68.334 24.848-127.348 62.122-177.046-9.318-21.742-18.636-46.59-31.060-68.334 0-15.53-6.212-24.848-9.318-31.060zM1296.905 326.857c-127.348 0-232.954 105.606-232.954 232.954s105.606 232.954 232.954 232.954 232.954-105.606 232.954-232.954-105.606-232.954-232.954-232.954zM1371.449 593.978h-43.484v43.484c0 18.636-15.53 34.166-34.166 34.166s-34.166-15.53-34.166-34.166v-43.484h-43.484c-18.636 0-34.166-15.53-34.166-34.166s15.53-34.166 34.166-34.166h43.484v-40.378c0-18.636 15.53-34.166 34.166-34.166s34.166 15.53 34.166 34.166v43.484h43.484c18.636 0 34.166 15.53 34.166 34.166 0 15.53-15.53 31.060-34.166 31.060zM380.616 370.342h6.212c12.424-3.106 27.954-6.212 40.378-6.212 37.272-6.212 74.546-9.318 105.606-12.424 12.424 0 21.742-3.106 31.060-3.106v0 0c80.758 3.106 149.091 15.53 214.318 24.848 6.212 0 9.318 3.106 15.53 9.318 3.106 6.212 3.106 9.318 3.106 15.53-3.106 12.424-12.424 18.636-27.954 18.636-12.424-3.106-21.742-3.106-34.166-6.212-18.636-3.106-37.272-6.212-52.804-9.318-52.804-6.212-105.606-15.53-161.516-6.212-24.848 3.106-49.697 6.212-74.546 12.424-18.636 3.106-37.272 6.212-55.91 9.318-15.53 3.106-27.954-3.106-27.954-15.53 0-6.212 0-12.424 3.106-15.53 3.106-12.424 9.318-15.53 15.53-15.53zM765.767 298.903c-9.318-3.106-21.742-3.106-31.060-6.212-21.742-3.106-46.59-9.318-71.44-9.318-3.106 0-6.212 0-12.424 0-34.166-3.106-68.334-6.212-102.5-6.212-37.272 3.106-77.652 9.318-114.924 15.53-15.53 3.106-31.060 6.212-46.59 6.212-15.53 3.106-27.954-6.212-27.954-18.636-3.106-12.424 6.212-21.742 21.742-24.848h6.212c12.424-3.106 27.954-6.212 40.378-6.212 37.272-6.212 74.546-9.318 105.606-12.424 12.424 0 21.742-3.106 31.060-3.106v0 0c80.758 3.106 149.091 15.53 211.212 24.848 6.212 0 12.424 3.106 15.53 9.318s3.106 12.424 3.106 15.53c-3.106 9.318-12.424 18.636-27.954 15.53zM768.873 183.978c-12.424-3.106-21.742-3.106-34.166-6.212-21.742-3.106-46.59-6.212-68.334-9.318h-6.212c-37.272-6.212-74.546-9.318-111.818-6.212-40.378 6.212-80.758 9.318-118.030 15.53-12.424 3.106-27.954 3.106-40.378 6.212-15.53 3.106-24.848-6.212-27.954-18.636 0-6.212 0-12.424 3.106-15.53 3.106-6.212 9.318-9.318 15.53-9.318h3.106c15.53-3.106 31.060-6.212 43.484-6.212 37.272-6.212 74.546-9.318 105.606-12.424 12.424 0 21.742-3.106 31.060-3.106v0 0c80.758 3.106 149.091 15.53 214.318 24.848 6.212 0 12.424 3.106 15.53 9.318s3.106 12.424 3.106 15.53c-3.106 12.424-15.53 18.636-27.954 15.53z" />
<glyph unicode="&#xe911;" glyph-name="angle_left" horiz-adv-x="1134" d="M702.365 845.57l124.242-127.348-378.94-378.94 378.94-378.94-124.242-127.348-506.288 506.288z" />
<glyph unicode="&#xe912;" glyph-name="angle_right" horiz-adv-x="1134" d="M431.743-154.583l-124.242 127.348 378.94 378.94-378.94 378.94 124.242 127.348 506.288-506.288z" />
<glyph unicode="&#xe93a;" glyph-name="play" horiz-adv-x="972" d="M871.8 413.489c47.486-28.005 47.486-97.408 0-124.195l-700.119-404.243c-47.486-28.005-108.366 7.306-108.366 62.098v809.703c0 54.792 59.662 90.102 108.366 62.098l700.119-405.46z" />
</font>
</defs>
</svg>
