<svg fill="none" height="38" viewBox="0 0 66 38" width="66" xmlns="http://www.w3.org/2000/svg" xmlns:xlink="http://www.w3.org/1999/xlink"><clipPath id="a"><path d="m0 0h66v38h-66z"/></clipPath><g clip-path="url(#a)"><path d="m5.53104 9.6726c.96342-.57178 1.95063-.96489 3.00919-1.16739 2.75947-.52414 5.30477-.01192 7.58837 1.65579.4877.3574.904.7862 1.3678 1.1793 1.7841 1.5367 3.818 1.9774 6.0779 1.3461.9991-.274 1.8555-.81 2.5929-1.5367 1.5938-1.58431 3.4849-2.5492 5.7091-2.78744 2.9973-.32163 5.614.54796 7.7906 2.64454 1.237 1.1912 2.6643 1.8821 4.377 1.9417 1.6176.0595 3.0806-.4289 4.3176-1.501.6898-.5956 1.3321-1.2388 2.1171-1.72725 1.6771-1.02445 3.4968-1.48903 5.4475-1.41755 1.5105.05956 2.9259.46457 4.2461 1.19122.0714.03574.1547.08339.226.11912.0119.01191.0357.01192.0833.02383.1665-.59561.333-1.19123.4995-1.78684.6185-2.20376 1.2251-4.41943 1.8555-6.6232.2498-.893413 1.118-1.405639 1.9506-1.1793065.904.2382445 1.4035 1.1197465 1.1537 2.0489065-.5352 1.94169-1.0942 3.88338-1.6413 5.83699-.4639 1.66771-.9159 3.34738-1.3797 5.02698-.7969 2.8827-1.6057 5.7536-2.4145 8.6363-.8921 3.2163-1.7841 6.4446-2.6881 9.6609-.5233 1.8583-1.0348 3.7047-1.57 5.563-.226.7862-.8088 1.1912-1.6414 1.1912-6.3038 0-12.6195 0-18.9234 0-7.0056 0-14.0112 0-21.0048 0-1.1062 0-2.2123 0-3.3304 0-.7731 0-1.36779-.4169-1.58188-1.1555-.47576-1.6677-.93963-3.3473-1.41539-5.015-.57091-2.0609-1.15372-4.1217-1.72463-6.1944-.65418-2.3467-1.30835-4.6815-1.95063-7.0282-.65417-2.3586-1.32023-4.7173-1.9863-7.0878-.30925-1.1078-.5947-2.21566-.90395-3.31159-.57091-2.02508-1.141825-4.03824-1.7127384-6.05141-.3330326-1.191223.4876554-2.2275866 1.6889484-2.144201.65418.0357367 1.2132.512226 1.41539 1.203131.67796 2.41819 1.33214 4.83637 2.0101 7.25455.10704.38119.22598.76238.34492 1.19122zm47.92106 25.0991c.0238-.0596.0476-.1192.0595-.1668.5828-2.0966 1.1775-4.1931 1.7603-6.3016.7255-2.5968 1.4392-5.1937 2.1647-7.7906.6423-2.299 1.2965-4.5862 1.9387-6.8852.1785-.6552.1784-.6552-.3925-1.0602-.0238-.0119-.0475-.0358-.0713-.0477-2.5454-1.6081-5.7805-1.2388-7.9215.8934-.6184.6195-1.3202 1.1436-2.0933 1.5605-1.2489.679-2.5691 1.0841-3.9964 1.1674-2.2837.143-4.3651-.4169-6.2087-1.763-.6304-.4645-1.1775-1.0482-1.796-1.5366-2.0814-1.6439-4.9955-1.8107-7.2316-.3931-.5709.3573-1.0466.8457-1.5581 1.2865-1.677 1.4652-3.6277 2.299-5.8518 2.4062-2.6643.1311-4.9955-.679-6.9699-2.4777-.7494-.679-1.4987-1.3461-2.4621-1.7034-2.1885-.8101-4.23429-.5242-6.14923.81-.1903.131-.22599.2501-.15462.4765.13083.405.23788.81.34493 1.215.77311 2.7756 1.53433 5.5392 2.30744 8.3148.95148 3.4069 1.91498 6.8257 2.86648 10.2326.1665.5837.3211 1.1674.4876 1.7511 13.6663.0119 27.2968.0119 40.9274.0119z" fill="#000"/></g></svg>