<svg fill="none" height="69" viewBox="0 0 66 69" width="66" xmlns="http://www.w3.org/2000/svg" xmlns:xlink="http://www.w3.org/1999/xlink"><clipPath id="a"><path d="m0 31h66v38h-66z"/></clipPath><g clip-path="url(#a)"><path d="m5.53104 40.6726c.96342-.5718 1.95063-.9649 3.00919-1.1674 2.75947-.5241 5.30477-.0119 7.58837 1.6558.4877.3574.904.7862 1.3678 1.1793 1.7841 1.5367 3.818 1.9774 6.0779 1.3461.9991-.274 1.8555-.81 2.5929-1.5367 1.5938-1.5843 3.4849-2.5492 5.7091-2.7874 2.9973-.3217 5.614.5479 7.7906 2.6445 1.237 1.1912 2.6643 1.8821 4.377 1.9417 1.6176.0595 3.0806-.4289 4.3176-1.501.6898-.5956 1.3321-1.2388 2.1171-1.7272 1.6771-1.0245 3.4968-1.4891 5.4475-1.4176 1.5105.0596 2.9259.4646 4.2461 1.1912.0714.0358.1547.0834.226.1191.0119.012.0357.012.0833.0239.1665-.5956.333-1.1913.4995-1.7869.6185-2.2037 1.2251-4.4194 1.8555-6.6232.2498-.8934 1.118-1.4056 1.9506-1.1793.904.2383 1.4035 1.1198 1.1537 2.0489-.5352 1.9417-1.0942 3.8834-1.6413 5.837-.4639 1.6677-.9159 3.3474-1.3797 5.027-.7969 2.8827-1.6057 5.7536-2.4145 8.6363-.8921 3.2163-1.7841 6.4446-2.6881 9.6609-.5233 1.8583-1.0348 3.7047-1.57 5.563-.226.7862-.8088 1.1912-1.6414 1.1912-6.3038 0-12.6195 0-18.9234 0-7.0056 0-14.0112 0-21.0048 0-1.1062 0-2.2123 0-3.3304 0-.7731 0-1.36779-.4169-1.58188-1.1555-.47576-1.6677-.93963-3.3473-1.41539-5.015-.57091-2.0609-1.15372-4.1217-1.72463-6.1944-.65418-2.3467-1.30835-4.6815-1.95063-7.0282-.65417-2.3586-1.32023-4.7173-1.9863-7.0878-.30925-1.1078-.5947-2.2157-.90395-3.3116-.57091-2.0251-1.141825-4.0382-1.7127384-6.0514-.3330326-1.1912.4876554-2.2276 1.6889484-2.1442.65418.0357 1.2132.5122 1.41539 1.2031.67796 2.4182 1.33214 4.8364 2.0101 7.2546.10704.3812.22598.7624.34492 1.1912zm47.92106 25.0991c.0238-.0596.0476-.1192.0595-.1668.5828-2.0966 1.1775-4.1931 1.7603-6.3016.7255-2.5968 1.4392-5.1937 2.1647-7.7906.6423-2.299 1.2965-4.5862 1.9387-6.8852.1785-.6552.1784-.6552-.3925-1.0602-.0238-.0119-.0475-.0358-.0713-.0477-2.5454-1.6081-5.7805-1.2388-7.9215.8934-.6184.6195-1.3202 1.1436-2.0933 1.5605-1.2489.679-2.5691 1.0841-3.9964 1.1674-2.2837.143-4.3651-.4169-6.2087-1.763-.6304-.4645-1.1775-1.0482-1.796-1.5366-2.0814-1.6439-4.9955-1.8107-7.2316-.3931-.5709.3573-1.0466.8457-1.5581 1.2865-1.677 1.4652-3.6277 2.299-5.8518 2.4062-2.6643.1311-4.9955-.679-6.9699-2.4777-.7494-.679-1.4987-1.3461-2.4621-1.7034-2.1885-.8101-4.23429-.5242-6.14923.81-.1903.131-.22599.2501-.15462.4765.13083.405.23788.81.34493 1.215.77311 2.7756 1.53433 5.5392 2.30744 8.3148.95148 3.4069 1.91498 6.8257 2.86648 10.2326.1665.5837.3211 1.1674.4876 1.7511 13.6663.0119 27.2968.0119 40.9274.0119z" fill="#000"/></g><circle cx="31.5" cy="16.5" fill="#0360fd" r="16.5"/><path d="m27.3219 17.835c0-1.875-1.26-3.09-2.805-3.09-.33 0-.66.045-.945.165l2.295-4.59h-1.635l-2.43 4.95c-.465.93-.795 1.755-.795 2.625 0 1.98 1.32 3.195 3.165 3.195s3.15-1.29 3.15-3.255zm-1.53.03c0 1.14-.675 1.86-1.635 1.86s-1.62-.72-1.62-1.86c0-1.155.66-1.845 1.62-1.845 1.02 0 1.635.795 1.635 1.845zm10.353.165v-4.74c0-1.905-1.38-3.06-3.09-3.06-1.695 0-3.075 1.155-3.075 3.06v4.74c0 1.905 1.38 3.06 3.075 3.06 1.71 0 3.09-1.155 3.09-3.06zm-1.53-.045c0 1.02-.585 1.74-1.56 1.74-.96 0-1.545-.72-1.545-1.74v-4.65c0-1.02.585-1.74 1.545-1.74.975 0 1.56.72 1.56 1.74zm9.3181-4.635c0-1.02-.135-1.77-.72-2.37-.39-.405-.99-.72-1.815-.72s-1.41.315-1.8.72c-.585.6-.72 1.35-.72 2.37 0 1.035.135 1.785.72 2.385.39.405.975.72 1.8.72s1.425-.315 1.815-.72c.585-.6.72-1.35.72-2.385zm-1.26 0c0 .645-.015 1.275-.39 1.65-.225.225-.525.345-.885.345s-.645-.12-.87-.345c-.375-.375-.405-1.005-.405-1.65s.03-1.26.405-1.635c.225-.225.51-.345.87-.345s.66.12.885.345c.375.375.39.99.39 1.635z" fill="#fff"/></svg>