<svg fill="none" height="39" viewBox="0 0 62 39" width="62" xmlns="http://www.w3.org/2000/svg" xmlns:xlink="http://www.w3.org/1999/xlink"><clipPath id="a"><path d="m0 0h38.7451v26.5681h-38.7451z" transform="matrix(.936672 -.350207 -.350207 -.936672 9.55176 38.8171)"/></clipPath><clipPath id="b"><path d="m44 21h11v11h-11z"/></clipPath><g clip-path="url(#a)" fill="#083583" fill-opacity=".3"><path d="m8.28386 13.4908c-3.31593.6506-5.35565 3.3885-5.40795 6.2324-.05343 2.9829 2.10754 5.7789 5.35374 6.3153.02047.3388.02539.6835.07692 1.0108.23569 1.2461 1.17313 2.1431 2.43153 2.383 2.1068.4252 4.2401.6846 6.3901.799 2.208.1275 4.4216.2702 6.6447.2014 3.7665-.1087 7.5155-.4535 11.2369-1.2038 1.119-.2277 1.9886-.7434 2.5081-1.7694.2323-.468.3274-.9714.2967-1.4797-.0118-.2209.0489-.2955.2777-.3465 2.9329-.6807 4.948-3.0108 5.1386-5.9584.1834-3.0141-1.9238-5.761-4.9794-6.4032-.3266-.0685-.4089-.1937-.4024-.508.0182-1.5143-.975-2.7024-2.4865-3.0036-2.3387-.4771-4.7122-.71592-7.0983-.8461-1.9719-.11177-3.9521-.1511-5.9422-.16943-.9795-.01497-1.9602.1091-2.9423.18176-1.5093.1311-3.0143.226-4.5164.42372-1.3876.17226-2.7623.42635-4.1256.71085-1.44676.2983-2.41528 1.5441-2.43499 3.0069-.01667.1449-.00227.2781-.01895.423zm27.44284 5.9576c.0065.3961-.0083.7828-.0019 1.1789-.0091 1.8228-.0182 3.6455-.0117 5.4624-.0046.5562-.2823.9026-.8333 1.0393-.2444.0567-.4888.1134-.7332.1702-3.4148.6703-6.8558.9865-10.3142 1.0666-2.2598.0653-4.5159-.0962-6.7705-.2062-1.9352-.1082-3.8635-.3402-5.7596-.7229-.69-.1405-.9507-.4589-.9507-1.1693.0099-4.2835.0197-8.5669.0353-12.8352-.0031-.1028.0094-.2114.0007-.3295.0046-.5561.2823-.9026.8276-1.0544.13-.0313.2755-.0684.4054-.0997 3.5179-.7261 7.0748-1.0164 10.6363-1.1524 3.0541-.1196 6.0976.1113 9.1286.4509 1.1818.1299 2.3398.3381 3.5076.5252.5627.0842.856.4424.8556.9623-.0068 2.2551-.025 4.4797-.022 6.7138zm2.1099 4.08c.003-2.7388.0117-5.4624.0147-8.2012 1.5369.2744 3.2686 1.8275 3.2716 4.0616-.0068 2.255-1.7718 3.8333-3.2863 4.1396zm-29.57245-7.8644c-.00303 2.7388-.01175 5.4624-.01479 8.2012-1.41526-.2332-3.23294-1.6848-3.26438-3.9949-.03145-2.3101 1.7491-3.8941 3.27917-4.2063z"/><path d="m23.0875 17.5727c2.9991-.0297 6.0138-.0653 9.013-.095.6021.0001.9802-.3145 1.0018-.8251.0175-.4743-.3027-.8571-.7961-.8979-.0947-.0166-.1993-.0121-.3039-.0077-5.9771.0689-11.9541.1378-17.9312.2066-.2304-.0005-.465.0352-.6555.1412-.346.164-.5021.5515-.4123.9338.0841.3671.4013.647.8097.6502.6078.0154 1.2198-.0055 1.8219-.0054 1.8529-.017 3.7001-.0492 5.5531-.0662.643-.0325 1.2606-.0382 1.8995-.0345z"/><path d="m23.0056 21.7101c-2.9468.0275-5.8725.0645-8.8193.092-.1414.0008-.2827.0017-.4184.0178-.4748.0562-.7991.42-.7855.8828.008.4475.3479.7882.8045.8254.089.0014.1781.0028.2671.0041 5.9771-.0688 11.9542-.1377 17.9313-.2066.1568-.0066.3194.0019.4804-.041.421-.1054.6662-.4916.6271-.9275-.0375-.3845-.3505-.7007-.7548-.7401-.1315-.0202-.2516-.0099-.3929-.009-2.9836.0239-5.9616.063-8.9395.1021z"/></g><circle cx="49.5" cy="26.5" fill="#0360fd" r="11.5" stroke="#fff" stroke-width="2"/><g clip-path="url(#b)" fill="#fff"><path d="m55.0005 23.0005c-.1809.2359-.3471.4817-.5427.7029-.2395.2752-.5084.5308-.7431.7766-.748-.757-1.4764-1.4992-2.244-2.2757.3471-.3244.7138-.7275 1.1391-1.0568.3227-.2457.8018-.172 1.1049.1081.3764.349.7333.7176 1.0853 1.0912.0929.0934.132.2359.2005.3539z"/><path d="m44 31.6511c.1467-.6341.2933-1.2681.44-1.9022.044-.1818.0831-.3637.1222-.5259.7285.7275 1.4471 1.4549 2.1805 2.1872-.2885.0738-.6014.1524-.9191.2311-.4645.113-.9338.2211-1.3983.3391-.176.0442-.3177.0246-.4253-.1327 0-.0639 0-.1278 0-.1966z"/><path d="m53.0106 25.1091c-1.8577 1.8677-3.7302 3.7551-5.588 5.6278-.7235-.7275-1.4617-1.4647-2.1902-2.1971 1.8627-1.8677 3.74-3.7502 5.6027-5.613.7089.7077 1.4422 1.445 2.1755 2.1823z"/></g></svg>