<svg fill="none" height="16" viewBox="0 0 20 16" width="20" xmlns="http://www.w3.org/2000/svg" xmlns:xlink="http://www.w3.org/1999/xlink"><clipPath id="a"><path d="m0 0h19.6364v16h-19.6364z"/></clipPath><g clip-path="url(#a)"><path d="m0 15.0158c.488619-.8655.91616-1.7707 1.47349-2.5807 1.6949-2.47739 3.94712-4.31957 6.41312-5.90766 1.80942-1.17519 3.71809-2.1598 5.71839-2.96179.0916-.0397.1832-.08734.2901-.13498-.9772-.2938-4.83275.57965-6.88647 1.52456-2.19115 1.01638-4.07692 2.4536-5.71074 4.42283-.24431-2.76327.38937-5.07394 2.40492-6.86054 1.48113-1.31018 3.25237-1.945413 5.13814-2.23921 3.29055-.516129 6.54295-.3096774 9.74945.611414.3436.095286.6566.285856 1.0536.460546-.1527.12705-.2061.18263-.2748.21439-1.6873.94492-2.8554 2.39802-3.7258 4.12903-.5039 1.00844-.9619 2.0407-1.4582 3.04913-.4886 1.00844-1.0688 1.96128-1.901 2.70768-1.3514 1.207-2.95464 1.5166-4.67244 1.3817-1.17573-.0953-2.30567-.3732-3.41269-.7941-.25195-.0953-.39701-.0556-.53443.1668-.65658 1.064-1.3437 2.1201-1.96211 3.2-.3741.6511-.832178.7861-1.397143.2779-.11452-.1033-.198502-.2382-.29775233-.3573-.00763467-.0953-.00763467-.2065-.00763467-.3097z" fill="#fff"/></g></svg>