<svg enable-background="new 0 0 300.4 353" viewBox="0 0 300.4 353" xmlns="http://www.w3.org/2000/svg"><g fill="#13236b"><path d="m156 35.1c-.5-.3-.9-.5-1.3-.8v-.1.1c.4.2.8.4 1.3.8z"/><path d="m255.5 146.9c-1.9-2.1-4.4-3.5-6.9-4.5-5.6-2.5-11.7-3.9-17.8-4.4-5.4-.4-10.7-.3-16.1.5-2.1.4-4.3.9-6.5 1.3 0-13.4 0-27 0-40.5-9.9 0-19.8 0-29.6 0 2.1-.6 4.3-1.3 6.4-1.9 2-.6 2.6-2.3 1.3-4-.5-.6-.3-1.4.4-1.8.8-.4 1.5-.8 2.3-1-.3-.4-.5-.8-.8-1-.3-.4-.5-.6-.9-1.1.6-.3 1.1-.4 1.6-.5 1.1-.1 1.9-.6 2-1.8 0-.4 0-.6 0-1 3-.6 5-2.5 6.8-4.9.3-.3.6-.5 1-.5 1.5-.1 2.9-1.5 3-2.9.3-2 1.8-3.6 3.6-3.9.9-.1 1.9-.1 2.9-.1 0-.3 0-.5 0-.8-.1-.6-.3-1.3-.4-1.6.5-.5 1.1-.9 1.4-1.4s0-1.3 0-1.9c2-.8 2.4-1.9 1.1-3.8.9-.1 1.6-.6 1.9-1.5.3-1.1-.3-1.9-1.3-2.4 1.3-.6 1.6-1.4 1.5-2.3s-.8-1.5-2-1.8c.9-.6 1.4-1.5 1-2.5s-1.3-1.4-2.5-1.3c.8-.9 1-1.8.4-2.6s-1.5-1-2.5-.9c.4-.9.4-1.6-.1-2.3-.6-.9-1.5-.9-2.5-.5.1-1-.1-1.9-1-2.4s-1.8-.1-2.5.5c.1-1.1 0-1.9-.9-2.5-1-.6-1.9-.3-2.6.5 0-1-.5-1.8-1.4-2.1-.8-.3-1.4 0-2 .5-.8.8-.8 1.6-.3 2.6-.5-.1-1-.3-1.4-.3 1.1-1.4 1.1-2.6 0-3.3-.4-.3-1-.5-1.4-.4-.6.1-1.1.6-1.8 1-.3-.6-.9-1.3-1.9-1.3s-1.5.5-1.9 1.4c-1.3-1.6-2.5-1.6-3.9 0-.6-1.1-1.6-1.5-2.9-1 .1-1 0-1.8-.9-2.3s-1.6-.3-2.5.3c.1-1-.1-1.8-1-2.3-1-.5-1.9-.1-2.6.6-.1-1-.6-1.8-1.6-2s-1.8.3-2.4 1.1c-.3-1-.8-1.8-1.8-1.9s-1.6.4-2.1 1.3c-.5-.9-1.3-1.4-2.3-1.1-1 .1-1.5 1-1.8 2-.5-1-1.3-1.4-2.3-1.3-1.1.1-1.5 1-1.6 2-.5-.3-.9-.5-1.3-.8v-.1c2-3.5 1.4-6.4-2.1-8.7-.1-.1-.3-.4-.4-.5 0-.8 0-1.4 0-2.3h2.6c0-1.5 0-2.8 0-4.3-.9 0-1.8 0-2.6 0 0-.9 0-1.8 0-2.6-1.4 0-2.8 0-4.1 0v3.4c-1 0-1.9 0-2.6 0v4.1h2.6v1.5c.1.8-.1 1.1-.8 1.5-1.9 1.1-3 2.8-2.9 5 .1 1.3.5 2.4.9 3.6-.3.1-.8.4-1.1.6-.1-1-.5-1.6-1.4-1.9-1.1-.3-1.9.1-2.5 1.3-.3-1-.6-1.8-1.6-2-1-.3-1.8.4-2.3 1.1-1-1.8-3.1-1.9-4 .5-.5-.8-1.3-1.3-2.3-1s-1.5 1-1.6 2c-.8-.8-1.5-1.1-2.5-.8-1 .4-1.3 1.3-1.1 2.3-2-1-3.3-.3-3.4 2-1.3-.4-2.1 0-2.8 1-1.4-1.6-2.4-1.6-3.9-.1-1.3-1.8-2.6-1.8-3.9.1-1-1.3-2-1.5-3-.9-1 .8-1 1.9 0 3.4-.3 0-.5.1-.6.1-.3 0-.4.1-.6.1.6-1.5.3-2.8-1-3.1s-2.3.4-2.6 2c-.8-.6-1.5-1-2.5-.5s-1.1 1.4-1 2.4c-2.1-1.3-3.3-.6-3.6 2-.9-.4-1.6-.3-2.4.4-.6.8-.6 1.5-.4 2.4-1-.3-1.9-.1-2.4.8-.6.9-.4 1.8.4 2.8-1.1-.1-1.9.1-2.4 1.1-.5 1.1 0 2 .9 2.8-1.1.1-1.8.6-2 1.5-.3 1.1.4 1.9 1.5 2.4-1 .5-1.5 1.3-1.4 2.3s.9 1.5 1.9 1.6c-1.4 1.6-1 3 1.1 3.8-.5 1.8-.1 2.5 1.6 3.1-.1.9-.3 1.8-.4 2.5 1.4.2 2.6.2 3.6.3 1.6.3 3.3 2.1 3.4 3.8.1 1.5 1.5 2.9 3 3 .4 0 .8.3 1 .5 1.5 1.9 3.1 3.6 5.5 4.5.4.1.8.3 1.1.4-.3 1.9.4 2.5 2.3 2.6.4 0 .9.4 1.3.6-.5.8-1 1.5-1.5 2.1.9.4 1.5.8 2.3 1 .9.4 1 1 .4 1.9-1.1 1.4-.6 3.3 1.1 3.8.8.3 1.6.5 2.5.8 1.4.4 2.9.8 4.3 1.1v.1c-9.7 0-19.4 0-29.1 0v40.6c-.3 0-.4 0-.5 0-3-.5-6.1-1.3-9.2-1.6-7.1-.8-14.3-.5-21.3 1-4.5 1-8.9 2.4-13 4.9-1.5.9-2.9 1.9-3.9 3.3-.6 1-.9 2-.4 3.1 1 2.3 1.9 4.5 2.9 6.8.1.3.3.4.4.8.8-1.6 1.9-2.6 3.3-3.5s2.6-1.6 4.1-2.3c7.4-3.1 15.2-4.6 23.2-4.1 4.4.3 8.7.9 12.8 2 1.6.5 1.6.5 1.6 2.1v14.9 38.7c0 2 .1 4 .5 5.9 1.8 9.5 6.8 16.9 15.4 21.3 16.3 8.4 33.6 11.8 51.9 9.8 10.9-1.1 21.3-4.3 31.1-9.3 11.2-5.6 16.7-14.9 16.8-27.3.1-18.1 0-36.1 0-54.3 0-.3 0-.4 0-.6-.1-.8.3-1.1.9-1.3 6.4-1.8 12.9-2.6 19.6-2.3 5.6.4 11 1.5 16.2 3.8 3.1 1.4 6.3 2.8 8.2 6.1 1-2.5 1.9-4.9 3-7.3.6-1.2.4-2.4-.7-3.6zm-197.2-1.1c-.4.3-.8.5-1.1.8-.4.3-.8.4-1.3.6.4 1 .8 2 1.1 3.1-.6.3-1.3.5-1.9.8-.9-2.4-1.9-4.8-2.8-7.3 1.5-.5 2.9-1 4.3-1.4 1.1-.3 1.9.1 2.3.9s.2 1.8-.6 2.5zm4.3 2.8c-.5-2.5-1-5-1.6-7.5.8-.1 1.4-.3 2-.5.5 2.3 1 4.4 1.4 6.6 1-.3 1.9-.5 2.9-.8.1.4.1.6.3 1-1.6.4-3.2.8-5 1.2zm10.5-1.9c-.1.5-1.3.5-1.5.1-1.3-2.4-2.5-4.6-3.9-7 0 0 0-.1 0-.3.6 0 1.3-.1 1.9-.1.3 0 .5.3.6.5.8 1.5 1.6 3 2.5 4.8.6-1.8 1.3-3.3 1.8-4.8.4-1 .4-1 1.5-1-.9 2.8-1.9 5.3-2.9 7.8zm7.8-4.7c.6.4 1.1.6 1.8 1 .9.5 1.3 1.3 1.1 2.3-.1 1-.9 1.5-1.8 1.8-1.4.5-2.8.3-4.1-.5.3-.5.4-1 .6-1.6.3.3.3.4.4.6.5.8 1.5 1.3 2.4.9.4-.1.6-.5.8-.8 0-.3-.1-.8-.4-1-.5-.4-1-.6-1.6-1-1.3-.8-1.8-1.6-1.4-2.8.3-1 1.3-1.6 2.5-1.8 1 0 1.9.1 2.8.8-.3.4-.4.8-.5 1-.6-.4-1.3-.8-1.9-1-.5-.1-1.1 0-1.4.6-.2.9.2 1.3.7 1.5zm125.3-40.6v64.5c-12 0-24.1 0-36.1 0-.3-1.6-.4-3.4-.8-5-1.4-6.1-4.5-11.2-10-14.5-2.1-1.4-4.5-2.1-7.1-2.4-.3 0-.5-.1-.8-.1 0-14 0-28.2 0-42.3 18.4-.2 36.5-.2 54.8-.2zm-16.3 77.3c.5 0 .8-.1 1-.6.4-1.4.4-1.4 1.8-1.4h2c0 .1 0 .1.1.3-.5.6-1 1.1-1.4 1.8-1.4 1.6-2.8 3.3-4 4.9-.5.5-.9.6-1.4.3-.3-.1-.6-.3-1.1-.5-.6.6-1.1 1.4-1.8 2.1-.6.8-1.1 1.4-1.8 2 .4.6 1 1.4.9 1.9-.1.6-.8 1.1-1.3 1.6-.5.6-1.1 1.3-1.5 1.9-.5.6-.9.9-1.6.4 0-1.8 0-3.6 0-5.4 0-.3.4-.5.6-.6 1.3-.4 1.3-.4 1.3-1.8s0-2.8 0-4.1c-.3-.1-.4-.1-.5-.3-1.4-.4-1.9-1-1.3-2.4.4-.9 1.3-1.8 2.1-2.1.6-.4 1.6-.1 2.4 0 .3 0 .5.5.5.8.1 1 .6 1.3 1.6 1.3 1-.3 2.1-.1 3.4-.1zm-3.5-2.2c0-.5 0-1.1 0-1.6h2.9v1.6c-1 0-1.9 0-2.9 0zm11.1 22.5c-.6 0-1.3-.6-1.3-1.3 0-.6.5-1.3 1.3-1.3.6 0 1.3.5 1.3 1.3s-.6 1.3-1.3 1.3zm.8 6.6v2.9c-.6 0-1.1 0-1.8 0 0-.9 0-1.6 0-2.5 0-.1.3-.4.4-.4.5-.1.9 0 1.4 0zm-1.9-2.2c0 .1-.5.4-.8.5-.9.1-1.3.5-1.1 1.4 0 1.3-.1 2.5-.3 3.8 0 .5 0 .6.5.8s1 .4 1.5.5c-.3 1-.5 1.9-.9 2.8-.3.6-1.6.9-2 .4-1.1-1.3-2.3-2.6-3.4-4 .4-.6.8-1.1 1.1-1.8-1.1-1.4-2.4-2.8-3.5-4-.1 0-.1 0-.1 0-1.8.8-1.8.8-3-.8-.5-.5-.9-1.1-1.4-1.6s-.6-1-.3-1.8c.4-.6.8-.8 1.3-.8.8 0 .6.5.8.9.1.8.5 1.1 1.4 1 1.3-.1 2.4 0 3.6 0 .6 0 .9-.1 1-.8.1-1 .6-1.4 1.6-1.3h.6c.9-.1 1.6-.1 2.1.9 0 .1.3.3.4.4 1.5 1 .8 2.3.9 3.5zm-.5 13.4c0 .6-.5 1.3-1.3 1.3-.6 0-1.3-.5-1.3-1.3 0-.6.5-1.3 1.3-1.3s1.3.7 1.3 1.3zm-7.4 2.7c-.5 0-1 .6-1.6.9-1 .5-2 1-3.1 1.5.1.6.3 1.3.4 2-.8.3-1.4.4-2.1.5h-.1c-.1 0-.4-.1-.4-.1-.3-1-1.8-.9-1.8-2 0-1.8 0-3.5 0-5.3 0-.6.3-.8.8-.9 1.5-.5 1.3 0 1.3-1.8 0-1.1 0-2.3 0-3.3 0-.6-.3-.9-.8-1-.4-.1-.8-.3-1.3-.4 0-2.5 0-5 0-7.5.8-.6 1.3-.4 1.8.4.6.9 1.4 1.8 2.1 2.6.4.5.4.8 0 1.3-.3.4-.5.8-.8 1.1 1 1.3 2 2.4 3 3.5.4.5.8.6 1.3.3.8-.6 1.4-.4 1.9.4.8 1 1.6 1.9 2.4 3 .1.3.1.6.3 1 0 .9.1 1.6.1 2.5 0 .3 0 .6-.1.9-.4.6-1 1.3-1.4 1.9-.1-.1-.3-.3-.3-.4-.6-.4-1.1-1.1-1.6-1.1zm.9 4.1c-.9.5-1.8.9-2.6 1.4-.3-.5-.6-1-.9-1.5.9-.5 1.6-1 2.5-1.5.4.6.6 1.1 1 1.6zm-21-4.2c-.4.4-.9.8-1.5 1.4-.6-.6-1.1-1.3-1.8-1.9-.1-.1-.1-.4 0-.6.4-.9.5-1.8.1-2.8-.1-.3 0-.6.1-.9 1-1.1 2-2.3 2.9-3.5.4-.5.8-.4 1.1-.1.9.5 1.4.5 2-.4s1.4-1.8 2.1-2.5c.5-.5.5-.9.1-1.4-.3-.3-.4-.6-.6-1 1.1-1.3 2.1-2.5 3.3-3.8.1-.1.5-.1.8 0s.6.4.6.6v7.1c-.6.3-1.4.4-2 .6v5c0 .1.3.4.4.5s.4.1.6.3c.8.1 1 .5 1 1.4-.1 1.6 0 3.3 0 4.9 0 .3-.3.6-.5.9-.1.3-.5.3-.6.5-.5 1-1.3.9-2.1.6-.5-.1-.9-.3-1.4-.4.1-.8.3-1.4.4-1.9-1.7-.8-3.3-1.7-5-2.6zm2.8 4c-.3.5-.5 1-.9 1.5-.9-.5-1.6-.9-2.6-1.4.4-.6.6-1.1.9-1.6.8.7 1.7 1 2.6 1.5zm-8.3-9.6c-.9 0-1.3-.5-1.4-1.3s-.4-1.4-.6-2.1c.1-.1.4-.3.5-.3 1.5-.6 1.5-.6 1.4-2.1-.1-1.3-.1-2.5-.3-3.8-.1 0-.3-.1-.4-.1-.5-.1-1.4-.3-1.5-.5-.3-.9-.1-1.8-.1-2.6 0-.1.3-.3.4-.4.4-.3.9-.5 1-.9.4-.8.9-.9 1.6-.8h.8c1.5 0 1.5 0 2.1 1.4.1.3.5.5.6.5h4c.8 0 1-.1 1.1-.9s.4-1.4 1.3-1.1c.3.1.6.3.8.4.1.5.8.9.1 1.6-1.1 1.1-2.1 2.4-3.1 3.6-.6-.3-1.3-.5-1.9-.9-1.1 1.4-2.4 2.8-3.5 4v.3c1 1.6 1 1.6-.3 3.1-.6.8-1.3 1.5-1.9 2.3.1.5-.2.6-.7.6zm.8 3c0 .6-.6 1.3-1.3 1.3-.6 0-1.3-.6-1.3-1.3s.6-1.3 1.3-1.3c.6 0 1.3.7 1.3 1.3zm-4-17.8c-.6 0-1.3-.5-1.3-1.3s.5-1.3 1.1-1.3 1.3.5 1.3 1.3-.5 1.3-1.1 1.3zm.8 6.6v2.9c-.5 0-1 0-1.6 0 0-1 0-1.9 0-2.9zm-4.3 24.9c-.4 1.9-2.3 3.3-4.5 3.4.4-.5.6-1.1.9-1.6.1-.3.3-.5.3-.9 0-.1.1-.4.1-.5.4-1.9 0-3.6-1.5-5.5-.1-.3-.4-.4-.5-.6-2.5 2.3-2.8 4.9-.9 9-2.5-.1-4.5-2-4.5-4.1 0-2.5 1.1-3.9 3.6-4.1 0-.3 0-.5-.1-.8.3.1.5.3.6.4.4-.6.6-1.1 1-1.6h.4c.1.6.1 1.3.3 1.8.4-.3.8-.6 1.3-1v.9c2.9 1.5 4 3 3.5 5.2zm-1.8-6.9c.4.5.6.9 1 1.4-1.1-.3-1.3-.6-1-1.4zm-3-1.4c-.1-.1-.6-.3-.9-.1-1.5.8-1.5.9-3.5.8.6-1.3 1.3-2.5 1.9-3.6.5-1.3 1-2.5 1.5-3.9 1 2.4 2.1 4.8 3.1 7.1-.6.4-1.4.6-2.1-.3zm-2-14.4c-.1 5.3-1.6 10-4.5 14.4 0 .1-.1.3-.3.3 0 0-.1 0-.3.1 0-11.3 0-22.6 0-33.9 1.5.3 3 .6 4.5.9.1 0 .4.4.4.6v3.5c.2 4.7.3 9.4.2 14.1zm-10.7-25.9c-4.3-5.1-5.9-11-5.3-17.6.5-5 2.3-9.4 5.6-13.2 6.8-7.4 17.6-6.9 23.8 1 3.4 4.3 4.9 9.2 5 14.9-.1 6-2 11.8-6.9 16.2-6.5 6.4-16.3 5.7-22.2-1.3zm-1 46.9c0 .3-.1.6-.3.8-1.8 1.3-3.5 2.1-5.6 2.9 0-19.8 0-39.5 0-59.2h.1c.1.3.3.5.3.8 1 3.5 2.6 6.6 5.1 9.4.3.3.4.9.4 1.3v40.1zm-16.4-133.3c0-.1 0-.3 0-.5 19.3-3.9 38.6-3.9 57.9 0v.5c-19.3 4-38.6 4-57.9 0zm47.6 95.8c.1.1.6.1.9 0 1.3-.5 1.3-.5 2 .5.9 1 1.8 2.1 2.6 3.1.6.6-.1 1.1-.3 1.6-.1.3-.8.3-1.1.3s-.5-.4-.6-.6c-.1-.4-.3-.8-.4-1.3-1.6 0-3.4 0-5 0-.3 0-.6.4-.6.8-.1 1-.6 1.4-1.6 1.3-.3 0-.6 0-.9 0-.9.1-1.5.1-1.9-.9-.1-.3-.4-.5-.6-.6-.9-.4-.9-1-.9-1.8 0-.9 0-1.9 0-2.8 0-.5.1-.8.6-.9 1.4-.4 1.4-.4 1.4-1.9 0-.4 0-.8 0-1.1-.3-1.6.4-2.9 1.8-3.9.6.8 1.1 1.5 1.9 2.1.5.5.5.9.1 1.4-.3.3-.4.6-.6 1 1.1 1.2 2.1 2.5 3.2 3.7zm-.8-4.2c.5-.4.9-.8 1.4-1.1.6.8 1.3 1.5 1.9 2.3-.5.4-.9.8-1.4 1.1-.6-.8-1.2-1.6-1.9-2.3zm2.7 9.9v1.8c-1 0-2 0-3 0 0-.6 0-1.1 0-1.8zm-10.4-10.3v1.5c-.6 0-1.1 0-1.8 0 .2-1.1 1.3-1 1.8-1.5zm11.3 20.6c-.6.8-1.3 1.4-1.9 2.1-1.4-1-1.4-1-.4-2.3.3-.4.6-.8.9-1.1.4.4.8.6 1.1.9.2.1.2.2.3.4zm7-11.2c1 0 1.8.8 1.6 1.8 0 .9-.8 1.6-1.8 1.6-.9 0-1.6-.8-1.6-1.6.1-1.1.8-1.8 1.8-1.8zm-1-10.5c0-.9 0-1.8 0-2.9h1.6v2.9c-.5 0-1 0-1.6 0zm1.8 26v2.8c-.5 0-1 0-1.6 0 0-1 0-1.9 0-2.8zm-.8 13.2c.8 0 1.3.5 1.3 1.3s-.5 1.3-1.1 1.3-1.3-.5-1.3-1.3c-.1-.8.4-1.3 1.1-1.3zm6.7-17.7c.5-.4.9-.8 1.4-1.1l1.9 2.3c-.5.4-.9.8-1.4 1.1-.7-.8-1.3-1.4-1.9-2.3zm1-8.5c0-.6 0-1.1 0-1.8h2.9v1.8c-.9 0-1.9 0-2.9 0zm10.3-10.5c0-1 0-1.9 0-2.9h1.8v2.9c-.7 0-1.3 0-1.8 0zm.8-11.2c-.6 0-1.3-.6-1.1-1.3 0-.8.6-1.3 1.3-1.3.6 0 1.3.6 1.1 1.3-.1.8-.6 1.3-1.3 1.3zm-1 2.3v3.4c0 .6-.1.9-.8 1-1.3.4-1.3.4-1.3 1.6v3.4c0 .6.1.9.8 1 1.3.4 1.3.4 1.3 1.6v1.6c.1 1 .1 2-1.1 2.5-.1 0-.3.1-.3.3-.9 1.9-2.5.8-3.8 1-.1 0-.5-.5-.5-.9-.1-.9-.6-1.1-1.4-1-1 .1-2.1.1-3.1 0-.9-.1-1.5.1-1.5 1.1 0 .8-.6 1-1.3.9-.3 0-.5-.3-.6-.5-.3-.4-.4-.8-.6-1.3 1.1-1.3 2.1-2.6 3.4-4 .1-.1.6-.1 1-.1 1.3.5 1.3.5 2.1-.5.8-.9 1.4-1.8 2.1-2.6.4-.4.4-.8 0-1.1-.3-.4-.5-.8-.8-1.1 2-2.4 3.9-4.8 6.1-7.3.2.6.3.8.3 1zm-10.9 8.7c.6-.8 1.3-1.5 1.9-2.3.5.4.9.8 1.4 1.1-.6.8-1.3 1.5-1.9 2.3-.4-.3-.9-.6-1.4-1.1zm-7-11c-.6 0-1.3-.6-1.3-1.3s.6-1.3 1.3-1.3 1.3.6 1.3 1.3-.7 1.3-1.3 1.3zm-1 3.6c0 .1-.4.4-.6.5-.4.1-.8.3-1.3.4v5.4c.6.3 1.5.4 1.8.8.4.5.1 1.4.1 2.1v3c0 .5-.3.8-.6.8s-.6-.1-.8-.3c-1.1-1.3-2.3-2.6-3.4-3.9.4-.6.8-1.1 1.1-1.8-1.1-1.3-2.1-2.6-3.4-3.9-.1-.1-.5-.1-.8 0-1.4.5-1.4.6-2.3-.5-.5-.6-1-1.1-1.4-1.8-.1-.3 0-.6-.1-.9l.1-.1c.5-1.8 1.8-2.3 3.5-1.9h.9c1.6 0 1.6 0 2.1-1.5 0-.1 0-.3.1-.3.3-.4 2.8-.1 3.1.3l1.5 1.5c.8.6.3 1.4.4 2.1zm-6.8-4c-.9 0-1.8 0-2.6 0 .5-1.9.6-2 2.6-1.6zm13.9-87.1c.9 0 1.8-.6 2.1.6-.8.6-1.1.6-2.1-.6zm-3.5-.9c1 .8 2 1.5 2.9 2.3.9.6.9.6.5 1.8-22.8-5.6-45.8-5.6-68.6 0-.4-.6-.4-1.3.5-1.8 1-.6 1.9-1.4 3-2.3-1.4-.3-2.6-.4-3.8-.5-.6-.1-1.3-.3-1.9-.5 9.3-2.8 18.8-3.9 28.5-4.4 21.6-1.1 39.4 2.4 44.9 4.4-2.1.7-4.1.5-6 1zm16-12c-.1.1-.5.4-.6.4-1.3 0-2.5 0-3.8 0 0-.1 0-.3-.1-.3.4-.3.9-.5 1.4-1-1.4-.8-2.6-1-3.4-2.5h4c0-.4-.1-.8-.1-1 1.5.3 3.3 1.8 3.8 3-.5.5-.9 1-1.2 1.4zm3.3.5c-.1.8-1 1.5-1.9 1.5-.4 0-.8-.3-.5-.8.1-.8.9-1.4 1.6-1.5.6-.1 1 .3.8.8zm5.1-5.4c-1.9.3-3.3 1.3-4.1 2.8-.4.6-.9.5-1.4.4-.3-.1-.5-.5-.5-.9 0-.9 0-1.8.1-2.6.1-.5.6-1 1-1.6.1.8.3 1.3.5 2 .4-.5.6-.9 1-1.3 1.3-1.5 3.6-1.3 4.5.5.1.1.1.4.1.6-.4-.1-.7-.1-1.2.1zm5.7-10.2c-.4.3-.5.5-.8.5s-.5-.4-.5-.5.3-.5.5-.5c.3-.1.6.3.8.5zm-.5-4.5c.3 0 .4.3.8.5-.4.3-.6.5-.8.4-.3 0-.4-.4-.5-.5.2 0 .3-.4.5-.4zm-1-3.9c.1.1.5.4.5.5 0 .3-.3.4-.5.8-.3-.4-.5-.5-.5-.8 0-.1.4-.4.5-.5zm-.4 11.5c.1 0 .4.3.8.5-.4.3-.5.5-.8.5s-.4-.3-.5-.5c.2-.1.4-.5.5-.5zm-1.6 4.2c-.3 0-.5-.3-.5-.5 0-.1.3-.5.5-.5.1 0 .4.3.8.4-.4.3-.7.6-.8.6zm.1-19.2c.3 0 .5.4.5.5s-.4.5-.5.5-.4-.3-.8-.5c.5-.2.7-.5.8-.5zm-.5 7.4c0-.1.1-.1.1-.3.9 1.5.1 6.5-1.6 8.8-.3-.5-.6-.9-.8-1.4-.1-.1 0-.5.1-.6 1.4-2 2.1-4.1 2.2-6.5zm-2-10.3c.1.1.5.4.5.5 0 .3-.3.4-.5.8-.3-.4-.5-.6-.5-.8s.3-.4.5-.5zm-3-2.5c.1.1.5.4.5.5 0 .3-.3.4-.5.8-.3-.4-.5-.6-.5-.8s.4-.2.5-.5zm-3.5-1.9c.1 0 .4.3.8.4-.4.3-.5.5-.8.5s-.5-.3-.5-.5c0 0 .3-.4.5-.4zm-3.7-1.5c.3.1.5.4.6.5 0 .1-.3.4-.5.8-.3-.3-.5-.5-.5-.6s.2-.4.4-.7zm-4.1-.6c.3 0 .4.3.8.5-.4.3-.5.5-.8.5s-.4-.3-.6-.5c.3-.3.5-.5.6-.5zm-3.8-.3c.1 0 .4.3.8.4-.4.3-.5.6-.8.6s-.4-.3-.6-.5c.2-.1.3-.5.6-.5zm15 8.6c4.4 3.6 5 10.2 1.4 14.7-.4.5-.4.9-.1 1.4.5.8.9 1.5 1.4 2.3.1.3 0 .5 0 .8-.1 0-.1 0-.3 0-.8-1.3-1.4-2.4-2.1-3.6-.1-.1 0-.5.1-.5 4-4.3 3.9-11.7-2.5-15.7-3-1.9-6.4-3-9.9-3.3-2.1-.3-4.3-.1-6.4-.1-.1 0-.4-.3-.5-.4 0-.1.1-.3.1-.4 6.9-.6 13.3.1 18.8 4.8zm-18.9-8.4c.1.1.5.3.5.5s-.3.4-.4.8c-.3-.4-.6-.5-.6-.8.1-.2.3-.4.5-.5zm4 5.4c4.1 0 8 .9 11.7 3 2 1.1 3.6 2.6 4.5 4.9.9 2.4.8 4.6-.4 6.9-2-1-3.9-2.1-5.8-3-4.3-1.9-8.7-3.1-13.3-2.8-.3 0-.6-.3-1-.4.3-.3.4-.5.6-.6 1.1-.8 1.3-2.1.3-3.1-.5-.4-.5-.6 0-1.1 1.1-1.3.5-2.6-1.1-3.5 1.2-.2 2.8-.3 4.5-.3zm-4.9 6.9c-.3-.4-.5-.5-.5-.8s.4-.5.5-.5.5.3.5.5c0 .3-.3.5-.5.8zm.6-4.6c-.4.3-.5.5-.8.5s-.5-.4-.5-.5.3-.5.5-.5.4.3.8.5zm-1.5-4.2c.1 0 .4.3.8.5-.4.3-.6.5-.8.5-.1 0-.5-.4-.5-.5 0-.3.3-.5.5-.5zm-.2 11c.1 0 .4.3.8.5-.4.3-.6.5-.8.5-.3 0-.5-.4-.5-.5s.3-.5.5-.5zm-.3 3.2c0-.3.3-.5.5-.8.4-.4.9-.6 1.4-.9.3-.1.5-.3.9-.3 4-.4 7.8.6 11.5 2 2.5 1 4.8 2.3 7 3.8-.5.6-1 1.1-1.6 1.6.9 1.6 1.8 3.1 2.8 4.8-.5.3-.9.4-1.4.6-.1-.3-.3-.5-.3-.6-2.4.5-3.4 2.1-3.6 4.4-1.6-1-3.1-1.9-4.8-2.9-.1.6-.3 1.4-.4 1.9-1.5.4-3 .6-4.4 1 0 .1-.1.3-.1.4.9 1 1.6 2.1 2.6 3.3-.3.4-.8 1-1.3 1.6 1.8.3 3.4.5 5 .8-.1.1-.3.4-.4.5-1.1 1.1-2.4 2-4 2.4-1.4.4-2.9-1.1-2.5-2.5 0-.3.3-.4.4-.5.6-.8.9-1.6.8-2.6-.1-.8-.4-1.4-1.1-1.6s-1.5 0-2 .6c-.6.8-1 1.6-.9 2.8 0 .3 0 .6-.3.9-1.4 1.5-4 1.8-5.8.6-1.9-1.3-2.5-3.6-1.8-5.5 2 .9 3.9 1.9 6 2.9 0-.9 0-1.5 0-2.1 1.5-.3 2.9-.8 4-1.8-.8-1.4-1.8-2.3-3.1-3 .3-.6.5-1.3.6-1.9-1.6 0-3.1 0-4.8 0 .8-1.4 1.4-2.6 2.3-4.3-.9-.1-1.6-.3-2.5-.5-.3-.9-.5-1.8-.8-2.6 1.9-.3 2.1-.8 2.1-2.5zm6.7 17.9c0 .5-.1 1.1-.3 1.6 0 .1-.4.3-.6.4-.1-.3-.3-.5-.4-.9.3-.5.6-.9.9-1.4 0 0 .4.2.4.3zm-21.1-6.9c1.3-.8 2.5-.8 3.9-.6-.1-.5-.1-.9-.3-1.4l.1-.1c.9.5 1.8 1 2.6 1.5.1.1.3.5.1.6-.1.8-.4 1.5-.5 2.6-.9.1-2 .3-3.1.5 0-.1-.1-.1-.1-.3.3-.4.4-.6.8-1.1-1.4-.1-2.6-.5-3.5-1.7zm6.5-2.3c-1.5-.6-2.9-1.1-4.4-1.8v1.8c-1.5.6-2.8 1.3-4.1 1.8 0 .1 0 .3-.1.4 1 1 2.1 2 3.3 3-.1.4-.4.9-.8 1.8 2.3-.1 4.3-.4 6.4-.5.1 1.4-.5 2.6-1.8 3.6-2.4 2-6.4 1.1-7.5-1.8-.3-.5-.3-.9.1-1.3.8-.9.8-2 .4-3-.6-1.4-2.1-1.6-3-.4-.8.9-.9 2-.4 3 .3.5.1.9-.1 1.4-1.1 1.9-3.4 2.6-5.5 2-2-.6-3.5-2.5-3.5-4.6 0-.4 0-.8 0-1.4 2.3 1.8 4.8 1.9 7.3 2.4-.1-.8-.3-1.5-.5-2.1.8-.4 1.5-.6 2.3-1.1s1.3-1 2-1.6c-1.1-1.4-2.5-2.3-4.3-2.8.1-.8.3-1.4.5-2.3-1.8.4-3.5.8-5.4 1.1.5-1.8 1.1-3.4 1.6-5.1-.5-.1-.9-.1-1.5-.3.8-.8 1.5-1.5 2.3-2.3.4-.4.5-.8.4-1.4-.5-1.6-.8-3.4-1.1-5.3 2 .3 3.8.5 5.5.9 2.8.5 5.3 1.4 7.9 2.4 1.9.8 4 1.3 6 1.9-.6.5-1.3 1-1.9 1.5.6 1.1 1.3 2.3 2 3.4.5.8.6 1.4-.1 2-.8-.1-1.5-.4-2.5-.5 0 2.1.3 3.6.5 5.2zm-9.6 5.4c0 .4-.3.8-.5 1.1-.1 0-.3 0-.5 0-.1-.5-.3-1-.1-1.4 0-.3.3-.4.4-.6.1-.1.1-.1.3-.3l.1-.1v.1c0 .1.1.3.1.3 0 .1.1.3.1.3.1.4.1.5.1.6zm-15.2-6.4c-.6-1.6-1.1-3.3-1.6-4.9l.1-.1c.3.3.6.4.9.8.3.3.5.6.9 1 .1-1.9.3-3.6 1.6-5.1 1.4 1.5 1.6 3.4 1.6 5.4.6-.8 1.1-1.4 1.8-2 .1.1.3.1.3.3-.5 1.6-1.1 3.1-1.6 4.9-1.5-1-2.8-1-4-.3zm3.6 2.5c0 1-.8 1.8-1.8 1.8s-1.8-.8-1.8-1.8c0-.9.8-1.8 1.8-1.8.9.1 1.8 1 1.8 1.8zm-13 2.2c-.9-1.3-2.5-1.1-3.1.3-.5 1.1-.4 2.1.3 3.3.1.3.3.8.1 1-.6 2.1-3.1 3.5-5.4 3-2.4-.5-4-2.6-3.9-4.8 2.1.1 4.1.4 6.4.6-.3-.8-.5-1.4-.8-2 1.4-.6 2.5-1.6 3.1-3-1.1-1-2.5-1.5-4-1.8 0-.6.1-1.3.1-2.1-1.5.6-3 1.1-4.5 1.8.3-1.6.4-3.1.6-4.8-.9.1-1.6.4-2.5.5-1-1.1-1-1.1-.3-2.4.6-1 1.1-2 1.8-3-.6-.5-1.4-1-2-1.6 1.8-.5 3.4-.9 5-1.5 4.3-1.9 8.7-2.9 13.2-3.4.4 0 .9 0 1.5-.1-.4 1.9-.8 3.5-1.1 5.3-.1.5-.1.9.4 1.3l2.3 2.3c-.5.1-.9.3-1.3.4.5 1.8 1.1 3.4 1.6 5.1-1.8-.4-3.5-.8-5.4-1.1.1.8.3 1.5.4 2.3-1.6.5-3 1.3-4.1 2.6 1.1 1.4 2.5 2.1 4.1 2.6-.1.8-.3 1.4-.5 2.3 2.6-.5 5.1-.8 7.1-2.4.8 2.4-.6 4.9-2.9 5.8s-5-.3-6-2.3c-.1-.3 0-.6 0-.9.5-1.3.4-2.3-.2-3.3zm-1.2 2.7-.4.1c-.3-.4-.4-.8-.6-1.3.3-.4.4-.6.5-1 .3.3.6.5.8.8 0 .4-.1.9-.3 1.4zm-4-4.1c-.8 1.3-2.1 1.5-3.4 1.9.3.4.5.8.8 1.3-.9-.1-1.5-.1-2.1-.1-1.4-.3-1.4-.3-1.4-1.5 0-.4 0-.8-.3-1-.4-.6-.1-1 .4-1.3.8-.4 1.6-.9 2.5-1.4-.1.6-.3 1-.4 1.5 1.4 0 2.7-.2 3.9.6zm-8-1.3c-1.3-.4-2.4-.3-3.5.6-.6-1.1-1.3-2.3-1.9-3.4l.3-.3c.5.5 1.1.9 1.6 1.4-.1-1.8-.5-3.4.5-4.9.9.6.9.6 2.3 4.4.3-.4.4-.8.5-1 .1-.3.4-.5.5-.9.1 0 .1 0 .3.1-.2 1.4-.3 2.7-.6 4zm.5 2.9c0 1-.9 1.8-1.8 1.8s-1.8-.9-1.8-1.8c0-1 .8-1.8 1.8-1.8s1.8.8 1.8 1.8zm-10.3 2.1c-.3 0-.5-.3-.9-.4.8-1.4 2.1-1.6 3.4-2-.3-.4-.5-.8-.8-1.1 1.3-.1 2.3-.1 3.4.4.1.1.3.4.3.6.1.6.1 1.1.4 1.8.1.4.1.8-.3.9-.9.5-1.8 1-2.6 1.5l-.1-.1c.1-.4.1-.8.3-1.1-1.2-.2-2.1-.3-3.1-.5zm28.9-27.3h-.1v2.4c0 1.1 0 1.1-1.1 1.3-4.3.4-8.3 1.3-12.3 2.8-1.9.8-3.9 1.4-5.8 1.9-1.5.4-1.5.4-2.1-1.1-1.5-3.6-.5-7.5 2.6-10 3.4-2.6 7.4-3.4 11.7-3 2.4.3 4.5.9 6.6 2 .5.3.8.6.6 1.3-.3.7-.1 1.5-.1 2.4zm-5.6 23c.9-1 1.9-1.4 4.3-1.5-.3-.5-.4-1-.6-1.4 0-.1.1-.1.1-.3 1.4.5 2.9 1 4.1 1.4v3.3c-1.1.9-2.6 1.3-4.4 1.5.3-.6.5-1 .8-1.6-1.6-.1-3.1-.3-4.3-1.4zm11.5-26.4c.4-.3.6-.5 1-.9.1.6.1 1.1.3 1.8-.6-.2-1-.5-1.3-.9zm1.2 4.5c-.4-.3-.6-.5-1-.8.1-.1.3-.3.3-.4.1-.1.4-.3.6-.5.1.7.1 1.1.1 1.7zm-1.1-2.6c-.4.3-.5.5-.8.5s-.5-.3-.5-.5c0-.1.3-.5.5-.5s.4.4.8.5zm-.8 3.1c.6 0 1 .4 1 1 0 .8-.5 1.1-1 1.1-.6 0-1-.4-1-1 0-.7.4-1.1 1-1.1zm1.5 5.6c0 .8-.6 1.5-1.4 1.5-.9 0-1.5-.6-1.5-1.4 0-.9.6-1.5 1.4-1.5s1.5.6 1.5 1.4zm-3.3-9.6c.1-.8.1-1.3.1-1.9.4.4.8.6 1.1.9-.4.4-.7.7-1.2 1zm.8 2.8c-.4.3-.6.5-1 .8 0-.6 0-1.1 0-1.8.5.4.8.6 1 1zm12.1 22.6c-1.3 1-2.6 1.5-4.3 1.4.3.5.5 1 .8 1.6-1.5-.1-2.9-.5-4.1-1.4-.1-.1-.3-.5-.3-.6 0-.6.1-1.3 0-1.9-.1-.5 0-.9.4-1 1.3-.5 2.5-.9 3.6-1.4.1.1.1.3.3.3-.3.5-.4.9-.6 1.5 1.5 0 2.9.3 4.2 1.5zm-5.8-26c0-.3.4-.5.6-.8 3.3-1.9 6.8-2.4 10.4-2.1 2.9.3 5.5 1.1 7.9 2.9 4 3 4.1 7.6 2.4 10.9-.3.5-.6.8-1.3.5-2.3-.6-4.5-1.3-6.6-2-3.6-1.4-7.3-2.3-11.2-2.6-.6-.1-1.3-.1-2.1-.3 0-2.2-.1-4.4-.1-6.5zm19.1 21.3c.4.6.6 1.3 1 2 .5-1.8.6-3.4 2.3-4.5 1 1.5.6 3.1.5 5 .6-.6 1.1-1 1.6-1.5l.3.3c-.6 1.1-1.1 2.3-1.8 3.4-.6-.3-1.3-.6-1.8-.6-.5-.1-1.1 0-1.9 0-.1-1.1-.4-2.4-.5-3.6.1-.4.3-.4.3-.5zm5.4-5.2-.1.1c-.1.1-.3.4-.4.4-.3 0-.4-.3-.8-.5.4-.3.6-.5.8-.5h.1s.1 0 .1.1l.1.1s0 0 .1.1c-.1.2-.1.2.1.2zm5.6 13.9c-1.1.9-2.5.6-3.9.6.1.5.3.9.3 1.3 0 .1-.1.1-.1.3-1-.5-1.9-1.1-2.8-1.6-.1-.1-.1-.5 0-.8.1-.5.4-1 .3-1.5-.1-.8.3-1 .9-1.1.9-.1 1.8-.3 2.8-.4-.4.5-.5.9-.9 1.3 1.1.2 2.5.6 3.4 1.9zm-9.5-3.5c1 0 1.8.8 1.8 1.8s-.9 1.8-1.8 1.8-1.8-.8-1.8-1.8.9-1.8 1.8-1.8zm3.6-28.6c.1 0 .4.3.8.5-.4.3-.5.5-.8.5-.1 0-.5-.4-.5-.5.1-.2.4-.5.5-.5zm-2.9-2.7c.3.4.5.5.5.8 0 .1-.3.4-.4.5 0 0 0 0-.1.1l-.1-.1-.1-.1c-.1-.1-.1-.1-.3-.3 0-.4.4-.5.5-.9zm-3.4-1.7c.1.1.5.4.5.5s-.3.4-.5.8c-.3-.4-.5-.5-.5-.8.2-.1.4-.4.5-.5zm-3.6-1.5c.3.4.5.5.5.8s-.3.4-.5.5c-.1-.1-.5-.4-.5-.5s.2-.4.5-.8zm-3.9-.4c.1 0 .4.3.8.5-.4.3-.5.6-.8.5-.3 0-.5-.3-.5-.5 0-.1.3-.5.5-.5zm-4.3.5c0-.3.4-.4.5-.5.1.1.4.4.5.5 0 .1-.3.4-.5.8-.3-.4-.6-.5-.5-.8zm-1.5.6c.3.4.5.8.9 1.1-.5.1-.8.1-1.1.3 0-.5.1-.9.2-1.4zm-2-.3c.1 0 .5.4.5.5s-.3.4-.5.8c-.3-.4-.5-.6-.5-.8 0-.3.4-.5.5-.5zm-1.6 1.7c.3.3.6.5 1 .8-.4.1-.8.4-1.3.5.2-.5.2-.9.3-1.3zm-.9 3.1c3.4-1.8 6.9-2.4 10.7-2 3.1.3 6 1.1 8.7 3 5.9 4.1 6.5 11.5 1.4 16.7-.1.1-.3.3-.4.3.1 1 1.1 1.6.9 2.6-.1 0-.1.1-.3.1-.5-.9-1-1.6-1.4-2.5-.1-.1.1-.5.3-.6 3-2.6 4.1-5.9 3.4-9.8-.5-2.8-2.1-4.6-4.4-6.3-3-2.1-6.5-2.9-10.2-2.9-3.1 0-6 .6-8.8 2.1-.1 0-.3.1-.3.1-.1-.1-.1-.1-.3-.3.3-.1.5-.5.7-.5zm-.6-3c0 .1-.4.5-.5.5s-.4-.3-.8-.5c.4-.3.6-.5.8-.5.1 0 .5.3.5.5zm-2.5-9.2c.1 0 .1-.1.3-.1.6.6 1.1 1.4 1.8 2 0 .1-.1.1-.1.3-.6 0-1.1 0-1.8 0-.2-.9-.2-1.5-.2-2.2zm-4.4-.2v2.3c-.6 0-1.3 0-1.9 0 .4-1 1-1.6 1.9-2.3zm-2.1 3.8h3.5c0-3.1 0-6.1 0-9.3-.9 0-1.8 0-2.6 0 0-.5 0-.9 0-1.4h2.8c0-.9 0-1.8 0-2.6h1.4v2.6h2.8v1.4c-.9 0-1.8 0-2.6 0v9.3h3.5c0 1.4 0 1.4-1.1 1.4-2 0-4.1 0-6.1 0-1.6 0-1.6-.2-1.6-1.4zm7.5 2.7c-.8.9-1.6 1.4-2.6 1.5-1.5.3-2.8-.3-4-1.5zm-8 2.8c0-.3.4-.4.5-.5.1.1.4.4.5.5 0 .1-.3.4-.5.8-.3-.3-.5-.5-.5-.8zm.8 7.5c0-1.5.1-3 .4-4.5.3-1.8 1.6-2.8 3.4-2.9 1.5-.1 2.5.4 3.1 1.6.4.6.5 1.5.5 2.1.3 3.3.4 6.6.8 9.9.1 1.6.6 3.4.9 5 0 .4 0 .8-.3 1-.6.8-1.5 1.5-2.1 2.3-.1 0-.1-.1-.3-.1.3-.4.5-.9.9-1.1 1.3-.9 1.4-1.9 1-3.4-.6-2.9-.8-5.8-1-8.8-.1-1.8-.3-3.6-.4-5.4-.1-1.6-1.3-2.6-2.9-2.6s-2.8 1-2.9 2.6c-.3 2.5-.4 5.1-.5 7.6-.1 2.6-.5 5.4-1.3 7.9-.1.3 0 .6.3.9.4.5.9.9 1.4 1.4.3.3.5.6.8 1-.1.1-.1.1-.3.3-.9-.9-1.6-1.6-2.5-2.5-.1-.1-.1-.5-.1-.6.9-4 1-7.8 1.1-11.7zm5.9 10.7c.3-.3.4-.6.8-1.1 0 .9.8 1.5-.1 2.1-.3-.3-.4-.6-.7-1zm-4 0c-.3.4-.5.8-.8 1.1-1-.8-.1-1.4 0-2.1.3.4.6.7.8 1zm-4.4-18.2c.1.4.3.8.4 1.3-.5-.1-.9-.3-1.3-.5.3-.3.7-.5.9-.8zm-1.6-1.7c.1 0 .4.3.8.5-.4.3-.5.5-.8.5s-.4-.3-.6-.5c.4-.2.5-.5.6-.5zm-2 .3c.1.4.3.9.4 1.4-.4 0-.8-.1-1.1-.1.2-.5.4-.9.7-1.3zm-1.9-1c.1 0 .5.3.5.5 0 .1-.3.4-.4.8-.3-.4-.5-.5-.5-.8-.1-.2.2-.5.4-.5zm-3.7-.2c.1.1.5.4.5.6s-.3.4-.5.8c-.3-.4-.5-.6-.5-.8s.2-.4.5-.6zm-3.9.9c.1 0 .4.3.8.5-.4.3-.5.5-.8.5s-.5-.3-.5-.5c0-.3.2-.5.5-.5zm-3.8 1.1c.1 0 .4.3.8.5-.4.3-.6.5-.8.5-.3 0-.5-.4-.5-.5s.4-.5.5-.5zm-3.4 2c.1 0 .5.4.5.5s-.4.5-.5.5-.4-.3-.8-.5c.4-.3.7-.5.8-.5zm2.3 2.4c3.6-2.4 7.6-3.1 12-2.8 2.4.3 4.8.9 6.9 2 .3.1.4.4.4.8-1.6-.5-3.1-1.3-4.8-1.6-5-1.1-9.8-.6-14.2 2.1-6.8 4.1-6 12.4-1.3 16.2l.4.4c-.5.9-1 1.8-1.5 2.6-.4-.4-.4-.4.6-2.4-.4-.5-.9-.9-1.3-1.4-4.1-5.3-3-12.2 2.8-15.9zm-4 18.2c-.4.3-.5.5-.8.5s-.4-.3-.5-.5c.1-.1.4-.5.5-.5.3 0 .5.2.8.5zm-1.2-18.2c.1 0 .4.3.8.6-.4.3-.6.5-.8.5-.3 0-.5-.4-.5-.5 0-.4.4-.6.5-.6zm1 20.2c-.3.9-.5 1.9-.8 2.8-.8.1-1.5.3-2.5.4.8 1.5 1.5 2.9 2.3 4.3-1.6 0-3.1 0-4.8 0 .3.6.4 1.1.6 1.6-1.1 1-2.1 2-3.3 3 1.4 1.1 2.6 1.8 4.3 1.9 0 .6 0 1.3-.1 2 2.1-.9 4.3-1.4 5.9-3 1 2.5-.1 4.9-1.8 5.9-1.9 1.1-4.5.9-5.8-.8-.1-.3-.1-.5-.1-.9.1-1-.3-2-.9-2.8-.5-.6-1.5-.8-2.1-.5-.6.4-1.3 1.3-1 2.1.1.6.4 1.4.8 1.9.8.8.4 1.5 0 2.3s-1 1.1-1.9 1c-1.5-.3-2.8-1.1-3.9-2.1-.3-.3-.6-.4-.9-.6 0-.1.1-.3.1-.3 1.6-.3 3.1-.5 4.9-.8-.5-.6-.9-1.3-1.3-1.8.9-1 1.8-2.1 2.6-3.3-1.6-.8-3-1.1-4.6-1-.1-.8-.3-1.4-.4-2.1-1.6 1-3.1 1.9-4.8 2.9-.1-1.4-.5-2.6-1.5-3.5-.5-.4-1-.6-1.5-.9-.4-.3-.8-.1-.8.6-.6-.3-1.1-.5-1.8-.6.9-1.6 1.8-3.1 2.8-4.8-.5-.6-1.1-1.1-1.8-1.9.8-.5 1.5-.9 2.1-1.3 4-2.3 8.3-3.9 12.8-4.3 1.4-.1 2.8 0 4 .1.3 0 .4.1.5.3.5.3.9.5 1.4.9.3.1.5.4.5.6.6 2.2.8 2.4 2.8 2.7zm-7.2 16.6c-.3.4-.5.8-.6.8-.4.1-1-.9-.9-1.5 0-.3.3-.5.5-.6.2.3.6.8 1 1.3zm3-25.3c0-.1.3-.4.5-.8.3.4.5.6.5.8 0 .3-.4.5-.5.5-.3 0-.5-.2-.5-.5zm2.4 3.5c-.4.3-.6.5-.8.5-.3 0-.4-.4-.5-.5.1-.1.4-.5.5-.5s.4.3.8.5zm-1-11.6c.1.1.5.4.5.5s-.3.4-.5.8c-.3-.4-.5-.6-.5-.8s.3-.3.5-.5zm-.3 4.3c0 .3-.4.4-.5.6-.1-.3-.5-.4-.5-.6s.3-.4.5-.8c.3.5.5.7.5.8zm-1.8 1.5c.1.1 0 .6-.1.8-1.1 1.3-1 2.4.4 3.4.1.1.4.5.4.5-.1.3-.5.5-.6.5-1.5 0-3-.1-4.5.1-5.1.5-9.8 2.5-14 5.1-.3.1-.5.4-.9.5-.9-1.8-1.1-3.6-.6-5.6.5-2.1 1.6-3.8 3.3-5 3.1-2.4 6.6-3.5 10.5-3.9 2.1-.3 4.3 0 6.4 0 .4 0 .8.1 1.1.1-2.2.8-2.6 2-1.4 3.5zm.2-9.2c.1 0 .4.3.8.5-.3.3-.5.5-.6.5s-.5-.3-.5-.5c-.2-.2 0-.5.3-.5zm-3.9-.2c.3 0 .4.3.8.5-.4.3-.5.5-.8.5s-.4-.4-.5-.5c.1-.2.4-.5.5-.5zm-3.9.3c.1 0 .4.3.8.5-.4.3-.5.5-.8.5s-.4-.3-.5-.5c.2-.3.4-.5.5-.5zm-4 .5c.3.4.5.6.5.8-.1.3-.4.4-.6.5-.1-.3-.4-.4-.4-.6s.2-.5.5-.7zm-3.8 1.6c.1.1.5.3.5.5 0 .1-.3.4-.4.8-.3-.4-.5-.5-.5-.8 0-.1.3-.3.4-.5zm-3.4 2c.1 0 .4.3.8.5-.4.3-.6.5-.8.5-.3 0-.5-.4-.5-.5 0-.2.3-.5.5-.5zm-3 2.4c.1 0 .4.3.8.5-.4.3-.5.5-.8.5s-.5-.4-.5-.5c0-.2.3-.5.5-.5zm4 .9c3.4-2.5 7.3-3.8 11.4-4.1 2.1-.3 4.4 0 6.5 0 .1.8-.3.6-.6.6-4.3-.4-8.5.1-12.5 1.6-2.5 1-4.8 2.3-6.4 4.4-3 3.8-3 9.2.3 12.8.4.5.4.8.1 1.3-.6 1-1.3 2.1-1.9 3.1-.1 0-.1 0-.3 0 0-.3-.1-.5 0-.8.5-.9 1-1.6 1.4-2.5.1-.3.1-.6 0-.9-4.2-5-3.2-11.5 2-15.5zm-3.7 16c.1.1.1.4 0 .6-.3.5-.5.9-.9 1.4-1.8-2.9-2.4-5.8-1.6-8.9.2 2.6 1 4.8 2.5 6.9zm-4.7-10.5c.1.1.5.4.5.5 0 .3-.3.4-.5.8-.3-.4-.5-.6-.5-.8s.3-.4.5-.5zm-.8 9.2c-.3-.4-.5-.6-.5-.8 0-.3.4-.4.5-.5.1.3.5.4.5.6 0 0-.3.3-.5.7zm-.2-4.3c-.3 0-.4-.3-.6-.5.1-.3.4-.5.5-.5.3 0 .4.3.8.5-.2.3-.4.5-.7.5zm1.4 7.9c-.3-.4-.5-.5-.5-.8s.3-.4.5-.5c.1.1.5.4.5.5-.1.2-.4.4-.5.8zm1.5-16.3c.1.1.5.4.5.5s-.3.4-.5.8c-.3-.4-.5-.6-.5-.8s.3-.4.5-.5zm.1 19.3c-.1-.1-.5-.4-.5-.5s.3-.4.5-.8c.3.4.5.5.5.8 0 .1-.3.3-.5.5zm6.4 5.2c-1-1.4-1.6-2.3-5.3-2.5.3-.9.8-1.6 1.6-1.8.8-.1 1.6-.1 2.4.1s1.3 1 1.9 1.6c.1-.5.3-1 .4-1.5 1.3.4 1.8 2.6 1.1 4.6-1.1.6-1.6.2-2.1-.5zm2.8 4.5c-.8-.3-1.4-.6-1.6-1.4-.1-.6.1-1 .8-.9.8.3 1.4.8 1.5 1.5.3.5-.1.8-.7.8zm.8-3.4c-.1-.3.3-.9.5-1.1.9-.8 2-1.5 3.1-2.3v1.4h3.9c0 .1.1.3.1.5-1 .6-2 1.3-3.1 2 .4.3.8.5 1.1.8 0 .1-.1.1-.1.3-1.4.3-2.8.5-4 .1-.7-.3-1.2-1.1-1.5-1.7zm7.1 8.6c-2.6-.6-4.3-2.4-5.8-4.4-.1-.1 0-.4.1-.6.6.6 1.3 1.3 2 1.8 1.1.8 2.1 1.5 3.4 2 2.4.9 4.3-.3 4.8-2.6 0-.3.1-.5.3-1 2.3 2.1 4.8 2.9 7.4 1.5 2.8-1.4 3.5-3.8 3.1-6.8.3-.1.5-.1.9-.3.6 3.1 2.3 5.1 5.4 5.5 3.4.5 5.8-1.1 7-4.4 1.8 2.9 4.3 4.3 7.5 3.3 3.1-.9 4.5-3.3 4.5-6.5h.4.5c0 3.5 1.6 5.9 5 6.6 3 .6 5.3-.6 6.9-3.4 1.3 3.4 3.8 5 7.1 4.4 3-.5 4.6-2.5 5.1-5.5.3 0 .5.1.9.1-.4 3 .5 5.4 3.3 6.8s5.1.6 7.4-1.5c.1.5.3.9.3 1.1.6 2.4 2.4 3.3 4.6 2.5 1.8-.6 3.3-1.8 4.5-3 .3-.3.5-.5.8-.8.1 0 .1.1.3.1 0 .3 0 .4-.1.5-1.4 2-3.1 3.6-5.6 4.4-2.3.6-3.8-.1-4.8-2.4-.1-.3-.3-.6-.4-1-2 1.4-4.3 1.9-6.6 1.1s-3.9-2.4-4.6-4.9c-1.6 2-3.5 3.4-6.1 3.3-2.6 0-4.6-1.3-6.1-3.3-3.9 4-9.8 2.9-12.3-1.6-1.3 2.3-3.1 3.8-5.6 4.1-2.5.4-4.8-.5-6.6-2.5-1.5 2-3.5 3.3-6.1 3.4-2.6 0-4.6-1.1-6.3-3.3-.8 2.5-2.3 4.1-4.6 4.9-2.4.8-4.5.4-6.5-1.1-.3.6-.5 1.3-.9 1.8-1.2 1.7-2.6 2.2-4.5 1.7zm66.2-2.8c-1-.1-2-.3-3-.5.6-.5 1.1-.9 1.8-1.3.3.6.7 1.1 1.2 1.8zm-12.5-1.7c-.6 0-1 0-1.5 0 0 0 0-.1-.1-.1.3-.1.5-.4.8-.6.3.2.5.5.8.7zm-11.3-.4c-1.1 0-2.1 0-3.3 0 .6-.5 1.1-1 1.6-1.5.6.5 1.1 1 1.7 1.5zm-13.1.3c0 .1 0 .1-.1.3-.5 0-.9 0-1.4.1.3-.3.5-.5.8-.9.2.1.5.2.7.5zm-11 1.2c-1.1.1-2 .4-3 .5.5-.6.9-1.1 1.3-1.8.6.5 1.1.8 1.7 1.3zm-15.4 5.9c-.3 0-.4.3-.6.1-.4 0-.9 0-.9-.3-.3-.5.1-.6.6-.8 2.1-.6 4.1-1.3 6.3-1.8 5-1.3 10.2-2 15.3-2.5 7.4-.8 14.8-1 22.2-.9 10.8.4 21.6 1.5 32 4.4.6.3 1.4.4 2 .6.3.1.4.5.6.8-.3.1-.6.4-.9.3-2.1-.5-4.3-1.3-6.5-1.6-4.9-.9-9.8-1.8-14.8-2.4-5.8-.6-11.5-.8-17.3-1.1v.3c-10.4 0-20.7.8-30.8 3-2.6.7-4.8 1.3-7.2 1.9zm1.2 3.8c.4-1.3 1.3-.6 2-.6-.6 1.1-1 1.2-2 .6zm8.2 7.7c-2-.4-3.9-1-5.8-1.5-.5-.1-1.1-.3-1.1-1s.5-.9 1-1c4.4-1 8.7-2.1 13-2.9 7.8-1.3 15.7-1.6 23.6-1.5 6.3.1 12.7.5 18.8 1.5 4.4.8 8.8 1.9 13.2 2.9.5.1 1 .3 1 .9s-.5.9-1 1c-5.4 1.5-10.8 2.8-16.3 3.3-.8.1-1.5 0-2.3-.1 6.4-.9 12.7-1.9 18.8-3.9-11.3-3.4-22.9-4.5-34.6-4.5-11.8 0-23.3 1.1-34.6 4.5 6.1 1.9 12.4 3 18.8 3.9-.4 0-.6.1-1 .1-3.7-.1-7.6-1-11.5-1.7zm-22.1 125c-2.6-3.9-4.3-8-4.8-12.5-.1-1.4-.1-2.9-.1-4.3 0-12.3 0-24.5 0-36.7 0-.4 0-.6 0-1h4.9zm-4.9-56.8c0-21.4 0-42.9 0-64.3h54.5v.9 40.5c0 .8-.1 1-.9 1-3.6.4-6.9 2-9.7 4.5-.5.4-.9.6-1.5.6-1.1 0-2.3 0-3.5 0 0-5.6 0-11.3 0-17.1h2.1c0-2.8 0-5.4 0-8.2-1.3 0-2.4 0-3.8 0 0-1.6 0-3.1 0-4.8 0-.1.3-.4.4-.4h1c0-1.5 0-2.9 0-4.3-.5 0-1 0-1.6 0 0 .4-.1.6-.1 1.1-.4 0-.8 0-1.1 0 0-.4 0-.6-.1-1.1-.6 0-1.4 0-2 0 0 .4-.1.8-.1 1.1-.4 0-.8 0-1.1 0 0-.4-.1-.8-.1-1.1-.5 0-1.1 0-1.6 0v4.3c.5 0 .9.1 1.4.1v5c-.9 0-1.8 0-2.6 0 0-3.8 0-7.4 0-11.3h2c0-1.6 0-3.3 0-4.9-.5 0-1.1 0-1.8 0 0 .3 0 .6-.1 1-.4 0-.8 0-1.3 0 0-.3 0-.6-.1-1-.8 0-1.6 0-2.5 0 0 .3 0 .6-.1.9-.5 0-.9 0-1.5 0 0-.3 0-.6-.1-1-.5 0-1.1 0-1.6 0v4.9c.6 0 1.1 0 1.8.1v11.2c-.9 0-1.8 0-2.8 0 0-1.6 0-3.3 0-5 .5 0 1-.1 1.5-.1 0-1.4 0-2.8 0-4.3-.6 0-1.1 0-1.8 0 0 .4-.1.6-.1 1.1-.4 0-.6 0-1 0 0-.4-.1-.6-.1-1.1-.6 0-1.3 0-2 0 0 .4 0 .6-.1 1.1-.4 0-.8 0-1.1 0 0-.4-.1-.6-.1-1.1-.5 0-1 0-1.6 0v4.3c.5 0 .9.1 1.4.1v5c-1.1 0-2.3 0-3.4 0v8.2h1.9v17.2c-1.5 0-2.9 0-4.5 0v8.9h26.5c-.5 2.6-1 5.3-1.5 7.9-11.3.1-23.3.1-35.5.1zm35.6-24.9c-.9 0-1.9 0-2.8 0 0-1.3-.1-2.6 0-3.9 0-.6.6-1.1 1.3-1.1.8 0 1.4.4 1.4 1.1.1 1.3.1 2.6.1 3.9zm-5.5 16.6c-1.9 0-3.8 0-5.5 0 0-2-.1-3.9 0-5.9.1-1.3 1.5-2.3 2.8-2.1 1.4.1 2.6 1.1 2.8 2.4.1 1.8-.1 3.7-.1 5.6zm-8.3-16.6c-1 0-1.9 0-2.8 0 0-1.4-.1-2.6 0-4 .1-.8.8-1 1.5-1 .8.1 1.3.6 1.3 1.4.2 1.3 0 2.4 0 3.6zm-4.2 91.7c-1.4-.6-2.6-1.3-3.8-1.9-2.1-1.1-2.1-1.3-2.1-3.6 0-19.3 0-38.5 0-57.8 0-.4 0-.8 0-1.1h6c-.1 21.3-.1 42.7-.1 64.4zm6.8-64.6h5.9v66.1c-1 0-1.9.1-2.9.1s-1.9-.1-3-.1c0-21.9 0-44 0-66.1zm54 70.4c-10.9 2.9-22.1 3.8-33.2 2.4-6.1-.8-12.2-2.1-17.9-4.3 10.3-.4 18.4-4.6 24.5-12.9l.4.4s.1.3.3.4c-2.4 1.5-3.3 3.6-2.8 6.3.5 2.4 2 3.6 5.8 4.6v1.4c-2-1-4-2.4-6.1-2.9-2.3-.5-4.6-.3-7-.3 1.8 1.8 3.4 3.5 5.8 4.4s4.8.8 7.4.3c-.3 1-.5 1.9-.8 2.9.5-.1.9-.4 1.3-.5l1.1-.4s.1-.1.1-.3c.3-2 .3-2 2.3-1.9 1.4 0 2.8.1 4 .1 1.6.1 3-.4 4.4-1.4.9-.6 1.9-1.3 2.8-2-4.8-1.8-9.3-1.8-13.2 2.3-.1-.8-.1-1.3-.3-1.9 2-.4 3.8-1 4.9-2.8 1.3-1.8 1.1-3.6.5-5.5 6 6.1 13.3 9.4 21.9 9.4v.3c-2.3.8-4.2 1.4-6.2 1.9zm33-31.2c0 13-9.8 24.5-22.6 26.7-14.8 2.5-28.5-6.8-31.6-21.6-.4-1.6-.5-3.3-.5-4.9-.1-5.8 0-11.4 0-17.2 0-.3 0-.4 0-.5 1.6-.4 3.4-.8 4.6-1 .5.4.9.8 1.3.9.9.1 1.1.6 1.1 1.5-.1 1 0 2 0 3 0 .3-.3.6-.4.8-2.3 1.5-2.4 4.3 0 5.6.3.1.4.5.4.8.1.3 0 .5 0 .6 0 1.6 0 1.6-1.5 2.3-.3.1-.4.5-.4.6 0 1.4.1 2.9.3 4.3 0 .5.3.8.8.9 1 0 1.5.6 1.6 1.6 0 .4.1.9.4 1.3.4 1 .5 1.8 0 2.8-1 2.1.9 4.4 3.1 4.3.5 0 .9.1 1.1.5.4.5.9 1 1.4 1.4.8.5 1 1.1.6 2-.3.6 0 1.1.6 1.4 1.1.6 2.3 1.1 3.4 1.8.4.3.8.3 1.1-.3.6-.9 1.4-1.1 2.4-.6.3.1.4.1.6.1 1 .1 1.8.5 2.3 1.5 1.3 2 4.3 1.6 5.3-.5.3-.5.5-.8 1.1-.9.3 0 .5-.1.8-.1 1.3-.5 2.3-.8 3.1.6.1.1.5.1.6.1 1.3-.6 2.6-1.4 3.9-2.1.5-.3.5-.6.3-1-.4-1-.3-1.8.8-2.3.3-.1.4-.4.6-.6.6-.8 1.3-1.1 2.4-1.3 2.3 0 3.6-2.8 2.4-4.8-.3-.5-.3-.9-.1-1.4.3-.9.6-1.6.8-2.5.1-.6.4-1 1-1.1 1 0 1.3-.6 1.3-1.5 0-1.1 0-2.3.1-3.4 0-.6-.1-1-.8-1-1-.1-1.4-.6-1.1-1.6 0-.3 0-.5 0-.8-.1-.6.1-1.1.8-1.5 1.9-1.3 1.8-4.1-.3-5.3-.4-.3-.6-.5-.5-1 0-1.1 0-2.3 0-3.3 0-.5.1-.8.8-.9 1.3-.4 1.3-.4 1.3-1.6 0-1.1 0-2.1 0-3.3 0-.6-.1-1.1-.9-1.1-.4 0-.8-.3-1.1-.4 0-1.5 0-2.9 0-4.4 0-.3.4-.5.5-.6 1.5-1 2-3 1-4.5s-3.1-1.9-4.5-.8c-.1.1-.3.1-.3.3-.5 1.5-1.9 1.1-3 1.3-.4 0-.8 0-1.1 0-.1-.1-.1-.1-.1-.3-.6-1.8-.6-1.8-2.4-1.8-.9 0-1.8 0-2.8 0-.6 0-.9.1-1 .8 0 .4-.3.8-.4 1.1-.9 0-1.8 0-2.6 0-.1 0-.4-.3-.5-.4-1.4-2.3-4.1-2.3-5.5 0-.1.3-.5.4-.8.5-.1.1-.4 0-.6 0-1.6 0-1.6 0-2.3-1.5-.1-.3-.4-.4-.6-.5-.8 0-1.4 0-2.1 0 .3-1.5.4-3 .6-4.5h36.2v.9c-.4 12.9-.4 25.7-.4 38.4zm13-62.7c-.3.8-.4 1.4-.6 2.1-.1.5-.3.8-.9.9s-.8-.3-1-.5c-1.3-1.9-2.5-3.8-3.8-5.8-.1-.3-.3-.5-.5-.8.8-.1 1.4-.3 2-.4.3 0 .5.3.6.4.9 1.5 1.9 2.9 2.9 4.6.5-1.8 1-3.3 1.3-4.9.1-.9.5-1.3 1.5-1.1-.3 1.9-1 3.7-1.5 5.5zm9.1 2.2c-1.6 0-3.3 0-4.9 0 0-2.6 0-5.1 0-7.6h2v6.8h2.9zm7.4-6c-.8-.1-1.5-.3-2.3-.4-.3 2.4-.4 4.5-.6 6.9-.8-.1-1.4-.1-2-.3.3-2.3.4-4.5.6-6.9-.9 0-1.6-.1-2.4-.1 0-.4 0-.6.1-1 2.3.3 4.5.4 6.9.6-.2.6-.3.8-.3 1.2zm7.2 8.8c-.9-.1-1.5-.3-2.3-.5-.1 0-.4-.4-.4-.6-.5-1.1-.9-2.3-1.4-3.5-.3 1.3-.5 2.4-.9 3.5-.6-.1-1.3-.3-2-.5.6-2.5 1.1-5 1.8-7.6 1.6.4 3.1.8 4.6 1.3.9.3 1.3 1.1 1.1 1.9-.1.9-.8 1.5-1.6 1.6-.3 0-.5 0-.9.1.8 1.4 1.4 2.8 2 4.3zm7.9 4.4c-.3-.1-.4-.3-.5-.3-1.3-.5-1.9-1.3-1.4-2.8.1-.5 0-.9-.5-1.1-.1 0-.3-.1-.5-.3-1.6-.9-1.6-1-3 .3-.8.6-1 0-1.6-.4 1-.8 2-1.4 2.9-2 1.3-.9 2.6-1.8 3.9-2.6.5-.4 1.4 0 1.3.5-.1 3-.3 5.8-.6 8.7z"/><path d="m151.4 225.3v.1-.1.1z"/><path d="m53.1 93.6c.5.5 1 1 1.4 1.6.1.1.3.3.4.3.6.5 1.4 1 2 1.6s.4 1.6 1 2.3v.1c0 .4-.1.8-.1 1.3-1.6 0-3.1 0-4.8 0v8.4h1.9c0 .1-.1.1-.1.3.5.4.9.9 1.4 1.3.3.3.6.5.6.9s-.4.6-.6.9c-.1.1-.3.1-.4.3-1 .6-1 2 0 2.6.5.3.6.6.6 1.1v22.3 1c1.4-.3 1.4-.3 1.4-1.5 0-6.8 0-13.5 0-20.3 0-.4 0-.8 0-1.1h12.4v20.3h.4c0-.3.1-.6.1-.9 0-6.1 0-12.3 0-18.4 0-.4 0-.6 0-1h1.5v1 18 .6c0 .1.1.3.3.4.1 0 .1 0 .3-.1 0-6.6 0-13.4 0-20.1h2.1v20.1h1.4c0-.4 0-.8 0-1.1 0-6.4 0-12.9 0-19.3 0-.4.1-.9.4-.9 1.4-.6 1.4-2.5-.1-3.1-.9-.4-.8-1.1 0-1.8.5-.4.9-.9 1.4-1.3 0-.1-.1-.1-.1-.3h1.9c0-1.4 0-2.9 0-4.3s0-2.8 0-4.3c-1.8 0-3.4 0-5 0 0-.5-.1-1-.1-1.5.6-2.8 3.3-3.8 4.8-5.8-.1-.3-.3-.5-.3-.9.1-1.9-.6-3.3-2.3-4.1-.3-.1-.6-.4-.8-.8-.5-.9-1.1-1.1-2-.9-.9.4-1.8.1-2.5-.3-1.3-.2-2.6-.2-3.9 0 .5 1.6.6 3.1-.4 4.5-.1-.4-.3-.8-.3-1 0-1 0-2 0-2.9 0-.3 0-.6.1-.9.4-.6.4-1.1-.1-1.8-.1-.1-.3-.4-.4-.6.4-.1.5-.1.8-.3 0-.4 0-.8 0-.9-.4-.4-.6-.6-.9-.9-.4 0-.4 0-1.5.6-.1 0-.1.1-.1.3-.1.5-.1 1.1.9 1.1-.3.4-.5.5-.5.8-.1.4-.4.9-.3 1.1.8.8.1 1.6.1 2.4v1.8 1.5c-.1 0-.1 0-.3 0-.9-1.5-.8-3-.4-4.8-1 0-2 0-2.9.1-1.1.1-2.3.9-3.5.4-.4-.1-1 .1-1.1.4-.5.9-1.4 1.1-2.3 1.6-1.5.9-2 2.1-1.6 3.8.2.5.1.9.1 1.1zm22.9 20.4c-.6.5-18.9.5-19.7 0zm-19-4.7h18.4c-6.2 0-12.3 0-18.4 0zm17.4 1.6v1.4c-5.4 0-10.9 0-16.3 0 0-.5 0-.9 0-1.4zm3.6-8.6v5.5c-7.9 0-15.8 0-23.7 0 0-1.9 0-3.6 0-5.5zm-16.5-5.3c.6-.1 1.1-.1 1.5-.1 0 .5-.1 1-.1 1.5-.4 0-.9.1-1.5.3.6-.5.8-.9.1-1.7zm12.4 3.4c-.6.3-1.1.4-1.8.6 0-.1 0-.1-.1-.3.3-.1.6-.3 1-.4-3.4-1-10.2-1-13.5 0 .4.1.6.3 1 .4 0 .1 0 .1-.1.3-.6-.3-1.3-.4-1.9-.6 2.1-1.7 12.6-1.9 15.4 0zm-10.3-3.5h5c-.1.5-.3.9-.4 1.4-1.4 0-2.9 0-4.3 0 0-.5-.2-.9-.3-1.4zm7.4 1.6c-.5 0-1-.1-1.5-.1 0-.5-.1-1-.1-1.5.4 0 .9.1 1.4.1-.5.7-.7 1.2.2 1.5zm-11.2.3c-.4.1-.9.3-1 .3-.3-.5-.5-.9-.8-1.4.6-.1 1.3-.3 1.9-.4-.7.5-.7.7-.1 1.5zm13.7-.4c0 .1.1.4.3.8-.9-.1-1.5-.4-2.1-.5.4-.1.8-.4 1.3-.5-.1-.3-.3-.5-.5-.9.5.1 1.1.3 2 .4-.5.3-.6.5-1 .7zm-16.2-1.1c5.9-1.6 11.8-1.6 17.7 0-5.9-1.4-11.8-1.4-17.7 0zm18.5-3.4c.4.1.8.3 1.1.5 0 .1-.1.3-.1.4-.4-.1-.8-.1-1.1-.3-.1-.1.1-.4.1-.6zm-.8-6c-2.3.8-3.5 2.5-4.8 4.3-.2.3-.6.8-.2 1.2.3.3.6.3 1 .3h.4c-.1 1.1-1 1.5-1.6 1-.3-.1-.4-.5-.4-.9 0-.8.1-.8-.6-1 .9-2.5 4.5-5.6 6.2-4.9zm-1.6 5.1c.3.3.5.5.5.6s-.4.5-.5.4c-.3-.1-.5-.4-.6-.5.1-.1.2-.2.6-.5zm-1.3-.4c-.1-.3-.4-.4-.4-.6 0-.1.3-.5.3-.5.4 0 .6.1 1 .3v.4c-.2.1-.6.2-.9.4zm-.6-1.3c-.1-.1-.1-.1-.3-.3.8-.8 1.5-1.5 2.1-2.3.1.1.3.3.4.3-.7.8-.9 1.9-2.2 2.3zm-.2 1.8-.1.1c-.1.1-.3.3-.5.4-.3-.3-.5-.4-.5-.5s.4-.5.4-.5c.1.1.3.1.4.3.1 0 .3.1.3.2zm-2.6.3c-.1.4-.3.9-.5 1.1-.3.3-.9.1-1.1 0-.3-.1-.4-.6-.6-1 .7 0 1.4-.1 2.2-.1zm-1.1-1c.1 0 .4.3.5.4 0 .1-.3.4-.4.6-.3-.3-.5-.4-.8-.6.2-.2.5-.4.7-.4zm-2-9.2c.1-.1.4-.3.5-.4l.4.4c-.5.3-.5 1.8 0 2.3-.3 0-.5 0-.8 0h.1c.6-.6.4-2-.2-2.3zm.9 6.9c-.1.1-.1.1-.3.3-.1-.1-.5-.4-.5-.5 0-.9 0-1.8 0-2.5 0-.1.3-.4.4-.5.1.1.4.4.4.5.1.7 0 1.7 0 2.7zm.5 1c-.3.3-.5.6-.8.9-.3-.4-.6-.6-.9-.9.6-.6 1.1-.6 1.7 0zm-2.3 1c.3.3.5.5.8.6-.3.1-.5.4-.8.4-.1 0-.4-.3-.4-.5-.1 0 .2-.2.4-.5zm1.2 1.4c-.1.4-.3.9-.5 1-.3.1-.9.3-1.1 0-.3-.3-.4-.8-.5-1.3.6.2 1.2.2 2.1.3zm-6.6-5.4c1.9 1.1 3.1 2.9 4.3 4.9-.8.1-.9.5-.6 1.1 0 .3-.4.8-.6.8-.4 0-.9-.1-1.3-.3-.1-.1-.3-.5-.4-.8h.8c.8 0 1.1-.6.8-1.3-1.3-1.9-2.6-3.9-5-4.6.8-.5 1.4-.2 2 .2zm-.1 3.9c0-.1 0-.3 0-.4.3-.1.6-.3.9-.3.1 0 .4.4.4.5 0 .3-.3.5-.4.8-.3-.2-.5-.3-.9-.6zm.8 1.4c-.5.4-.6.5-.9.6-.1 0-.4-.3-.5-.4.1-.1.4-.5.5-.5s.4.2.9.3zm-1.4-4.4c.1-.1.1-.1.3-.3l2.3 2.3c-.1.1-.1.1-.3.3-1.3-.4-1.6-1.5-2.3-2.3zm2.4 4c.3-.1.5-.4.8-.5.1 0 .4.3.4.5 0 .1-.3.4-.5.6-.4-.2-.5-.3-.7-.6zm-3 2.4c1.4.6 1.9.4 2.5-1.1 1 1.3 1.8 1.4 2.9.3 1.4 1 2.3.8 2.8-.9.8 1.6 1.4 1.9 2.8.9 1.3 1.1 2 1.1 2.8-.1.4.4.5 1 1 1.3.4.3 1 0 1.8 0 .5.8.5.8 1.8.1-.6 1.1-1.3 1.1-2.1.1-1.3.4-1.6.3-2.4-.8-.5.1-1 .4-1.5.4s-.9-.4-1.5-.5c-1 .6-1.6.6-2.5-.4-.5.3-1 .6-1.5.6-.4.1-.9-.1-1.5-.3-1 .8-1.5.8-2.6 0-.9 1.1-1.3 1.3-2.5.8-.9 1-1.4 1-2.4-.3 1.6.8 1.6.8 2.1-.1zm-1.7-1.5c.1.3.3.5.1.5-.4.4-.8.5-1.5 0 .7-.3 1.1-.4 1.4-.5z"/><path d="m222.1 94.1c.6.5 1.3 1.1 1.9 1.8.4.4.9.5 1.1 1 .5.9.9 1.9 1.3 2.8v.1 1.1c-1.6 0-3.3 0-4.9 0v8.4h1.9c0 .1-.1.1-.1.3.5.4.9.9 1.4 1.3.8.5.8 1.3 0 1.8-.1.1-.3.1-.4.3-1 .8-1 2 0 2.6.6.3.6.6.6 1.3v19.1 1h1.4c0-6.8 0-13.4 0-20.1h12.4v6.4 14.2c0 .3.1.6.1.9h.4c0-7.1 0-14.3 0-21.4h1.5v1 7.5 12.5c0 .3.1.6.1.9h.4c0-7.3 0-14.5 0-21.9h2v1 20.4c0 1.3 0 1.3 1.4 1.4 0-.4 0-.6 0-1 0-7.4 0-14.8 0-22.2 0-.3 0-.8.3-.9 1.6-1.3 1.5-2-.1-3.1-.6-.5-.6-1.1 0-1.6.5-.4 1-.9 1.5-1.4 0-.1-.1-.1-.1-.3h1.8c0-2.8 0-5.5 0-8.4-1.6 0-3.4 0-4.9 0 0-.6-.1-1-.1-1.5l.1.1c.4-2.9 3-3.9 4.5-6-.1-.1-.4-.4-.6-.5.4-.3.6-.5.9-.8-.3-.3-.6-.4-.8-.6-.1-.1-.3-.4-.3-.4.4-.4.6-.6.9-.9 0-.1-.3-.5-.4-.5-.4 0-.6.3-1 .4-.1-.1-.4-.5-.8-.8-.1 0-.1-.1-.3-.1-.3-.1-.6-.3-.6-.4.1-.5.3-.8.1-1.1 0-.1-.6-.3-.6-.1-.1.3-.3.6-.4 1.1h-.3c-.3-.5-.4-1-.6-1-.3-.1-.6.3-1 .4-.3 0-.5-.1-.8 0s-.4.5-.5.6c-.3-.1-.5-.4-.5-.4.1-.5.4-.8.4-1.1 0-.1-.5-.4-.6-.4-.3.3-.4.5-.6.9-.5-.1-1.3-.3-1.9-.3-.1-.4-.1-.8-.4-1 0-.1-.6 0-.6.1-.1.4 0 .8 0 1.3-.4.3-.6-.1-.8-.5-.3-.8-.3-1.5-.5-2.3.5-.3.8-1 .4-1.4-.3-.3-.5-.4-.9-.8-.1 0-.5 0-.8 0-.1.8-1.9 1.3-.3 2-.1.8-.3 1.5-.5 2.3-.1.4-.4.9-.8.5 0-.5 0-.9 0-1.3 0-.1-.6-.1-.6-.1-.1.3-.3.6-.4 1-.1 0-.4 0-.4 0-.1-.5-.3-.8-.4-1.1 0-.1-.6.1-.6.1 0 .4 0 .6.1 1.1-.1 0-.4.1-.5.1-.3-.4-.5-.8-.8-.9-.1-.1-.6.3-.6.3.1.4.3.8.4 1.1-.1 0-.3.3-.4.4-.3-.3-.6-.5-.9-.8-.3.3-.5.6-.9 1 0-.5.4-1.3-.5-1.3-.3 0-.5.5-.8.9 0 .1.1.1.1.3-.3 0-.4 0-.4 0-.1-.4-.1-.8-.4-1 0-.1-.8.1-.8.1 0 .4.1.8.3 1.1-.1 0-.5.3-.9.4l-.1.1c-.3.3-.5.6-.6.8-.4-.1-.8-.4-1.1-.4-.1 0-.4.5-.3.6.3.3.5.5 1 .8-.1.1-.5.3-.6.5-.3.1-.5.4-.5.5 0 .3.3.4.4.6.1.1.3.1.5.1-.4.4-.8.5-1.1.9 1.3.3 1.7.4 1.8.5zm1.6.7c0-.1-.1-.3-.1-.4.4-.1.8-.3 1.1-.4 0 .3.1.4.1.6-.3 0-.7 0-1.1.2zm20.9 19.3c-.8.4-18.9.4-19.7.1.5-.4 18.5-.5 19.7-.1zm-19.1-4.8h18.3c-6.1 0-12.2 0-18.3 0zm17.3 1.6v1.4c-5.4 0-10.8 0-16.3 0 0-.5 0-.9 0-1.4zm3.6-8.6v5.5c-7.9 0-15.8 0-23.7 0 0-1.9 0-3.6 0-5.5zm-17.4-3.6c-.5.1-1.1.3-1.9.5.1-.3.1-.5.1-.8-.3-.1-.4-.4-.8-.8.8-.1 1.4-.3 1.9-.4-.1.3-.3.6-.5.9.5.3.8.4 1.2.6zm1-1.7c3-.4 6.1-.3 9.2 0-.1.4-.4.6-.4.9s.4.4.8.6c-.6-.1-1.3-.1-1.6-.1-.1-.5-.3-.9-.4-1.3 0-.1-.5-.1-.5 0-.3.4-.4.8-.5 1.1-1.4 0-2.9 0-4.3 0-.1-.4-.4-.8-.5-1.1 0 0-.4 0-.5.1-.1.4-.3.8-.4 1.3-.3 0-.9.1-1.5.3.4-.3.6-.4.8-.6.2-.4-.1-.8-.2-1.2zm12.3 3.3c-.5.1-1.1.4-1.6.5 0-.1 0-.1-.1-.3.3-.1.5-.3.9-.3-2.8-1-9.4-1.1-13.5 0 .4.1.6.3.9.4 0 .1-.1.1-.1.3-.6-.3-1.1-.4-1.9-.6 2.2-1.6 12.9-1.8 15.4 0zm-.2-2c0 .3.1.4.1.8-.8-.1-1.4-.4-2-.5.4-.1.9-.3 1.3-.4-.1-.3-.3-.6-.4-.9.5.1 1.1.3 2 .4-.5.3-.8.5-1 .6zm-16.4-.9c1.8-1.9 15.3-1.9 17.8 0-6-1.5-11.7-1.5-17.8 0zm19.6-2.6c-.4-.1-.8-.1-1.1-.3 0-.3.1-.4.1-.6.4.1.8.3 1.1.4-.1.2-.1.3-.1.5zm.5-3.7c-1-.9-2.5-.5-3.8-1.4 1.7-.7 3.1-.2 3.8 1.4zm-3.5 2.5c0 .1-.4.5-.4.5-.3-.1-.5-.4-.8-.5.3-.1.4-.3.8-.5.2.2.4.3.4.5zm-.9-2c0 .1 0 .3.1.4-.3.3-.6.5-.9.6-.3-.3-.4-.6-.6-.9.1-.1.1-.3.3-.4.4.1.7.2 1.1.3zm-3.9-3.5c1.3-.1 2.4.4 2.8 1.4-1.3 0-2.5-.1-3.8-.1-.1-.9 0-1.2 1-1.3zm2.3 5c-.1.1-.4.3-.6.5-.3-.3-.5-.4-.5-.5s.4-.5.4-.5c.2.2.4.3.7.5zm-3.8-.7c.1 0 .4.3.6.5-.4.1-.6.4-.8.4-.3-.1-.4-.3-.6-.5.3-.2.6-.4.8-.4zm-1.6-4.5h.3c.5 1.1.4 2.3-.5 2.3.1-.8.2-1.6.2-2.3zm.3 2.7c.3 0 .6.4.6.5 0 .4-.3.6-.5 1-.1 0-.3 0-.4 0-.1-.4-.5-.6-.5-1 .1-.1.5-.5.8-.5zm-1.6 1.5c.4.3.6.4.8.6-.3.1-.4.4-.6.5-.1 0-.5-.3-.5-.4 0-.2.2-.3.3-.7zm-.7-3.7c.3.1.3.6.4 1-1.5.1-2.8.1-4 .3.6-1.3 2.5-2.1 3.6-1.3zm-4 4.4c-.3-.4-.4-.6-.6-1 .5-.1.9-.3 1.4-.4 0 .4 0 .5-.1.6-.1.9.1 1 .9.8h.1s.1 0 .1.1l.1.1.1.1-.1.1c-.1.1-.3.4-.4.4-.8 0-1 .4-1 .9s1 1.1 1.5.9c.4-.1.8-.4 1.1-.6-.1 0-.3-.1-.3-.1 0-.4 0-.9 0-1.3h.5c.1.4.1.9.1 1.5.8.8 1.6.6 2.3-.6.5.4 1.1.8 1.6 1 .3.1.8-.3 1.1-.4-.1-.1-.1-.1-.3-.3 0-.4.1-.9.3-1.3h.5c0 .4 0 .9-.1 1.3.6 1.3 1.4 1.3 2.5 0 .4.4.6.9 1 1.1.4.3.9 0 1 0 .1-.4.3-.8.4-1 0-.1.1-.3.1-.4v-.1h.1.1c.1 0 .3.1.3.1-.1.4-.3.8-.4 1.4.3.6.3.6 1.8 0-.5 1.1-1.4 1.1-2.1.3-1.4.4-1.8.3-2.5-.9-1.1.8-1.8.8-2.8 0-1.4.6-1.8.6-2.8-.3-1.1.9-1.6 1-2.8.3-.9.8-1.8 1-2.8.1-.9 1.1-1.3 1.3-2.5.9-.8 1-1.5.9-2.3-.3.6.1 1.4 1 1.8-.1-.1-.4-.3-.9-.3-1.3l.5-.1c.1.4.3.8.5 1.4.5.4 1.4.3 1.8-.5.1-.3.1-.8 0-.9-.3-.1-.6-.3-1-.3-.3 0-.5 0-.6 0s-.1-.4 0-.5.4-.1.5-.3c1.2-.2 1.4-.3 1.7-.4zm-1.3-3c-.3.3-.5.5-.6.5-.5.1-1.1.1-1.6.4-.5.1-1 .4-1.5.6.5-1.7 2-2.3 3.7-1.5z"/><path d="m79.8 224.4c0-1.5 0-3 0-4.6 0-.8 0-1.5 0-2.1-.9-.3-1.6-.4-2.1-.8-1-.8-1.1-1.8-.8-2.9.3-.8.1-1.3-.6-1.6-.4-.1-.8-.1-1.1-.1-6 0-11.9 0-17.9 0-.3 0-.6 0-.9 0-.8.1-1.1.8-1 1.5 0 .3.1.5.3.9.3 1.3-.6 2.6-1.9 2.8-.4 0-.8.1-1.1.1v6.8c0 .6-.1.9-.8 1-1.1.3-2.3.5-3.5.8v14.8c1.6 0 3.1-.3 4.5-.9 3-1.5 6-1.5 9 0 2.9 1.4 5.8 1.3 8.5 0 3-1.4 6-1.5 9 0 1.4.8 2.9 1 4.5.9 0-5 0-9.9 0-14.8-1.3-.3-2.4-.5-3.5-.8-.4-.1-.6-.3-.6-1zm-22.6-9.2h17.9c.3.8.5 1.5.8 2.3-6.5 0-12.9 0-19.4 0 .2-.8.5-1.6.7-2.3zm-3.3 3.8h24.3v5.5c-8.2 0-16.2 0-24.3 0 0-1.8 0-3.6 0-5.5zm29.6 18.7c-1.4-.4-2.6-.6-3.8-1.1-3.1-1.5-6.3-1.5-9.4 0-2.8 1.3-5.5 1.3-8.2 0-3.1-1.5-6.3-1.5-9.4 0-1.1.5-2.4.8-3.8 1.1 0-1 0-1.8 0-2.3 2.4-.8 4.6-1.6 6.9-2.1 2-.5 4-.1 5.9.8 3 1.5 5.9 1.4 8.9 0 2.9-1.4 5.8-1.3 8.7 0 1.3.6 2.8.9 4.1 1.3v2.3zm0-6c-1.4 0-2.6-.3-3.8-.9-3.1-1.6-6.3-1.5-9.5 0-2.8 1.3-5.5 1.3-8.2 0-3.1-1.5-6.1-1.5-9.3 0-1.1.5-2.5.8-3.9 1.1 0-1 0-1.8 0-2.3 1.8-.6 3.4-1.3 5.1-1.8 2.6-.9 5.1-.9 7.6.4 3 1.5 6 1.4 9 0 2.5-1.3 5-1.3 7.6-.4 1.6.6 3.4 1.1 5.1 1.8v2.1z"/><path d="m248.2 224.4c0-1.1 0-2.4 0-3.5s0-2.1 0-3.3c-.3 0-.4 0-.4-.1-2.4-.3-3-1.3-2.4-3.6.1-.4 0-1-.3-1.1-.4-.3-1-.5-1.5-.5-6 0-12 0-18.1 0-1.6 0-2 .5-1.6 2.1s-.5 2.9-2.1 3.1c-.3 0-.5.1-.9.1v6.8c0 .6-.3 1-.8 1.1-1.1.3-2.3.5-3.4.6v14.9c1.6 0 3.1-.3 4.5-.9 3-1.5 6-1.4 9 0 2.9 1.4 5.8 1.4 8.5 0 3-1.4 6-1.5 9 0 1.4.8 2.9 1 4.5.9 0-5 0-9.9 0-14.8-1.3-.3-2.4-.5-3.5-.8-.3-.1-.5-.5-.5-1zm-22.7-8.9c.1-.3.5-.4.8-.4h7 9.8c.5 0 .8.1.9.8.1.5.4 1 .6 1.6-6.5 0-13 0-19.4 0-.1-.7 0-1.3.3-2zm-3 3.5h24.3v5.5c-8.2 0-16.2 0-24.3 0 0-1.8 0-3.7 0-5.5zm29.5 18.7c-1.4-.4-2.6-.6-3.9-1.3-3.1-1.4-6.1-1.4-9.3 0-2.8 1.3-5.5 1.3-8.3 0-3.1-1.5-6.3-1.5-9.4 0-1.1.5-2.4.8-3.8 1.1 0-1 0-1.8 0-2.3 2.4-.8 4.6-1.6 6.9-2.1 2-.5 3.9-.1 5.8.8 3 1.5 6 1.5 9.2 0 2.9-1.4 5.6-1.3 8.5 0 1.3.6 2.8.9 4.1 1.4.2.7.2 1.4.2 2.4zm0-6c-1.4 0-2.6-.3-3.9-.9-3-1.5-6.1-1.5-9.3 0-2.8 1.3-5.5 1.3-8.4 0-3.1-1.5-6.1-1.4-9.3 0-1.1.5-2.5.8-3.8 1.1 0-1 0-1.8 0-2.3 1.8-.6 3.4-1.3 5-1.8 2.6-.9 5.1-.9 7.6.4 3.1 1.5 6.1 1.5 9.3 0 2.6-1.3 5.3-1.1 7.9-.1 1.5.6 3 1 4.6 1.6.3.5.3 1.1.3 2z"/><path d="m253.2 180.4c-3.1-2.3-6.8-3.6-10.3-5.1-8.5-3.6-16.9-7.3-24.1-13.4-.3 2.3-.4 4.4-.8 6.6-.1.9.3 1.6.9 2.1 1.4 1.3 2.9 2.5 4.4 3.6 5.8 4.1 12.2 7 18.7 9.4 3 1.1 6 2.4 8.8 4.3.8.5 1.5 1.1 2.3 1.6.1-.3.1-.4.1-.5.4-1.9.6-3.9 1-5.8.5-1.3 0-2-1-2.8z"/><path d="m76.6 174.7c1.9-1.4 3.6-3 5.5-4.5.4-.3.6-.9.6-1.4 0-1.1-.1-2.3-.3-3.4-.1-1.1-.3-2.4-.4-3.5-1.4 1-2.5 2.1-3.8 3-5.3 3.8-11.2 6.4-17.1 9-3.5 1.6-7 3-10.5 4.6-1.4.6-2.5 1.6-3.6 2.5-.4.3-.5.9-.5 1.3.4 2.3.8 4.6 1.3 7 .1 0 .3 0 .3-.1 3.1-2.6 6.6-4.3 10.4-5.6 6.2-2.2 12.5-4.9 18.1-8.9z"/><path d="m56.2 187.3v23.8 1h1.1 17.7c.9 0 1.1-.1 1.1-1.1 0-11 0-22.1 0-33.1 0-.3 0-.5 0-1-1 .4-1.5.9-1.5 2v30.6 1.1c-.8 0-1.4 0-2.1 0 0-10.5 0-21.1 0-31.5-.1 0-.3 0-.3 0 0 .4-.1.6-.1 1v29.5 1c-.5 0-1 0-1.5 0 0-10.2 0-20.3 0-30.5-.1 0-.3 0-.3 0 0 .4-.1.6-.1 1v28.3 1c-4.1 0-8.2 0-12.4 0 0-8.4 0-16.7 0-25-1.6.7-1.6.7-1.6 1.9z"/><path d="m224.7 177.2v35h19.8c0-.4 0-.8 0-1.1 0-7.9 0-15.8 0-23.7 0-1.4 0-1.4-1.5-1.6v25c-.8 0-1.3 0-2 0 0-.4 0-.6 0-1 0-4 0-8 0-12s0-8.2 0-12.2c0-.3-.1-.6-.1-.9-.1 0-.3 0-.4 0v26c-.5 0-1 0-1.5 0 0-.4 0-.6 0-1 0-6.3 0-12.5 0-18.9 0-2 0-4.1 0-6.1 0-.3-.1-.5-.3-.8-.1 0-.3 0-.4 0v26.7c-4.1 0-8.3 0-12.4 0 0-.4 0-.8 0-1.1 0-10.3 0-20.6 0-30.7.2-1.1.1-1.3-1.2-1.6z"/><path d="m243.2 152.2v.9 19.4c0 1.3 0 1.3 1.4 1.6 0-3.8 0-7.5 0-11.3.6-.1 1.3-.1 1.8-.3 1.8-.4 3.5-.6 4.9-1.9 1-.9 1.3-1.8.5-2.9-.8-1.4-2-2.3-3.4-3-.3-.1-.6-.1-.9 0-1 .1-1.9.1-2.9.3 0-.5 0-.9 0-1.4 0-1.1 0-1.1-1.4-1.4z"/><path d="m53.3 155c-.4 0-.8 0-1 .1-1 .9-2.1 1.6-3 2.6-1.1 1.3-.9 2.5.5 3.4.5.3.9.6 1.4.8 1.6.5 3.3.9 4.9 1.3v11c1.4-.3 1.4-.3 1.4-1.5 0-6.4 0-12.9 0-19.3 0-.4 0-.6 0-1-1.4.3-1.5.3-1.4 1.5v1.4c-.9-.2-1.8-.3-2.8-.3z"/><path d="m74.8 148.9v16.4c2.5-1.9 5.3-3.3 6.9-5.9-1.8-1.3-3.6-1.6-5.6-2.1 0-2.8 0-5.6 0-8.4-.6 0-1 0-1.3 0z"/><path d="m224 157.6c-1.3.4-2.5.8-3.8 1.3-.4.1-.6.4-1 .6 1.8 2.6 4.4 4.1 6.9 5.9 0-5.6 0-11 0-16.4-.5 0-.9 0-1.4 0v1 6.6c.2.6-.1.9-.7 1z"/><path d="m49.1 192.7c1.4.9 2.5 2 3.1 3.6 1.5-2.3.9-6-1.3-7.6-.9.8-1.8 1.5-2.6 2.3-.5.4-.5.9.1 1.3.3.2.4.3.7.4z"/><path d="m249.7 188.7c-2.1 2.1-2.6 5.3-1.1 7.8.8-1.9 2.1-3 3.6-4 .1-.1.4-.3.4-.4.1-.3.1-.5 0-.6-.9-1-1.9-1.9-2.9-2.8z"/><path d="m240.7 151.2c0 .1-.1.3-.1.3v20.5.1c.1.1.3.3.4.5.4-2.8.2-20.9-.3-21.4z"/><path d="m239 171.8c0-6.8 0-13.7 0-20.4 0-.1-.1-.4-.3-.5-.1 0-.1.1-.3.1v20.4c0 .3.3.4.4.8.2-.4.2-.4.2-.4z"/><path d="m70.4 167.6c0-6.1 0-12.3 0-18.6-.5.4-.8 17.2-.4 18.8.3 0 .4 0 .4-.2z"/><path d="m72.1 149.1v17.6h.3c.1-.4.3-.6.3-1 0-5.4 0-10.7 0-16.1 0-.3 0-.5 0-.8-.4.3-.6.3-.6.3z"/><path d="m238.7 87.4c.3 0 .4-.3.9-.5-.4-.3-.6-.6-.8-.6-.3.1-.4.4-.6.6.1.1.2.5.5.5z"/><path d="m246.1 89.4c.3-.1.5-.4.5-.6s-.4-.5-.5-.5c-.3 0-.5.3-.6.5-.1.1 0 .4 0 .5.1 0 .1.1.3.1-.1 0 .1.1.3 0z"/><path d="m223.5 88.4c0-.1-.5 0-.6.1s-.3.6-.1.6c.3.1.5.3.9.3l.1-.1c-.2-.4-.2-.7-.3-.9z"/><path d="m159.3 115c.4 1 1 1.5 1.8 2 .1.1.3.3.3.5-2.4.1-3.6 1.4-3.3 3 .6-.6 1.4-.5 2.1-.4.5.1 1 .1 1.4-.1.5-.1.9-.1 1.1.4.4.6.9 1.3 1.3 1.9-.5.3-1.1.5-1.8.8 1 .4 2 .6 3.1 1-.6.4-1 .6-1.5 1 1.3.4 2.5.6 3.5 1.1 1 .6 1.9 1.5 2.9 2.4-1.1.9-2.1 1.6-3.3 2.3-.9.6-2.5.8-2.9.1-.5-.8-1-1-1.8-1.1-1.3-.3-1.8-.1-2.4 1 .5.1 1.4.3 1.5.5.3.9.9 1.1 1.5 1.4.1 0 .1.3.3.3-.8.3-1.4.5-2 .8-1 .3-1.5.9-1.5 1.8.6 0 1.1-.1 1.6 0 .6.1 1.1.3 1.6 0 .1-.1.4 0 .6-.1-1 1.8-.3 3.8 1.1 3.8.1-.6.3-1.4.5-1.9.4-.5.6-1 .5-1.6-.1-.5.1-.9.6-1 .9-.1 1.6-.4 2.5-.6 0 .5-.1 1-.1 1.8 1-1 2-1.9 2.9-2.8v1.5c.9-1.4 1.8-2.5 3.3-2.8.9 3.5 3.9 5 6.9 6.6-.4.1-.6.3-.8.3-1.4.1-2.8.1-4.1.1-.8 0-1.4.3-1.9.9-1.3 1.5-1 3.3-.6 5 0 .1.3.3.4.5.1-.6.3-1.1.4-1.6h.3v2.6h.1c.3-.4.5-.8.6-1.1.3.6.3 1.3.3 1.9 0 .1-.1.4-.3.5-1.1.6-3 .3-3.5-1-.4-.8-.4-1.4-1.5-1.6-1.1-.3-1.8-.4-2.6.6.3 0 .6 0 .8.1.6.9 1.1 1.8 1.9 2.6-3.9.1-4.3.9-4.1 2.5 1-.8 1.6-.8 2.4-.1.5.4.8.4 1.1 0 .3-.1.5-.1.8-.3-.1.9-.1 1.5-.3 2.1-.1 1.1.1 1.6 1.3 1.9-.3-.9.1-1.5 1-1.9.1-.1.3-.4.4-.6 0-.9.4-1.1 1.3-.9.6.1 1.3.3 1.9.3.5.1 1 .1 1.5.3.5 0 1 .1 1.4 0 .6-.4.9-1 .8-1.8-.1-.5-.3-1-.4-1.5-.1-1-.4-2.1-.5-3.1 0-.5.3-.9.8-.9.8 0 1.6.1 2.4.1-.9 3.1.4 6.3 2.6 7-.1-.5-.1-1.1-.3-1.6.4.3.5.5.8.8s.5.5.8.9c.1-.6.1-1.1.1-1.8.4.4.9.5 1 .9.3.5.5 1.1.4 1.8-.1.4-.8.9-1.1.9-.8 0-1.6-.5-2.3.5 0 0-.1 0-.3 0-1.1.1-1.6.8-1.8 1.8.5-.1 1.1-.4 1.8-.3.8.1 1.4.6 2.1.4 0 0 .1.1.4.3-1.1.3-1.5 1-1.8 1.9-.3 1-.3 1.6.5 2.3.3-.4.4-1.1.6-1.1 1.1-.1 1.4-.9 1.6-1.8h.1c0 .1 0 .3.1.3.3.9.5 1.8.9 2.5.3.4.9.6 1.3 1l.1-.1c-.3-.8-.6-1.5.1-2.1.8-.5.4-.9.3-1.4-.3-.6-.6-1.5-.4-2.1.4-1.4 1-2.8 1.6-4 .5-.9.9-1.6 0-2.5-.4-.4-.5-.9-1.1-.9-.3 0-.5-.3-.8-.4-1.3-1-1.5-2.9-.9-4.6.4-1 1-1.6 2.1-1.9 2-.3 3.6-1.1 4.3-3.1.6-1.6.8-3.3.3-4.9-.4-1.3-.8-2.6-1.4-3.9-.8-1.9-1.1-3.8-1.1-5.9 0-1.1.4-2 1.4-2.5.9-.5 1.4-1.4 1.8-2.4s1-1.9 1.5-2.8c.3-.4.5-.6.8-1-.8 0-1.3.1-2 .1 1.4-1.5 2.5-3.1 2.3-5.1-1.3 1-2.5 1.9-3.8 2.9-.4-.8-.6-1.4-.9-2-.4 1.4-.8 2.6-1.3 3.9-.6 1.5-1 3-1 4.8 0 1.1-.1 2.3-.1 3.4 0 .5-.1.9-.1 1.4-.1 2.1.5 4.1.9 6.3.4 1.6.8 3.3.9 5 .1 2-1 3.1-2.8 3.4-1.5.3-2.9-.1-3.9-1.3-1.5-1.6-2.8-3.5-3.4-5.8-.3-.9-.5-1.9-.8-2.8.1 0 .1-.1.3-.1.4.5.8.9 1.4 1.5 0-1.8 0-3.3 0-5 .6.6 1.3 1.4 2 2.3 0-1.3 0-2.3 0-3.4.3.1.6.3.9.5.3.3.5.5.8.9.1-1.3-.1-2.1-.9-2.9s-1.1-1.6-1-2.9c.5.4.9.6 1.3.8-.1-1.5-.1-3.1-.3-4.8 0-.5.1-.8.6-1 1.4-.6 2.6-.6 4-.3 0-1-.3-1.4-1.1-1.1-.3-.3-.4-.5-.6-.5-.3 0-.5.1-.8.4-.3.1-.4.4-.5.5l-.3-.3c.1-.3.4-.5.5-.6.4-.3.8-1.8.4-2.1-.1-.1-.3-.3-.4-.3-.5 0-1 .1-1.5.3-.4.4-.4.8.3 1.1-.4 0-.6.1-.8 0-.4-.4-.6-.9-1.1-1.4.8.1 1.1.1 1.6.1 0-.3 0-.5 0-.8s0-.5 0-.8c0-.5-.5-1-.9-.9-.5.1-.9.3-1.5.4 0-.5 0-1-.1-1.4 0-.5-.6-.9-1.1-.6-.5.4-1.5.3-1.4 1.3 0 0-.4.1-.5.1 0-.1.1-.4.1-.5.1-.3.4-.5.4-.6-.4-.6-.9-1.3-1.4-1.8-.1-.1-.5 0-.8 0 .8 1.4 1 2.6.8 4-.1.5-.3.9-.9 1-.4.1-.9.4-1 .6-.4.8-1 .9-1.6.9s-1.3.1-1.9.3-1.1.5-.8 1.3.6 1.5 1 2.3c.3-.1.5-.3.9-.4.1.3.3.5.3.6.4-.1.8-.4 1.1-.4.1 0 .3.5.5.8-2.6.3-3.9-.3-6-2.1-1.1-1.1-2.8-1.1-3.9-.4.6.5 1.4 1.1 1.9 1.8 1.1 1.4 2.5 2.1 4.3 1.9h1.1c.8 0 1.5.1 2.4.3-.6 1-1.1.9-1.8.3-.3.3-.4.4-.5.5-.3-.3-.4-.4-.5-.5-.1.3-.3.5-.5.6-.8.8-.8.8.1 1.5 1.1.9 1 1.5-.3 2-.3.1-.5.1-.8.1-.9 0-1.9 0-2.8.1-1 .1-1.8-.1-2.5-.6-1.1-.8-2.4-1.5-3.5-2.1-1.6-.9-2-2.5-1-4 .6-.9.4-2.9-.4-3.6-.3-.3-.5-.4-1-.6.4 1 .4 1.9-.4 2.3-.5.3-.5.6-.5 1.1 0 .4-.1.9-.1 1.3-.5-.4-.8-.8-1-1-.3-.3-.8-.3-1.1-.4-.1 0-.1-.1-.3-.1-1-.6-2.1-.3-2.6.6 1-.4 1.9-.4 2 0zm26.6-6.7c.1.3.4.6.6 1-.4.3-.6.4-.9-.3 0-.1-.3-.1-.3-.1-.3-.1-.4-.3-.5-.5.4-.1.8-.1 1.1-.1zm-3.2 4.2c-.8-.4-1.9-.1-2.1-1.4 1.1 0 1.8.3 2.1 1.4z"/><path d="m188.5 110.1c0-.3 0-.5 0-.8z"/><path d="m160.5 155.3c-5.4-7-14.3-7.1-19.7-.3-2.6 3.4-3.8 7.4-3.9 11.7 0 4.3 1.3 8.3 3.9 11.7 4.9 6.3 13.2 6.8 18.6 1 5.9-6.1 6.4-17.2 1.1-24.1zm-1.6 22.6c-5.1 5.8-12.8 5.4-17.3-.9-2.3-3.1-3.1-6.5-3.3-10.8.1-4.1 1.4-8.3 4.5-11.5 4.5-4.6 10.9-4.5 15.4 0 5.9 5.9 6.1 17.1.7 23.2z"/><path d="m150.3 83.6c-1.1 0-2.3 0-3.4 0h-.1c-1.3 0-2.1.8-2.1 1.9s.9 1.9 2.1 2h7.1c1.3 0 2.1-.9 2-2 0-1.1-.9-1.9-2-1.9-1.3 0-2.4 0-3.6 0zm4 1.6c.1.1.3.3.3.3s-.1 0-.1.1c-.1.1-.3.3-.4.4s-.3.1-.3.1c-2.3 0-4.6 0-6.9 0-.3 0-.5-.4-.9-.6.3-.1.5-.5.9-.5h2.6.9.9 2.5c.1 0 .2.1.5.2z"/><path d="m134.1 84.4c-1.9.1-3.8.4-5.5.6-1.1.1-1.8 1.1-1.6 2.1.1 1 1 1.8 2.3 1.8 1.6-.3 3.5-.4 5.3-.6 1.1-.1 1.9-1.1 1.8-2.1-.4-1.1-1.2-2-2.3-1.8zm.1 2.3c-1.8.3-3.5.5-5.3.6-.3 0-.5-.3-.8-.5.3-.3.4-.6.6-.6 1-.3 2.1-.3 3.3-.4.5-.1 1.1-.1 1.5-.1.3 0 .5-.1.5 0 .3.1.4.3.6.5 0 .2-.1.5-.4.5z"/><path d="m166.3 88.2c1.6.3 3.3.5 4.9.6 1.3.1 2.3-.5 2.4-1.6s-.5-2-1.9-2.3c-1.6-.3-3.4-.4-4.8-.6-1.5-.1-2.4.6-2.5 1.6-.1 1.3.7 2.1 1.9 2.3zm.1-2.5c1.9.3 3.5.4 5.1.6.3 0 .5.4.6.6-.3.1-.6.4-.9.4-1.6-.1-3.3-.4-4.8-.6-.3 0-.5-.4-.8-.6.5-.1.7-.2.8-.4z"/><path d="m178.6 90c1 0 1.9-.9 1.9-2 0-1-.9-1.9-1.9-1.9s-1.9.9-1.9 2c-.1 1.2.8 1.9 1.9 1.9zm-.1-2.6c.3.4.5.6.5.8 0 .3-.3.4-.5.5-.1-.1-.5-.4-.5-.5 0-.3.2-.5.5-.8z"/><path d="m159.9 87.7c1.1 0 2-.9 1.9-1.9 0-1-.9-1.9-1.9-1.9s-1.9.9-1.9 1.9c-.1.9.8 1.9 1.9 1.9zm0-2.5c.3 0 .4.3.8.5-.4.3-.6.5-.8.5-.3 0-.4-.3-.5-.5.1-.1.3-.3.5-.5z"/><path d="m140.6 83.9c-1 0-1.9.9-1.9 1.9 0 1.1.9 1.9 2 1.9 1 0 1.9-.9 1.9-1.9s-.9-1.9-2-1.9zm0 2.3c-.3 0-.4-.3-.5-.5.1-.1.4-.5.5-.5.3 0 .4.3.8.5-.3.3-.5.5-.8.5z"/><path d="m122 86.1c-1 0-1.9.9-1.9 2 0 1 .9 1.9 1.9 1.9s2-.9 2-1.9c-.1-1-1-2-2-2zm0 2.5c-.1 0-.5-.3-.5-.5s.3-.5.5-.5c.1 0 .4.3.8.5-.4.1-.5.5-.8.5z"/><path d="m239.7 141.5c-.3 1-.4 1.9-.6 2.8 1.3.4 2 .1 2.3-1 .3-.9-.1-1.4-1.7-1.8z"/><path d="m54.6 143.7c.4.9.8 1.8 1 2.6 1.3-.5 1.8-1.3 1.3-2.3-.4-.8-1.1-1-2.3-.3z"/><path d="m249.2 149.4c.1-.9.1-1.8.3-2.6-.9.6-1.5 1-2.3 1.5.7.4 1.4.8 2 1.1z"/><path d="m67.2 97c-.8 0-1.4 0-2.1 0-.3 0-.4.4-.5.5l.5.5c.4.1.8 0 1.1.1.4 0 .8.1 1 0 .3 0 .4-.4.5-.5-.1-.2-.2-.6-.5-.6z"/><path d="m233.4 97.9.3.3c.4.1.6 0 1 0s.8.1 1 0c.3 0 .4-.4.6-.5-.3-.3-.4-.5-.6-.5-.6-.1-1.4-.1-2 0-.1 0-.3.3-.4.4l-.1.1s0 0 .1.1c0-.1 0 0 .1.1z"/><path d="m233.4 97.9c-.1-.1-.1-.1-.3-.3.2.1.2.2.3.3z"/><path d="m233.1 97.7c0-.2 0 0 0 0z"/><path d="m145.9 167.1c.5 0 .9-.1 1.3-.1 0-.5 0-1 0-1.6-.6 0-1.1 0-1.9-.1.4-.5.6-1 .9-1.1.5-.1 1.1 0 1.8.1.4-.8 1.1-1.6.3-2.8-.8-.9-1.6-.6-2.4-.3 0-1 .1-2 0-3s-.8-1.9-1.4-2.6c-1.5 1.8-1.9 3.5-1.1 5.8-1.4-.6-2.1-.6-2.6 0-.6.8-.5 1.6.3 2.8.6 0 1.3-.3 1.8-.1.4.1.5.6 1 1.1-.9 0-1.4.1-1.9.1v1.6c.4 0 .8 0 1.3.1-.3.5-.4 1-.6 1.5.5-.1.8-.3 1-.4l1 1c.5-.8 1-1.4 2-.6-.5-.5-.7-.9-.8-1.4z"/><path d="m158.2 164.2c.5-.1 1.1 0 1.8.1.3-.8 1.1-1.6.3-2.8-.8-.9-1.6-.6-2.6-.1.8-2.3.4-4.1-1.1-5.8-1.5 1.6-1.9 3.6-1 5.8-1.4-.6-2.1-.6-2.6.1-.6.8-.5 1.6.4 2.9 1.3-.8 2.1-.5 2.3.9-.5 0-1 0-1.5.1v1.6c.4 0 .8 0 1.3.1-.3.5-.4 1-.6 1.4 1.1-.9 1.4.4 1.9.8.3-.3.5-.8.9-.9.3-.1.8.1 1.1.1-.3-.5-.4-.9-.6-1.4.5 0 .9-.1 1.3-.1 0-.5 0-1 0-1.6-.5 0-1 0-1.5 0 0-.1-.1-.1-.1-.3-.2-.2 0-.7.3-.9z"/><path d="m151.6 172.5c.8-2.3.4-4.1-1.1-5.8-1.5 1.6-1.8 3.6-1 5.8-1.3-.8-2-.8-2.5-.1-.8.8-.6 1.5.1 2.9.8 0 1.3-.1 1.9 0 .3.1.5.6.9 1.1-.8 0-1.3.1-1.8.1v1.5c.4 0 .8 0 1.3.1-.3.5-.4 1-.6 1.8 1.1-.9 1.5-.1 2 .5.5-.6 1-1.4 2.1-.5-.4-.8-.5-1.3-.8-1.8.5 0 .9 0 1.3-.1 0-.5 0-1 0-1.5-.5 0-1-.1-1.5-.1.3-1.4 1-1.6 2.4-.9.5-.9 1.3-1.8.4-2.9-1.2-1-2.1-.7-3.1-.1z"/><path d="m73.6 271.8h3.4v25.6h-3.6v-19.9l-7.9 9.9h-.6l-7.9-9.9v19.8h-3.6v-25.6h3.5l8.5 10.5z"/><path d="m82.5 271.8h3.6v25.6h-3.6z"/><path d="m112.1 271.8h3.5v25.6h-3.1l-17.1-19.7v19.7h-3.4v-25.6h3l17.2 19.8v-19.8z"/><path d="m121.1 271.8h3.6v25.6h-3.6z"/><path d="m136.8 286.7-2.8-1.6c-1.8-1-3-2.1-3.8-3.1s-1.1-2.3-1.1-3.5c0-2 .8-3.6 2.1-4.9 1.4-1.3 3.3-1.9 5.4-1.9s4.1.6 5.9 1.8v4.1c-1.9-1.8-3.8-2.6-5.9-2.6-1.3 0-2.1.3-2.9.9-.8.5-1.1 1.3-1.1 2.1s.3 1.5.9 2.1 1.5 1.4 2.8 2.1l2.8 1.6c3.1 1.9 4.6 4.3 4.6 7.1 0 2-.6 3.8-2 5-1.4 1.3-3.1 1.9-5.4 1.9-2.5 0-4.8-.8-6.9-2.4v-4.6c2 2.5 4.3 3.8 6.9 3.8 1.1 0 2.1-.4 2.9-1s1.1-1.4 1.1-2.4c-.1-1.7-1.3-3.1-3.5-4.5z"/><path d="m145.4 271.8h21.3v3.3h-8.9v22.3h-3.6v-22.4h-8.8z"/><path d="m170.1 271.8h14.4v3.3h-10.8v7.8h10.4v3.3h-10.4v7.9h11.2v3.3h-14.8z"/><path d="m188.9 297.4v-25.6h6.4c2.6 0 4.6.6 6.1 1.9s2.3 3 2.3 5.1c0 1.5-.4 2.8-1.1 3.9-.8 1.1-1.8 1.9-3.3 2.4.9.5 1.6 1.3 2.4 2.1s1.9 2.5 3.3 4.9c.9 1.5 1.6 2.5 2.1 3.3l1.4 1.9h-4.1l-1.1-1.6s-.1-.1-.3-.3l-.8-1-1.1-1.9-1.3-2c-.8-1-1.5-1.9-2.1-2.5s-1.3-1.1-1.8-1.4-1.4-.4-2.5-.4h-1v11.2zm4.8-22.5h-1.1v8h1.4c1.9 0 3.1-.1 3.8-.5s1.3-.8 1.6-1.4.6-1.4.6-2.1-.3-1.5-.6-2.1-1-1.1-1.8-1.4c-.8-.4-2-.5-3.9-.5z"/><path d="m211.5 271.8h3.6v25.6h-3.6z"/><path d="m233.3 271.4c3.9 0 7.3 1.3 9.9 3.8s3.9 5.6 3.9 9.4-1.4 6.9-4 9.4-6 3.8-10 3.8c-3.9 0-7-1.3-9.7-3.8-2.5-2.5-3.9-5.5-3.9-9.3s1.3-7 3.9-9.4c2.8-2.6 6.1-3.9 9.9-3.9zm.2 3.5c-2.9 0-5.3.9-7.1 2.8-1.9 1.9-2.8 4.1-2.8 7 0 2.8 1 5 2.9 6.9s4.3 2.8 7 2.8c2.9 0 5.3-.9 7.1-2.8 1.9-1.9 2.9-4.1 2.9-7 0-2.8-1-5-2.9-6.8-2-2-4.2-2.9-7.1-2.9z"/><path d="m28.7 336.2v-25.5h8.7c3.5 0 6.3.5 8.3 1.5s3.6 2.6 4.8 4.6c1.3 2 1.8 4.3 1.8 6.6 0 1.8-.4 3.4-1 4.9s-1.6 2.9-2.8 4.1c-1.3 1.3-2.6 2.1-4.4 2.8-1 .4-1.9.6-2.6.8-.8.1-2.4.3-4.6.3h-8zm8.3-22.2h-4.5v19h4.6c1.9 0 3.3-.1 4.3-.4s1.9-.6 2.5-1 1.3-.9 1.9-1.4c1.8-1.9 2.8-4.1 2.8-6.9s-.9-5-2.8-6.6c-.6-.6-1.5-1.1-2.4-1.6-.9-.4-1.8-.6-2.5-.9-.9 0-2.1-.2-3.9-.2z"/><path d="m56.8 310.8h14.4v3.3h-10.7v7.8h10.4v3.3h-10.4v7.9h11.2v3.3h-14.9z"/><path d="m108 330.3v4c-2.6 1.5-5.8 2.1-9.3 2.1-2.9 0-5.3-.6-7.3-1.8-2-1.1-3.5-2.8-4.8-4.8-1.1-2-1.8-4.1-1.8-6.5 0-3.8 1.4-6.9 4-9.4s5.9-3.8 9.8-3.8c2.6 0 5.6.8 8.9 2.1v3.9c-3-1.8-5.9-2.5-8.8-2.5s-5.4.9-7.3 2.8-2.9 4.1-2.9 6.9 1 5.1 2.9 6.9 4.4 2.8 7.3 2.8c3.3.2 6.3-.7 9.3-2.7z"/><path d="m124.9 310.4c3.9 0 7.3 1.3 9.9 3.8s3.9 5.6 3.9 9.4-1.4 6.9-4 9.4-6 3.8-10 3.8c-3.9 0-7-1.3-9.7-3.8-2.5-2.5-3.9-5.5-3.9-9.3s1.3-7 3.9-9.4c2.8-2.6 6-3.9 9.9-3.9zm.2 3.5c-2.9 0-5.3.9-7.1 2.8-1.9 1.9-2.8 4.1-2.8 7 0 2.8 1 5 2.9 6.9s4.3 2.8 7 2.8c2.9 0 5.3-.9 7.1-2.8 1.9-1.9 2.9-4.1 2.9-7 0-2.8-1-5-2.9-6.8-2-2-4.3-2.9-7.1-2.9z"/><path d="m163.6 310.8h3.5v25.6h-3.1l-17.1-19.7v19.7h-3.4v-25.6h3l17.2 19.8v-19.8z"/><path d="m178.9 325.6-2.8-1.6c-1.8-1-3-2.1-3.8-3.1s-1.1-2.3-1.1-3.5c0-2 .8-3.6 2.1-4.9 1.4-1.3 3.3-1.9 5.4-1.9s4.1.6 5.9 1.8v4.1c-1.9-1.8-3.8-2.6-5.9-2.6-1.3 0-2.1.3-2.9.9-.8.5-1.1 1.3-1.1 2.1s.3 1.5.9 2.1 1.5 1.4 2.8 2.1l2.8 1.6c3.1 1.9 4.6 4.3 4.6 7.1 0 2-.6 3.8-2 5s-3.1 1.9-5.4 1.9c-2.5 0-4.8-.8-6.9-2.4v-4.6c2 2.5 4.3 3.8 6.9 3.8 1.1 0 2.1-.4 2.9-1s1.1-1.4 1.1-2.4c-.3-1.6-1.4-3-3.5-4.5z"/><path d="m207.3 310.8h3.6v14.5c0 2-.1 3.4-.4 4.4s-.6 1.9-1 2.5-.9 1.3-1.5 1.8c-2 1.8-4.6 2.6-7.9 2.6-3.4 0-6-.9-8-2.6-.6-.5-1.1-1.1-1.5-1.8-.4-.6-.8-1.5-1-2.4-.3-1-.4-2.5-.4-4.5v-14.4h3.6v14.5c0 2.4.3 4 .9 5 .5.9 1.4 1.6 2.5 2.3s2.4.9 4 .9c2.1 0 3.9-.6 5.3-1.8.8-.6 1.3-1.4 1.5-2.1.4-.9.5-2.3.5-4.3v-14.7z"/><path d="m236.4 310.8h3.4v25.6h-3.6v-19.8l-7.9 9.9h-.6l-7.9-9.9v19.8h-3.6v-25.6h3.5l8.5 10.5z"/><path d="m257.9 310.4c3.9 0 7.3 1.3 9.9 3.8s3.9 5.6 3.9 9.4-1.4 6.9-4 9.4-6 3.8-10 3.8c-3.9 0-7-1.3-9.7-3.8-2.5-2.5-3.9-5.5-3.9-9.3s1.3-7 3.9-9.4c2.7-2.6 6-3.9 9.9-3.9zm.1 3.5c-2.9 0-5.3.9-7.1 2.8-1.9 1.9-2.8 4.1-2.8 7 0 2.8 1 5 2.9 6.9s4.3 2.8 7 2.8c2.9 0 5.3-.9 7.1-2.8 1.9-1.9 2.9-4.1 2.9-7 0-2.8-1-5-2.9-6.8-2-2-4.4-2.9-7.1-2.9z"/></g></svg>