<svg fill="none" height="69" viewBox="0 0 31 69" width="31" xmlns="http://www.w3.org/2000/svg" xmlns:xlink="http://www.w3.org/1999/xlink"><clipPath id="a"><path d="m0 0h31v69h-31z"/></clipPath><g clip-path="url(#a)"><path d="m13.9942 8.03788c0-1.65081 0-3.18371 0-4.85417-.7228.11791-1.3854.29479-2.068.31444-1.3854 0-2.79084.01965-4.15612-.17687-1.02397-.13757-1.46568-1.00228-1.20466-1.80804.26101-.825401 1.02396-1.218451 2.00777-.904011 1.54601.510961 3.05181.058958 4.53761-.216178 4.7985-.904015 9.4566-.15722 14.0744 1.021929.8634.21618 1.3051.96298 1.1043 1.70977-.2208.82541-.9838 1.21846-1.9676 1.04158-2.2889-.4127-4.5978-.84505-6.8867-1.21845-.7629-.09826-1.546 0-2.3892 0v5.10965c1.1043 0 2.1684-.01965 3.2325 0 1.3051.01965 1.8271.51097 1.8271 1.78838.02 1.82769.02 3.67499 0 5.50269 0 .5503.1405.7665.7228.9237 5.0395 1.415 8.1716 5.4634 8.1716 10.6123.0201 12.5383 0 25.0767 0 37.615 0 2.8496-1.6665 4.5004-4.6179 4.5004-7.2681.0196-14.5162.0196-21.7843 0-2.93135-.0197-4.5978-1.6705-4.5978-4.5397 0-12.499 0-25.0177 0-37.5167 0-5.2276 3.09197-9.2563 8.19171-10.691.60233-.1768.70272-.4323.70272-.9433-.02008-1.808-.02008-3.5964 0-5.40443 0-1.35602.50194-1.84734 1.86727-1.86699zm14.0745 21.79462c0-1.2381.0602-2.3583 0-3.4588-.2611-4.4218-3.7144-7.5859-8.2319-7.6055-2.8711-.0197-5.7623-.0197-8.6334 0-4.73837.0196-8.27205 3.4195-8.29213 8.0575-.02008 12.5383-.02008 25.0766 0 37.6346 0 1.2577.42163 1.6704 1.66645 1.6704h21.78428c1.3051 0 1.7067-.4127 1.7067-1.7294 0-1.5722-.0402-3.1444.02-4.7166.0402-.8254-.3011-.9826-1.044-.963-2.9113.0393-5.8225.0393-8.7338 0-2.4495-.0393-4.2565-1.7884-4.2766-4.1663-.0401-6.8391-.0201-13.6978 0-20.5369 0-1.867 1.2448-3.4588 3.0518-3.9502.6024-.1572 1.2449-.1965 1.8873-.1965 2.9916-.0393 5.9631-.0393 9.0953-.0393zm-.0603 2.8889c-2.9916 0-5.9028 0-8.8141 0-1.8873 0-2.2487.3538-2.2487 2.1618v17.7855c0 3.2034 0 3.2034 3.2927 3.2034h7.7701c0-7.7431 0-15.3879 0-23.1507zm-16.0822-21.7749v4.8541h7.1476c0-1.6508 0-3.2426 0-4.8541-2.4093 0-4.7383 0-7.1476 0z" fill="#000"/></g></svg>