<svg fill="none" height="28" viewBox="0 0 24 28" width="24" xmlns="http://www.w3.org/2000/svg" xmlns:xlink="http://www.w3.org/1999/xlink"><clipPath id="a"><path d="m0 0h23.6078v28h-23.6078z"/></clipPath><g clip-path="url(#a)"><path d="m23.0516 25.4359h-22.495394c-.309003 0-.556206-.2483-.556206-.5587v-22.369c0-1.38447 1.03825-2.5082 2.30516-2.5082h18.99134c1.2731 0 2.3113 1.12373 2.3113 2.5082v22.369c0 .3042-.2472.5587-.5562.5587zm-21.93919-1.1175h21.38299v-21.8102c0-.76984-.5376-1.39068-1.1927-1.39068h-18.99754c-.65508 0-1.19275.62084-1.19275 1.39068z" fill="#323232"/><path d="m23.0516 6.95346h-22.495394c-.309003 0-.556206-.24834-.556206-.55876 0-.31043.247203-.55876.556206-.55876h22.495394c.309 0 .5562.24833.5562.55876 0 .31042-.2472.55876-.5562.55876z" fill="#323232"/><path d="m11.8534 22.3564c-3.7822 0-6.85987-3.0918-6.85987-6.8913 0-3.7996 3.07767-6.89137 6.85987-6.89137s6.8599 3.09177 6.8599 6.89137c0 3.7995-3.0777 6.8913-6.8599 6.8913zm0-12.66515c-3.17037 0-5.74746 2.58895-5.74746 5.77385s2.57709 5.7738 5.74746 5.7738c3.1704 0 5.7475-2.5889 5.7475-5.7738s-2.5833-5.77385-5.7475-5.77385z" fill="#0360fd"/><path d="m11.8537 19.6745c-2.31139 0-4.19013-1.8874-4.19013-4.2093 0-2.322 1.87874-4.2093 4.19013-4.2093 2.3113 0 4.19 1.8873 4.19 4.2093 0 2.3219-1.8849 4.2093-4.19 4.2093zm0-7.3011c-1.6996 0-3.07771 1.3845-3.07771 3.0918s1.37811 3.0918 3.07771 3.0918c1.6995 0 3.0776-1.3845 3.0776-3.0918s-1.3843-3.0918-3.0776-3.0918z" fill="#0360fd"/><g fill="#323232"><path d="m5.98236 27.9999h-3.26307c-.309 0-.5562-.2484-.5562-.5588v-2.502c0-.3104.2472-.5587.5562-.5587h3.26307c.30901 0 .55621.2483.55621.5587v2.502c0 .3104-.25338.5588-.55621.5588zm-2.70686-1.1175h2.15066v-1.3845h-2.15066z"/><path d="m20.8885 27.9999h-3.2631c-.309 0-.5562-.2484-.5562-.5588v-2.502c0-.3104.2472-.5587.5562-.5587h3.2631c.309 0 .5562.2483.5562.5587v2.502c0 .3104-.2472.5588-.5562.5588zm-2.7069-1.1175h2.1507v-1.3845h-2.1507z"/><path d="m19.6647 4.61274c.5393 0 .9764-.43918.9764-.98093s-.4371-.98093-.9764-.98093-.9765.43918-.9765.98093.4372.98093.9765.98093z"/><path d="m16.7605 4.61274c.5393 0 .9765-.43918.9765-.98093s-.4372-.98093-.9765-.98093-.9764.43918-.9764.98093.4371.98093.9764.98093z"/><path d="m5.82777 4.94184h-2.8181c-.50059 0-.90847-.40975-.90847-.91263v-.93127c0-.50288.40788-.91264.90847-.91264h2.82428c.50059 0 .90847.40976.90847.91264v.93127c-.00618.50288-.41406.91263-.91465.91263zm-2.61416-1.11751h2.41022v-.52151h-2.41022z"/><path d="m11.0808 4.94184h-2.82431c-.50058 0-.90847-.40975-.90847-.91263v-.93127c0-.50288.40789-.91264.90847-.91264h2.82431c.5006 0 .9085.40976.9085.91264v.93127c0 .50288-.4079.91263-.9085.91263zm-2.61419-1.11751h2.41019v-.52151h-2.41019z"/></g><path d="m18.7009 17.4767h-1.5883c-.1915 0-.3522-.1615-.3522-.3539v-3.545c0-.1925.1607-.3539.3522-.3539h1.5883c.1916 0 .3523.1614.3523.3539v3.545c0 .1924-.1545.3539-.3523.3539z" fill="#0360fd"/></g></svg>